<?xml version="1.0" encoding="utf-8"?>
<!-- Generator: Adobe Illustrator 21.0.0, SVG Export Plug-In . SVG Version: 6.00 Build 0)  -->
<svg version="1.1" id="Layer_1" xmlns:amcharts="http://amcharts.com/ammap"
	 xmlns="http://www.w3.org/2000/svg" xmlns:xlink="http://www.w3.org/1999/xlink" x="0px" y="0px" viewBox="0 0 792.5 590.2"
	 enable-background="new 0 0 792.5 590.2" xml:space="preserve">
<defs>
	
	
		<amcharts:ammap  bottomLatitude="41.730628" leftLongitude="-141.007366" projection="mercator" rightLongitude="-52.648425" topLatitude="83.116658">
		</amcharts:ammap>
</defs>
<g>
	<path id="CA-AB" fill="#CCCCCC" stroke="#FFFFFF" stroke-width="0.5" d="M278.2,497.4h-2.9h-3.8h-3.8h-3.8H260h-3.8h-3.8h-3.8h-3.8
		h-3l0.1-0.3l-0.1-0.3l-0.7-0.8l-0.3-0.7l-0.2-0.3l-1.5-0.6l-0.2-0.3l-0.1-0.3l-0.4-0.3l-0.5-0.8l-0.8-0.8l-0.2-0.4l0-0.4l0.1-0.9
		l0-0.3l-0.2-0.1l-0.7-0.1l-0.3-0.2l-0.2-0.3l0-0.2l0.5-0.5l0.4-1.2l0-0.9l-0.4-1.9l0.1-0.3l0.2-0.4v-0.5l-0.1-0.6l-0.4-1l-0.6-3.2
		l-1.8-2.6l-0.5-0.5l-0.4-0.1h-0.3l-0.6,0.4l-0.1,0.1l-0.1-0.1l-0.4-0.4l-0.4-0.6l-0.1-0.1l0-0.2l0.1-0.2l-0.1-0.3l-0.2-0.3
		l-0.1-0.1h-0.1l-0.1,0l-0.1,0l-0.1-0.1l-0.3-0.3l-1.8-1.4l-0.1-0.2l0.5-0.6l-0.1-0.4l-0.2-0.4l-1.6-1.5l-1.3-0.4l-0.5-0.4l-0.1-0.3
		l-0.2-0.9l-0.1-0.2l-0.1-0.1l-0.7-0.4l-0.4-0.4l-0.7-0.4l-0.3-0.4l-0.3-1.4l-0.6-0.7l-0.3-0.7l-0.4-0.4l-0.4-0.6l-0.6-0.5l-0.6-1.6
		l-0.4-0.5l-0.4-0.1l-0.4,0.2l-0.3,0.2l-0.1,0.3l-0.1,0.4l-0.1,0.1l-0.7,0L216,459l-0.9-2.2l-0.4-0.6l-1.5-1.8l-0.7-1.6l-0.2,0
		L212,453l-1.8,0l-1.5-1l-0.3-0.4l-0.3-0.6l0.8-1.2l0-0.4l-0.2-0.2l-1.1-0.5l-1.1-0.8l-0.2,0.3l-0.1,0.6l-0.1,0.2l-1.2,0.4l-0.3,0
		l-0.2-0.3l0-0.5l0.2-0.6l-0.4-0.5l-0.2-0.7l-0.6-0.9l0.3-0.8l-0.1-0.5l-0.2-0.5l-0.5-0.6l-0.1-0.8l-0.4-0.6l-0.2-0.2L201,442
		l-0.2-0.2l-0.3-0.9l-0.1-0.8l-0.5-0.5l-0.3-0.1l-0.1-0.8l-0.3-0.5l-1-0.9l-0.7-0.4l-0.2,0.5l-0.1,1l-0.2-0.1l-1.9-1l-0.4-0.5
		l-0.8-1.7l-0.3-0.1l-1.4-0.2l-0.5,0.1l-0.3-0.1l-0.4-0.4l-0.9-1.4l-0.3-0.3l-0.3-0.1l0-0.8l-0.2-0.5l0-0.2l0.3,0h1.3l0.1-0.3
		l-0.7-1l-0.7-0.1l-0.2-0.2l-0.1-0.7l-0.5-0.4l-0.3-0.7l0-5.9V416v-6v-6v-6.1v-6.2v-6.2v-6.3v-6.3v-6.4v-6.5v-6.5v-6.6v-6.7v-6.8
		v-6.9h5.6h5.6h5.6h5.6h5.6h5.6h5.6h5.6h5.6h5.6h5.6h5.6h5.6h5.6h5.6h5.6v6.1v6.1v6v5.9v5.9v5.8v5.8v5.7v5.7v5.6v5.6v5.5v5.5v5.4
		v5.4v5.3v5.3v5.2v5.2v5.1v5.1v5.1v5v5v4.9v4.9v4.9v4.8v4.8v4.8v4.7V497.4z"/>
	<path id="CA-BC" fill="#CCCCCC" stroke="#FFFFFF" stroke-width="0.5" d="M154.3,326.6h4.3h4.3h4.3h4.3h4.3h4.3h4.3h4.3v6.8v6.8v6.7
		v6.6v6.5v6.5v6.4v6.3v6.3v6.2v6.2v6.1v6v6v5.9v5.9l0.2,0.7l0.5,0.4l0.1,0.7l0.2,0.2l0.7,0.1l0.7,1l-0.1,0.3h-1.3l-0.3,0l0,0.2
		l0.2,0.5l0,0.8l0.4,0.1l0.3,0.3l0.9,1.4l0.4,0.4l0.3,0.1l0.5-0.1l1.4,0.2l0.3,0.1l0.8,1.7l0.4,0.5l1.9,1l0.2,0.1l0.1-1l0.2-0.5
		l0.7,0.4l1,0.9l0.3,0.5l0.1,0.8l0.3,0.1l0.5,0.5l0.1,0.8l0.3,0.9l0.2,0.2l0.9,0.1l0.2,0.2l0.4,0.6l0.1,0.8l0.5,0.6l0.2,0.5l0.1,0.5
		l-0.3,0.8l0.6,0.9l0.2,0.7l0.4,0.5l-0.2,0.6l0,0.5l0.2,0.3l0.3,0l1.2-0.4l0.1-0.2l0.1-0.6l0.2-0.3l1.1,0.8l1.1,0.5l0.2,0.2l0,0.4
		l-0.8,1.2l0.3,0.6l0.3,0.4l1.5,1l1.8,0l0.3-0.2l0.2,0.1l0.7,1.6l1.5,1.8l0.4,0.6l0.9,2.2l0.2,0.3l0.7,0l0.1-0.1l0.1-0.4l0.2-0.3
		l0.3-0.2l0.4-0.2l0.4,0.1l0.4,0.5l0.6,1.6l0.6,0.5l0.4,0.6l0.4,0.4l0.3,0.7l0.6,0.7l0.3,1.4l0.2,0.4l0.7,0.4l0.4,0.4l0.7,0.4
		l0.1,0.1l0.1,0.2l0.2,1l0.1,0.3l0.5,0.4l1.3,0.4l1.6,1.5l0.2,0.4l0.1,0.4l-0.5,0.6l0.1,0.2l1.8,1.4l0.3,0.3l0.1,0.1l0.1,0l0.1,0
		h0.1l0.1,0.1l0.2,0.3l0.1,0.3l-0.1,0.2l0,0.2l0.1,0.1l0.4,0.6l0.4,0.4l0.1,0.1l0.1-0.1l0.6-0.4h0.3l0.4,0.1l0.5,0.4l1.8,2.6
		l0.6,3.2l0.4,0.9l0.1,0.6v0.5l-0.2,0.4l-0.1,0.3l0.4,1.9l-0.1,0.9l-0.4,1.2l-0.5,0.5l0,0.2l0.2,0.3l0.3,0.2l0.7,0.1l0.2,0.1l0,0.3
		l-0.1,0.9l0,0.4l0.2,0.4l0.8,0.8l0.5,0.8l0.4,0.3l0.1,0.3l0.2,0.3l1.5,0.6l0.2,0.3l0.3,0.7l0.7,0.8l0.1,0.3l-0.1,0.3h-0.9H237h-3.8
		h-3.8h-3.8h-1.6h-2.2h-3.8H215h-0.9h-3.8h-3.8h-3.8h-3.8H195h-3.8h-3.8h-3.8h-3.8h-3.8h-3.8h-3.8h-3.8h-0.9l-0.3-0.5l-0.9-0.6H162
		l-0.4,0.2l-0.2,0.3l-0.2,0.6h-0.3l-0.3-0.9l0.1-0.4l0.3-0.5l0-0.2l-0.6,0.1l-0.3-0.1l-0.1-0.2l0.1-1l-0.3-0.6l0.4-0.2l1.1-0.2
		l1.1,0l0.3-0.4l0.3-1l-0.8,1l-0.5,0.1l-1.4-0.4l-0.9,0.1l-0.1-0.2l0-0.2l0.2-0.2l0.1-0.7l0.2-2l0.3-0.7l0.1-0.4l-0.1-0.1l-1.2,1.4
		l-0.1,0.4l0.1,0.4l-0.1,0.8l-0.6,0.2l-0.3-0.1l-0.6,0.7l-0.2,0.1l-2.9-1.2l-0.3-0.2l-0.5-0.6l-0.7-0.9l-0.2-0.8l0.3-0.7l0.3-0.3
		h0.3l0.3,0.3l0.7,1.1l0.3,0.7l0.7-0.1l1.1-0.9l0.3-0.3l-1.1,0.3l-0.5,0l-0.5-0.4l-0.5-0.7l-0.3-0.8v-2.6l0.2-0.5l0.6-0.4l0.4-0.6
		l0-0.3l-0.3-0.5l-0.5-0.4l-0.5-0.2l-0.1,0.1l0.7,1.1l0,0.4l-0.8,1.1l-0.1,0.3l0,1.1l-0.1,0.2l-0.7,0.3l-0.7,0.8l-1.2,0.3l-1.2-0.1
		l-0.6-0.4l-2-2.1l-0.7-0.9l0-0.7l-1.3-2.6l0-0.6l-0.5-0.8l-0.5-0.1l-0.1-0.8l1.1-1.7l0.7-1.4l0.1-0.4l0-0.7l-0.2-1.5l0.1-0.7
		l-0.7,0.9l-0.1,0.7l0.2,0.7l-0.1,0.7l-0.4,1l-0.7,1.1l-1.4,0.5l-2.4-0.3l-0.3-0.1l-0.2-0.4l-0.1-1.6l-0.1,0.2l-0.3,0.9l-0.2,1.2
		l-0.3,0.3l-0.5,0l-0.4-0.2l-0.3-0.4l-0.6,0l-1.1,0.3l-0.5-0.1l-0.6,0l-1.3-0.4l-1.5-0.1l-0.4-0.3l0-0.5l0.3-0.3l1.6-0.2l1.5-0.6
		l1.5-0.3l-0.1-0.3l-0.7-0.1l-3.5,0.6l-1.1-0.1l-0.2-0.1l0-0.6l0.4-0.6l0.7-0.6l0.2-0.4l-0.4-0.2l-0.6,0.1l-0.3-0.3l0.3-1.3
		l-0.3-1.4l-0.4,1.3l-0.6,0.7l-2.9,0.3l-0.5,0.4l-0.4,0l-1.9-0.7l-0.8-0.4l-0.8-0.6l-1.3-1.4l-1.1-0.9l-0.1-1.7l0.2-1.1l0.5-1.2
		l1.9-2.6l0.7-0.5l0.6-0.2l2.8-0.2l2.1-0.3l0.4-0.2l-3.1-0.2l-2.7,0.1l-0.9,0.4l-1.2,1.7l-0.3,0.7l-0.3,0.5l-0.2,0l-0.4-0.2
		l-0.1-0.2l-0.2-0.6l-0.6-0.9l-0.3-1l-0.2-1.5l0.1-0.7l0.3-0.8l0.9-1.7l-1.2,0l0.1-1.4l0.4-1.5l1.1-0.9l1.1-0.7l1-0.9l1.8-0.6
		l0.6,1.2l1.5,0.3l0.4,0.5l0.5,1l0.7,0.9l0.8,0.9l0.2,0.1l-0.3-0.8l-1.3-1.7l-0.1-0.6l-0.3-0.6l-1.7-0.9l-0.3-0.3l-0.3-0.9l-0.1-0.6
		l0.2-0.6l1.7-1.8l0.4-0.9v-0.4l-0.1-0.5l-0.4-0.9h-0.1l0.1,1.3l-0.1,0.5l-0.2,0.6l-0.3,0.4l-0.4,0.3l-3.7,4l-0.4,0.2l-1.4,0.4
		l-0.7,0.4l-0.4,0.6l-0.6,1.5l-0.8,2.9l-1,2.3l-0.8-3l-1.5-2.3l2.9-2.3l0.1-0.4l-0.3-1.2l0.1-0.4l0.3-0.6l0.7-0.8l0-0.1l-0.8,0.3
		l-1.3,1.8l-0.5,0.6l-0.3,0.1l0-1.1l0.7-2.8l0.6-2.7l0.2-0.8l0.5-0.8l-0.5,0.1l-2.3,1.2l-0.8-0.8l-0.7-3.9l-1.1-1.5l-1.9-1.3
		l-1.9-0.6l-0.4-1.1l-0.4-1.4l0.5-1.6l0.8-0.8l0.8-0.3l0.7,0.2l0,0.6l-0.5,1.6l0.7,0.2l2.6,1.9l0.6,0.2l1.1-0.7l0.6,0l1.4,0.6
		l0.5,0.7l1.4,1.4l-0.2-0.8l-1.5-1.7l-0.8-0.6l-1.4-0.1l-0.9,0.3l-0.4-0.1l-0.8-0.4l-0.7-0.7l-0.7-1.6l-0.2-0.8l0-0.6l0.2-0.5
		l0.3-0.4l0.6-0.3l0.8-0.2l0.2-0.2l-1.1-0.9h-0.5l-1.7,1.3l-0.3,0.1l-0.2-0.3l-0.1,0l-0.5,0.7l-0.4,0.3l-1.4,2.1l-0.2,1l-0.1,1.5
		l-0.2,0.9l-0.2,0.4l-1.6,0.7l-0.9,1.4l-1.1-1.2l-1.2-1.2l-0.8-2.1l-1.5-0.4l-1.7-1.2l-0.7-1.1l0.9-2.2l1.3-1.6l0.2-2l0.2-0.4
		l2.3-0.5l1.5-1l-1.5-0.1l-0.9,0.2l-1.7,0.7l-1.8-1.4l-0.9-1.2l-0.3-1.1l0.3-0.9l0-0.9l0.2-1.2l0.2-0.5l0.4-0.7l0.8-0.5l0.7-1.4
		l0.3-1l1.4-3l0.5-1.3l1-1.8l2-2.9l-0.6,0.2l-0.3,0.2l-0.3,0l-0.3-0.3l-0.3-0.6l-0.3-1l-0.2,0.4l0,1.8l-0.2,1.6l-0.3,1.1l-1,2.2
		l-0.6,0.8l-0.4-0.8l0.3-1.4l0.6-1.1l0.1-1.5l-0.5-1.8l-0.3-1.4l-0.1-1.1l0-1l0.1-0.9l0.2-1l0.4-1.1l0-0.1l0.1-1l-0.1-1l-0.3-0.8
		l-0.4-0.7l-1.1,0.4l-1.8-0.6l-0.6-1.7l-1.5-0.5l-0.8-1.2l-1.7-0.6l-1.4-0.4l-1-0.7l-1.2-0.8l-1.2-0.9l-0.9-0.7l-0.7,0l-1.6,0.1
		l-0.1-1.5l-0.5-0.9l0.2-0.8l-0.9-0.4l-1.3-0.6l0.4-1.6l0.3-1.2l-1.1-0.4l-1.6-0.5l0.5-1.1l0.4-0.9l-0.6-1.3l-1.3-2.2l-1-1.5
		l-1.3-2.4l-1.1-2.1l-0.9-1.8l-0.8-1.2l-1.1-2.2l-1.4-2.5l-1.3-1.9l0.2-1.3l-1.3-1.6l-1.1-1.6l-1.3-1.9l-1.3-0.9l-0.9-0.7l-1.3-0.9
		l-0.7-0.8l-0.3-0.7l-0.3-0.5l-0.3-0.7l-0.2-0.8l-0.3-0.5l-1.6-1.2l-0.5-0.8l-1.1-0.9l-0.9-0.4l-0.3-0.3l-1.1-2.7l0.2-1l0.1-1
		l-0.1-0.5l-1.9-2.1l-1-0.9l-1-0.9l-2,1.2l-2.1,1.2l-1.5,0.4l-2,0.6l0.7,1.3l-0.3,0.9l-0.6,0.4l-1.1,0v3.2l-1,2.2l-2.1,0l-1.1,0.8
		l-1.7,1.1l-1.4,0.9l-1.4,1.5l-0.7-0.2l0.3-1.3l-0.5-2.4l-0.4-1.9l-0.9-1l-1.6-1.6l-1.2-1.2l-1.7-1.8l-1.2-1.2l-1.2-1.3l-1.6-1.7
		l-0.7-2.2l-1.5-0.8l-1.6-0.8l-0.1-0.2l8.6,0h8.5h8.5h8.5h8.5h8.5h8.5H86h8.5h8.5h8.5h8.5h8.5h8.5h8.5L154.3,326.6L154.3,326.6z
		 M97,409.6l0-0.5l0.4-1.2l1.2-2.5l0-0.7l-0.2-1.1l-0.6-1.8l-0.2-1l-0.1-1.1l0.1-1l0.2-1l0.3-0.9l0.4-0.8l-0.6,1.6l-0.3,1.5l0.1,1.7
		l0.4,1.6l0.3,1.1l0.1,0.7l0.1,0.6l0,0.7l-0.4,0.9L97,409.6z M93.7,413.6l0.7-1l1.6-1.7l0.9-1.2l0.1,1.2l-1.3,2.1l-1.7,1L93.7,413.6
		z M90.6,418.1l-0.2,0l-0.1-0.3l0.1-0.7l0.3-1.1l0.1-0.3l1.2,0.2l0.2,0.1l0,0.2l-0.1,0.3l-0.4,0.5L90.6,418.1z M75.1,423.5l0.8,0.9
		l2-0.6l0.4,0.1l0.4,0.3L79,425l0.4,1.1l0.1,1.2l-0.2,0.4l-0.3,0.5l-3.1,1.9l-0.1,0.2l0.1,0.2l0.3,0.2l0.6,0l2.5-0.5l0.1-0.3
		l0.2-1.5l0.3-0.8l0-0.6l-0.2-1.4l0-0.6l1.7-0.1l1.1-0.5l1.1-1l0.2,0l-0.2,1.8l-0.2,0.6l-1.1,2.2l-0.6,1.9l-0.3,1.9l-0.1,3.1
		l-0.3,1.1l-0.5,0.7l-3,1.1l-1.6-0.1l-1.4-1l-0.7-0.7l0.5-0.9l0.3,0l1,0.2l0.8,0.3l0.3,0l-0.1-0.2l-2.1-1.6l-1.6-0.7l-0.5-0.8l0-0.6
		l-0.1-0.4l-1.2-2.2l-0.2-0.9l-0.2-1.3v-1.3l0.3-2.1l0.1-0.2l0.5,0l0.9,0.3L75.1,423.5z M96.8,426.1l-0.3,0.6l-0.6,0.8l-0.4,0.3
		l-0.2-0.2l-0.6-0.1l-0.6-0.8l-0.5-0.3l-0.3,0l-0.2,0.3l0,0.4l0.1,0.5l-0.1,0.2l-0.2-0.1l-0.2-0.2l-0.2-0.4l0-0.4l0.1-0.4l0.4-0.6
		l1.4-1.3l0.4-0.2l0.4,0.1l0.7,0.6l0.2,0.2L96.8,426.1z M100.2,438l-0.2,0.1l-0.6-0.2l-1.9-2.5l-1.4-0.9l-0.9-1.2l-1-0.8l0.6-1.3
		l0.5,0.2l1.8,1.1l1.4,1l0.8,0.7l1.7,2.9l-0.1,0.4L100.2,438z M106.3,438.7l-0.1,0.1h-0.9l-0.3-0.2l-0.2-0.3l-0.1-0.5l0.2-0.6
		l0.6-1.1l0-0.5l0.1-0.2l0.4,0.6l0.2,0.5L106.3,438.7z M111.9,441.4l0.4,4.7l0,1.5l-0.6,1l-0.4,1.6l-0.5,0.7l-0.5-1l0-1.6l-0.1-1.3
		l-0.2-0.6l0.2-2.4l-0.2,0.2l-0.6,1.1l-0.6,0.1l-1.1-1.2l-0.6-1l-0.1-1l-0.7-1.1l-0.1-0.4l0.1-0.4l0.6-1.1l0.2-0.7l0.2-1.5l0.2-0.6
		l0.6,0.1l1,0.7l1.1,0.7l1,1L111.9,441.4z M83.2,437.5l0.9,1.4l0.3,1.2l-0.1,1.4l-1.4,0.6l-0.8-0.4l-0.3,0.1l-0.5,0.4l0.6,0.2
		l0.8,0.7l0.7,0.9l1.1,0.2l1.4,0.6l-1.1,1.2l-0.2,0.7l1.3,1.8l0.1,0.5l0.4,0.1l1-0.2l0.1,0.2v0.4l-0.6,1.1l0.1,0.2l0.5,0.2l1,0
		l0.2,1.1l-0.9,1l-1.8-1.2l-0.8-1.2l-0.5-1.1l-0.6-0.7l-1.7-1.4l-2.5-3.1l-0.7-0.4l-0.7-1.2l-0.2-0.6l0-0.4l0.3-0.2l0.8-0.1l0-0.6
		l-2.9-1.1l-0.3-0.2l-0.4-0.8l0.2-0.1l1.6,0.1l1.7-0.4l1.1-0.3l0.4-0.3l0.9-0.4l0.4,0L83.2,437.5z M105,440.6l-0.1,0.1l-0.4-0.2
		l-0.4-0.4l-0.6-1.1l-0.2-0.5l-0.1-0.8l0.1-0.1l0.3,0.1l0.2,0.1l1,1.8L105,440.6z M108.4,447.7l-0.3,0.7l-1.2-1.6l-0.4-0.5l-0.9-1.7
		l-0.2-0.7l0-0.4l0.2-0.2l0.3,0.1l0.3,0.2l1.7,1.9l0.5,0.9L108.4,447.7z M113.5,449.3l-0.7,0.2l0.2-0.8l0.1-0.5l-0.1-0.4l-0.1-0.8
		l0-2l0.7-1.3l1.1,0l0,0.6l-0.4,2.8l-0.2,1.3l-0.2,0.5L113.5,449.3z M89.7,455.7l-0.2,0l-0.3-0.3l-0.2-0.5l-0.1-1.3l0.1-0.5L89,453
		l0.8,0.8L89.7,455.7z M117.5,462.7l-0.2,0.2H117l-0.6-0.2l-0.4-0.5l-0.5-1.7l0.1-0.3l0.2-0.3l0.8-0.6l0.3,0.1l0.1,0.4l0.5,1
		l0.1,0.3v1.1L117.5,462.7z M124,474.6l4.4,1.8l4.5,0.9l3.3,1l2,0.3l0.7,0.2l0.5,0.4l0.6,0.9l0.9,2.1l0.7,1.3l1.5,2.3l1.2,1.6
		l0.3,0.6l-0.2,0.2l0,0.4l0.9,1.6l1.7,1.4l1.3,0.7l2.8,1.1l1.7,1.1l0.5,0.7l0.7,0.7l0.3,0.5l0.6,1.8l1.1,1.7l1.2,3.3l0.2-0.3l0.1-1
		l0.1-0.2l0.2-0.1l0.2,0.4l0.2,0.9l0.7,2l-0.2,0.6l-0.2,0.1l-1-0.3l-0.4,0.4l-0.5,0.7l-0.3,0.3l-0.2-0.1l-2.9-0.7l-1.8-0.7l-2.3-1.1
		l-2.8-1.1l-1.6-0.8l-1.3-0.8l-0.9-0.7l-0.2-0.6l0-0.3l1.8-1.8l0.8-1l0.3-0.8l0.1-0.8l-0.1-1l-0.1,0.1l-0.2,0.9l-0.3,0.8l-0.3,0.7
		l-0.2,0.2l-2.2,0.3l-1.7-0.1l-0.9,0.8l-0.3,0.1l-0.5-0.3l-1.1-1l-1.5-0.8l0.1-0.2l1-0.4l0.5-0.6l-0.1-0.1l-0.4,0l-0.3-0.1l-0.6-0.8
		l-0.4-0.2l-0.7,0.4l-0.3,0l-0.3-0.6l0.4-1.3l0-0.3l-0.8,0.5l-0.2-0.2l-0.2-0.4l-0.2-0.2l-0.6,0.1l-0.7-0.4l-0.2,0.2l-0.1,0.6
		l-0.2,0.1l-1-0.9l-0.2,0l-0.5,0.7l-0.2,0l-0.3-0.3l-0.1-1.7l0.1-0.5l0.1-0.2l0.9-0.4l2.6-0.4l0.2-0.3l-1.9,0.2l-0.5-0.2l-0.5-0.6
		l-0.6,0l-0.3-0.2l-0.3-0.4l-0.8-1.6l-0.6-0.4l-0.9-0.2l-0.5-0.3l-0.2,0.1l-0.2,0.4l-0.3,0.3l-0.6,0.2l-0.6-0.1l-0.5-0.4l-0.3-0.5
		l-0.1-0.6l0.2-0.8v-0.3l-0.1-0.4l-0.2-0.3l-0.3-0.2l-0.2,0.1l0,0.5l-0.2,0.3l-0.5,0.3l-0.4-0.5l-0.3-0.6l-0.3-0.5h-1.9l-0.9,0.6
		l-0.4,0.1l-0.4-0.1l-0.1-0.3l0.4-0.9l-0.1-1.1l-0.1-0.3l-0.9-0.2l-0.2-0.3l0.5-1.4l0.3-0.3l0.4-0.1l1.7-0.1l0.6,0.2l0.8,0.8l0-0.3
		l-0.3-1l0-0.6l0.6-0.7l-0.5-0.2l-2-0.2l0,0.4l0.2,0.6l-1.2,0.5l-0.9,0.1l-0.8-0.1l-0.7-0.3l-1.2-1.2l-0.7-1.2l0-0.7l0.4-0.7
		l0.5-0.5l1.3-0.4l1.6,0l1.8,0.6L124,474.6z M142.1,482.2l-0.1,0.7l-0.6-1.2l-0.9-2.5l0.1-0.6l0.4-0.8l0.4-0.1l0.6,0.4l0.5,0.7
		l0.1,0.3l0.3,0.7l0.2,0.7l-0.4,0.8L142.1,482.2z M143.9,483.2l-0.2,0.1l-0.2-1.6l0.3-0.6l0.1-0.3l0-0.3l0.5,0.7l0.2,0.5l0.1,0.7
		l0,0.2L143.9,483.2z M129,489l-0.4,0.1l-0.6-0.2l-0.6-0.4l-1.1-1.1l-0.1-0.2l0.1-0.2l0.3-0.2l0.1-0.3l-0.3-0.8l0.9-0.5l0.8,0.4
		l0.4,0.5l0.4,0.9l0.2,1l0,0.7L129,489z M151.3,490.1l0.1,0.3l-2-1.1l-0.9-0.6l-0.3-0.5l-0.2-0.3l-1-0.7l-0.2-0.3l0.2-0.2l0.7,0.1
		l1.1,0.5l1,0.8L151.3,490.1z M133.9,492.5l0.2,1.2l-1.1-0.2l-0.4-0.2l0-0.6l0.2-0.6l0.8,0.2L133.9,492.5z M158.3,498.9l-0.1,0.2
		l-1.4-1l-0.9-1.3l-0.4-0.8l1.9,1.9l0.9,0.6L158.3,498.9z M157.7,500.7l-0.4,0.3l-0.2-0.1l-0.2-0.2l-0.6-2.4l0.2,0.1l0.8,0.7
		l-0.2,0.3l0.6,0.7l0.1,0.5L157.7,500.7z"/>
	<path id="CA-MB" fill="#CCCCCC" stroke="#FFFFFF" stroke-width="0.5" d="M466.9,380.5l-2.3,2.5l-2.3,2.6l-2.3,2.6l-2.3,2.6
		l-3.1,3.6l-3.1,3.6l-3.1,3.6l-3.1,3.5l-2.7,3.3l-2.7,3.3l-2.7,3.2l-2.7,3.2l-2.3,2.8l-2.3,2.8l-2.3,2.8l-2.3,2.8l-3.4,3.5l-3.4,3.5
		l-3.4,3.4l-3.4,3.4l0,6.4l0,6.3l0,6.2l0,6.2l0,6.1v6.1l0,6l0,6l0,2.3l0,2.9l-2.1,0h-3.8h-3.8h-3.8h-3.8h-1.1H390h-3.8h-3.8h-3.8
		h-3.8h-3.8H367h-3.8h-3.8h-3.8l-0.3-5.8l-0.4-5.9l-0.4-5.9l-0.4-6l-0.4-6l-0.4-6.1l-0.4-6.2l-0.4-6.2l-0.4-6.3l-0.4-6.3l-0.4-6.4
		l-0.4-6.5l-0.3-6.5l-0.4-6.6l-0.4-6.7l-0.4-6.8l0-4.2v-4.2v-4.2v-4.3V376v-4.3v-4.4v-4.4v-4.4V354v-4.5V345v-4.6v-4.6v-4.6v-4.7h4
		h4h4h4h4h4h4h4h4h4h4h4h4h4h4l4.3,0l-0.1,0.9l0.1,8.4l-0.1,3.7l-0.3,2l-0.5,1.1L413,343l1,0.3l0.6,0.5l0.3,0.8l0.3,1.2l0.4,0.6
		l0.5-0.1l0.4,0.1l0.4,0.4l1.1,1.8l1.2,0.5l0,1l-0.5,5.5v0.7l0.5-1.4l0.6-4.2l0.8-1.9l0.6-0.4l2.5-0.2l2.6,0.5l1,0.1l0.9-0.3
		l0.9,0.5l0.2,0.5l0.2,2.2l0.2,1.3l1.6,4.5l0.7,2.5l0.9,3.9l0.3,1.1l1.9,5.2l0.4,1.4l0.1,1.1l-0.1,0.8l-0.4,1.1l-0.6,1.6l-0.6,1.2
		l-0.5,0.8l-0.6,0.6l-0.6,0.4l0,0.1l0.6-0.2l0.7-0.4l1.3-1l0.5-0.2l1.4-0.2l0,0.4l-0.7,0.8l0.1,0.1l1-0.6l2.1-0.9l8.1-2.9l1.9-0.2
		l2.7,0.5l2.2,1.2l2.4,1.6l2.5,1.2l4,1.1l1.2,0.5L466.9,380.5z"/>
	<path id="CA-NB" fill="#CCCCCC" stroke="#FFFFFF" stroke-width="0.5" d="M690.3,536.9l-0.2,0.4l-1,0.2l-0.5,0.8l-0.5,0.7l-0.4,0.2
		l-0.8,0.1l-0.7,0.3l-0.5-0.8l-0.9-1l-0.1,0.4l0.4,1.3l-1.7,2.2l-1.1,0.2l-1.4,1l-2,0.9l-2.3,1.7l-3,1.4l-0.6,0l-1.4-1.2l0.4-0.5
		l0.4-0.7l-0.3,0.2l-0.2,0.3l-0.8,0.5l0.7,1l-0.3,0.4l-1,0.5l-0.9,0.7l-0.8,0.5l-0.6-0.6l-1.8,0.8l-1.5,0.2l-0.3-0.4l-0.1-0.6
		l-0.5-0.2l-1,0.2l-0.4-0.3l-0.4-0.2l-0.4-0.1l-0.3-0.1l-0.2,0.2l-0.2,0.2l-0.2,0.2l-0.5-0.2l-0.3-0.5l-0.5-0.5l-0.2-0.4l0.1-0.4
		l0.2-0.4l0.1-0.5l-0.2-0.6l-0.2-0.3l-0.2-0.4l0-0.3l0.3-0.2l0.3-0.2l0.1-0.4l-0.2-0.5l-0.5-0.2l-0.4,0.1l-0.6-0.1l-0.6-0.3
		l-0.4-0.3l-0.3-0.2h-0.2l-0.3-0.2l-0.2-0.3l0-0.5l0.1-0.3l0.2-0.3l0-0.3l-0.1-0.2l0-0.2l0-0.2l0.1-0.4l-0.2-0.3l0-1.2l0-2.2l0-1.7
		l0-2.1l0-1.5l0-2.1l0-2l0-1.9l-1.2-1.1l-1.5-1.4l-1.2-0.9l-0.7-0.1l-0.4,0.1l-0.2,0.4l-0.9,0.4l-1.7,0.4l-1.4,0.7l-0.5,0l-0.5-0.1
		l-0.6-0.3l-0.4-0.5l0-0.3l3.8-1.7l1.2-0.8l0.6-0.6l0.3-0.5l0.1-0.3v-1.4v-1v-1v-1.2h1.1h1.2v-0.9h0.8h1h1.6h1.1l0,0.4l0.3,0.4
		l1.9,1.1l0.5-0.4l1.1-0.1l1.2-0.3l1,0.2l0.2-0.8l0.7-0.5l1.2-0.3l0.7,0.2l1.8-0.8l0.6,0.1l1.3,1l3.2,1l0.8,0.7l0.8,2.2l0.5,0.3
		l1.1-0.2l1.2-1.1l1-0.6l2-0.5l-0.4,0.7l1.5-0.1l1.5,1l-0.6,0.7l-0.8,1.4l-0.5,2.7l-1.6,1.8l-2.1,1.7l0.5,0.4l0.6,0.3l1.3-0.5l0.9,0
		l1,0.3l-0.3,1.3l-0.4,0.9l0.2,0.8l0.6,1.6l0.8,0.4l0.3,2.1l0.4,1.1l-0.1,0.9l0.8,0.6l0.1,0.9l3,0.3l0.6,0.3l2,0.3l0.4,0.2l0.4,0.5
		l-2,1.1L690.3,536.9z M686.3,511.4l-1,0.7l0.5-1l0.2-0.3l0.2-0.1l0.2,0.1L686.3,511.4z M686,512.3l-0.2,1l-0.8,0.8l-0.4,0.1
		l-0.2-0.1l0.2-0.5l0-0.9l0.7-0.1l0.2,0.1L686,512.3z M665.8,553.8l-1.2,0.7l0.5-1.7l0.4-0.5l0.5,0.2l-0.1,1L665.8,553.8z"/>
	<path id="CA-NL" fill="#CCCCCC" stroke="#FFFFFF" stroke-width="0.5" d="M752.4,463.2l0-3.8v-4.2h-3.7h-3.6h-3.6h-3.7h-3.7h-3.6
		h-3.6h-3.7h-3.6h-3.6h-3.7h-3.6H705h-3.6h-3.7h-3.6l-1.3-0.1l-0.2-0.1l-0.1-0.3l0.1-0.1l0.7,0l0.4-0.2l0-0.5l-0.1-0.6l-0.7-2.3
		l-1.1-0.7l-0.5-0.5l-0.1-0.5l-0.1-0.2l-1-0.4l0-0.1l0.1-0.3l0.4-0.6l0.6-0.6l0.5-0.3l0.8-0.3l2.6-0.6l0.9-0.3l0.1-0.3l-1.3-1.3
		l-0.1-0.3l0-0.4l0.2-1.7l0-0.4l-0.5-1.1l-0.6-1l-0.5-0.1l-0.7,0.1l-1,0.4l-0.1,0.2l-0.5,2.5l-0.3,0.2l-1.2,0.4l-0.3,0.6l-0.1,2.8
		l0,1.1l0.7,2.6l-0.2,2.8l-0.3,0.6l-0.9,0.7l-0.1,0.2l-0.5,2.2l-0.1,1.3l0.1,0.4l0.3,0.6l0,0.6l-1.9,1.7l-0.8,0.1l-0.9-1.7l0-0.4
		l0.1-0.2l0.5-0.4l0.1-0.5l-0.3-0.3l-1-0.8l-1.5-2.2l-0.9-0.8l-0.9-0.6l-1.2-0.4l-1.2-0.3h-0.5l-0.2,0.1l-0.7,1.5l-0.3,0.3h-0.4
		l-0.5-0.3l-0.8-0.2l-0.2,0.6l-0.2,0.2l-0.5,0l-0.9-0.4l-0.5-0.4l-0.5-1.5l-0.5-0.3l-1.2-1l-0.2,0.1l-0.3,1.6l-0.2,0.5l-0.3-0.1
		l-0.3-0.3l-0.3-0.7l-0.2-1l0-0.7l0.5-0.8l0.1-0.3l-0.3-3.6l0.1-0.4l0.5-0.8l0.1-1l0.1-0.5l0.3-0.3l0.1-0.5l-0.2-0.6l-0.5-0.9
		l-0.3-0.3l-0.4-0.1l-0.2,0.2l-0.3,0.7l-0.8,0.4l-0.1,0.3l-0.4,2.4l-0.2,0.3l-1.1,0.6l-0.4-0.2l-0.4,0.1l-0.5-0.1l-0.7-0.3l-0.3-0.5
		l0-1.2l0.1-1.3l0.2-0.9l0.5-1.4l0-1.6l0.2-2.2l-0.1-0.4l-0.3-0.4l-0.4-0.1l-0.5-0.4l-0.5-1.3l-0.3-0.6l-2.6-0.9l-0.2-0.2l0-0.3
		l0.2-1.4l-0.1-1l-0.5-0.7l-2-2.9l0-0.4l0.3-0.6l0.5-0.6l1.5-1.4l0-0.2l-0.1-0.4l-0.6-1.7l-0.2-0.9l-0.1-0.8l0.2-0.7l0.2-0.2
		l0.4-0.1l2,0.8l0.3,0l0.4-1l0.8-0.5l0-0.6l-0.5-0.4l0-0.3l-0.8-2l-0.7-1.4l-0.4-1l-0.2-0.8l0.1-0.3l0.2-0.2l0.6,0l0.3,0.2l1.2,2
		l2.7,2.4l1.3,0.5l0.7-0.8l0-0.8l-0.5-1.6l0.2-0.8l-0.5-2.1l0.2-1l0-0.3l-0.7-1.3l0-0.3l0.2-0.3l0.4,0.2l1,1l3.4,3.9l0.8,0.6
		l0.7,0.4l1.8,0.5l0.1,0.1l0.6,1.4l0.5,0.6l0.6,0.4l5,0.4l2.8-0.2l4.2,0.1l3.9,1.4l1.4,0.3l0.5-0.1l0.4-0.4l0.8-2l0.7-2.2l0.1-0.7
		l0-0.4l-0.6-1.6l0.2-0.8l0.2-0.4l0.7-0.7l2.4-1.5l0.4-0.5l-0.3-1l-0.1-0.6l0.1-0.7l0-0.5l-1.3-0.4l-0.5-0.4l-0.5-0.5l-1-1.7
		l-1.6-2.5l-0.1-0.4l0.1-0.6l0.3-0.4l0.7-0.4l0.2-0.3l-0.2-0.5l-2.3-0.6l-0.5-0.4l-0.7-0.1l-0.3,0l0.1-0.8l0.8-1.1l-0.1-0.3
		l-1.5-0.7l-0.3-0.2l-0.1-0.2l0-0.6l-0.2-1l0.8-0.6l0.9-0.2l0.3-0.6l-0.3-0.8l-1.4-2.7l0-0.3l0.1-0.5l0.6-0.8l0.2-0.5l0.5-0.7
		l0.4-0.4l0.2-2.2l0.4-1l0.4-0.8l0.3-1.6l0-0.2l-0.3-0.6l-0.1-0.7l0.5-1.3l-0.2-2l0-0.7l0.1-0.5l1.2-1.5l0.2-0.4l0-0.5l-0.2,0
		l-0.9,0.5l-0.7-0.2l-0.4-0.1l-0.3-0.3l-0.4-0.9l-0.4-0.3l-0.2,0l-0.5,0.3l-0.3-0.5l-0.5-1.1l-0.8-2.4l-1.4-1.4l-0.1-0.4l0-0.4
		l0.2-0.4l2.5-3.2l0.7-0.7l1.6-1l0.1-0.4l0-0.4l-0.4-0.9l-1.4,0.2l-0.2-0.2l-0.2-0.8l0-0.4l0.1-0.3l0.3-0.4l0.6-0.3l3.7-0.8l0.4-0.2
		l0.1-0.2l-0.1-0.3l-0.3-0.5l-0.5-0.5l-0.7-0.4l-0.5-0.1l-2.4,0.9l-1.5,0.7l-0.3,0l-0.4-0.3l-0.5-1.4l-2.9-0.8l-1.7-0.3l-0.4-0.3
		l0-0.6l0.2-0.6l0.3-0.3l0.3-0.2l3.4,0.9l0.3-0.1l0.3-0.3l-0.1-0.4l-1-0.8l-0.3-0.4l-0.2-0.9l-0.1-1l0-2.3l0.1-0.8l0.7-1l0.4-0.3
		l-0.1-0.7l-0.5-0.2l-2.4,1.1l-0.5-0.4l-0.4-0.9l0.2-4.9l0.3-0.9l0.9-0.7l0-0.3l0-0.2l-0.2-0.2l-1.4-0.8l-0.3-0.4l-0.2-0.5l0.1-0.3
		l0.9-0.2l0.6-0.5l0.5-0.3l0.2-0.6l-0.2-0.4l-1.3-0.6l-0.5-0.8v-0.2l0.3-0.3l1.8-0.7l1,0.7l0.6,0.7l0.2,1l-1,1.4l-1.7,1l-0.5,0.5
		l0.3,0.3l1.5-0.8l1.4-0.4l1.1,0l0.9,1.6l0.1,2.3l-0.5,1.9l0.7-0.9l0.8-0.5l0.7,1.2l0.1,1l0.4,0.9l0.8,1.2l0.8,1.1l-0.9,1.1
		l-1.1,0.7l0.2,0.5l1.5,0.5l0.2,0.5l-0.2,0.7h0.2l1-1.1l0.9,0.2l1.1,2.4l-0.8,1.4l-1.2,0.6l-1,0.3l-1.4,0l-0.5,0.2l0.3,0.5l1.3,0
		l2-0.3l1.5-0.6l0.7,0l0.7,0.2l0.2,0.2l-0.7,0.4l0,0.1l0.3,0.4l0.6,1.3l0,0.3l-0.5,0.8l0.9,0.2l1.2-0.3l0.4,0.4l0.7,1.6l0.5,1.6
		l-2,2.2l-1,0.5l-1.5,1.2l-0.4,0.9l-0.9,1.2l0.6,0l1.6-1.9l0.8-0.4l0.6,0.1l0.2,0.3l-0.1,0.5l0.5-0.1l2.1-1.1l0.9-0.2l1.2-0.1
		l0.1,0.4l-0.7,2.6l-1.2,2l-2.2,1.2l-0.8,0.7l-1,1.2l0.4,0.2l2.1-1.5l1.5-0.6l2.1-0.5l0.9,0.1l1.6,3.1l0.9,0.3l0.8-0.2l1.4,0.9
		l0.5,0.8l-0.1,0.6l-0.5,0.4l-0.2,0.6l0.6,1.7l-0.3,1l-1,0.8l-0.7,0.4l-0.8,0.1l-0.8,0.7l-0.3,0.1l-1.1-0.2l0.4,0.5l0.5,0.2l0.8,0.1
		l1-0.2l1,0l1.5,0.5l0.6,0.7l0,0.2l-0.3,0.4l-0.5,1.2l-0.3,0.4l0.3,0.3l0.8,0.5l0.6,0.2l0.7-0.2l0.8,0.2l2.6,2.8l-0.1,1.5l-0.4,1.1
		l0.2,1.3l0,1.5l-1.4,0.4l-4.8-0.7l-2.7-1.1l-0.1-0.3l0.8-0.7l-0.7,0l-0.8,0.3l-0.3,0.3l0.9,1.2l2.5,1l1.1,1.2l1.2,0.1l0.4,0.2
		l0.7,0.7l-0.2,0.2l-1.2,0.1l-1,0.8l0.6,0.5l2.2,0.4l1.6,0.1l0.8,0.5l-0.7,0.5l-1.9,0.6l0,0.9l1.4,0.4l1.2-0.2l0.5,0.1l0.4,2.2
		l0.2,0.5l-1.3,0.4l0,0.4l0.9,0.3l1.5,0.3l0.5,0.4l0.1,0.7l0.3,0.3l0.8,0.1l0.9-0.8l0.5-0.7l0.8,0.3l0.1,0.9l1,1l0.3,0.2l0.3,1.4
		l0.8-1.2l0.6,0.3l0.6,0.1l-0.2,1.2l-0.4,0.9l0.5,0.6l0.4,0.9l1,1.2l-0.3,0.6l-1.2,1.2l-0.7,1.9l-0.2,0.7l-0.6,1.1l-0.9,1.1l0.5-0.1
		l1.9-2l1.2-0.7l2.5-0.4l0.6-0.6l0.9-0.2l0.6,0.6l0.1,1.1l0.8,0.4l0.8-0.4l0.7,0.3L731,408l-2.3,2.9l-0.7,1.2l-0.2,0.8l0.8-1.1
		l2.9-2.6l0.3-0.4l0.6-1.1l0.6-0.7l1.5,0.3l0.8,0.5l0.4,1.5l0.6,1.6l1,1.8l2.5,0.9l0.9,0.1l1.6-0.6l0.2-0.8l1.2-0.2l0.9,0.1l0.3,1.6
		l0.9,0.8l0.9,0.7l0.9,0.4l1.3,0.2l0.7,0.8v0.3l-0.7,0.8l-0.7,1.2l-1.2,0.8l-1.7,0l-2.3,0.5l-0.1,0.5l-0.5,0.5l-1.2,0.5l-0.7,0.4
		l-1.1,1.9l-0.7,0.8l-0.8,0.2l-1.1-0.1l-0.7,0.2l-0.5,0.3l-0.3,0.5L735,426l-1.5,0.5l-2.7,1.4l-1.4,0l-0.9-0.2l-0.7,0.1l-0.5,0.4
		l-1.3,0.7l-0.4,0.4l-0.2,0.5l-0.2,1l-0.2,0.4l-0.2,0.2l-1.1-0.2l-1.2-0.7l0.2,0.7l1.9,1.2l0.5,0.7l-0.5,0.6l-1.2,0.9l-0.1,0.5
		l0.5,0.2l-0.2,0.4l-0.7,0.4l0.1,0.2l0.1,0.2l1.6-0.6l1.5-1.3l0.9-1.3l0.5-0.4l1.9-0.5l1.1-0.6l1.6-1l1.7-1.5l1.9-2l2.4-1.6l2.9-1.1
		l2.1-0.6l1.4,0l0.1-0.2l-1.2-0.3l-1-0.1l-1.3,0.3l-0.4-0.6l0-0.3l0.4-0.4l1.1-0.4l5.2,0.6l1.8,0.4l2,3.6l0.5,1.2l0.1,0.8l-0.2,0.5
		l-0.8,0.6l-2.2,1.2l-0.3,0.3l0,0.2l1,0.2l0.3,0.3l0.5,1.4l1-0.9l1.9-2.2l1.5-1l1.3-0.3l1.5-0.1l0.5,0l0.2,0.7l0.8,1.4l0.8,0.4
		l1.4,0.2l1.3,1.8l0.5,1.2l0.5,0.7l0,0.5l0.1,0.4l0.3,0.6l0.2,0.5l-0.1,1.2l-0.8,2l0.6,1.8l-0.2,0.8l-0.1,1.3l0.5,0.9l0.1,0.5
		l-0.4,0.3l-2.9,0.7l-1.1,0l-0.3,0.4l0.9,0.1l1.6,0l1.9,0.4l0.8,0.5l0.4,0.7l-0.1,0.5l-0.5,0.4l-1.1-0.1l-1-0.4l0.1,0.3l1.5,0.9
		l0.5,0.4l0.8,0.6l0.2,0.8l-0.2,0.8l-2.9,3l-2.4,1.9l-2.4,1.7l-3.8,3.2l-0.4,0.2L752.4,463.2L752.4,463.2z M710.8,368.8l0.8,0.5
		l0.2,1.8l-1.4-0.1l-1.6-1.2l-0.3-0.9l0-0.2l0.2-0.2l0.4,0.2l0.4-0.3l0.4-0.1L710.8,368.8z M717.5,393.6l0.1,0.4l-1.4-0.3l-0.5-0.2
		l0-0.3l0.1-0.4l0.3-0.5l0.6-0.4l0.3,0.2l0.7,0.5l0.1,0.3L717.5,393.6z M768,456.7l-0.4,0l-0.1-0.2l0.2-0.6l0.5-0.6l0.7-0.2
		l-0.2,0.9L768,456.7z M767.1,461.8l-0.7,1.4L766,464l-0.4,0.2l-0.9,0.2l-1.9,0.2l-0.8,0.2l-0.1,0.9l0.1,0.5l0.3,0.4l0.3,0.1
		l0.8-0.2l0.3,0l0.2,0.2l0.2,0.4l0.1,0.5l0,0.6L764,469l-0.6,1.8l-0.8,1l-1,0.8l-0.2,0.3l-0.1,0.4l-0.1,1.2l-0.5,0.9l-1.7,2.4
		l-0.6,0.5v0.4l-0.3,1.1l-0.5,0.9l-1.4,2.1l-0.3,0.7l-0.2,0.6l0,0.8l-0.1,0.4l-0.3,0.7l-0.4,0.6l-0.1,0.3l0.2,0.6l0.2,0.2l0,0.5
		l-0.1,0.8l0.6-0.5l1.3-1.9l1-1.1l0.7-0.4l0.5-0.5l0.5-1.1l0.7-1.1l0.6-0.3l0.3,0.2l0.2,0.5l0,0.7l-0.3,0.8l0,0.2l0.8-0.6l1.3-0.5
		l0.5,0.1l1,0.7l0.8-0.1l1.3-0.4l0.2,0.2l-0.2,0.6L766,485l-1.2,0.9l-2.9,1.7l-0.9,1.2l0.2,0l0.6-0.5l0.7-0.3l0.7,0l0.3,0.2
		l-0.1,0.3l-0.1,0.9l-1.8,1.8l0.4-0.1l2-0.8l1.2,1.1l1.7-0.4l1-0.4l0,0.2l0.2,0.5l0,0.8l0.1,0.1l0.5-0.3l0.1-0.3l0-1.4l0.2-0.1
		l0.3,0.2l0.2,0.4l0.1,1l-0.2,1l-0.3,0.9l-0.8,1.3l0.1,0.6l-0.2,0.6l0.2,0l0.7-0.6l0-0.2l-0.1-0.6l0.1-0.3l0.6-0.6l1-0.7l0.3-0.1
		l0.1,0.2l0,0.4l0.3-0.1l0.7-0.7l0.6-0.4l0.5-0.1l0.6-0.4l0.6-0.8l0.6-0.6l0.7-0.5l0.3,0l-0.1,0.8l0.1,0.9l0,0.8l0.1,0.2l0.5-0.9
		l0.3-0.3l0.3-0.1l0.4,0.1l2.8-0.3l0.8,0.2l1,0.6l1.2,0.9l0.5,0.8l0.1,1l-0.1,0.7l-0.9,0.9l-0.8,0.6l-0.5,0.6l-0.1,0.6l-0.2,0.3
		l-0.5,0.5l-2.3,1.4l0.5,0l1.3-0.3l0.9-0.1l0,0.2l-0.3,0.4l-0.7,0.4l-0.1,0.2l0,0.2l0.7,0.3l0.9-0.2l0.8,0.2l-0.1,0.3l-0.6,1.1
		l-0.2,0.7l-0.8,0.6l-1.6,0.9l-0.4,0.3l0.1,0.1l1.5-0.7l0.8-0.2h0.5l0.5-0.6l0.8-0.2l0.8,0.4l1.3-1.1l0.5-0.1l0.8,0.1l0.5-0.2
		l0.8-0.7l0.6-0.4l0.1,0l0.1,0.3l0.1,0.8l-0.2,0.8l-0.2,0.5l-0.7,1.1l-0.4,0.4l-0.4,0.1l-0.7-0.1l-0.3,0.2l-0.6,0.8l-1.1,0.8
		l-0.7,0.3l0.4,0.4l0.2,0.9l-0.2,0.3l-1.2,0.3l0,0.2l-0.4,0.2l-1,0.3l0.7,0.1l1.3-0.2l0.1,0.2l-0.2,0.6l-0.3,0.6l-1.5,1.6l0,0.2
		l0.2,0.8l0.3,0.6l0.4,0.4l0.8,0l0.6-0.2l0.9-1.1l2-3.4l1.8-0.9l1.5-1.1l0.3,0.2l0.2,0.2l0,0.2l-0.7,0.9l-0.4,0.7l-1,2.2l-0.4,1
		l-0.2,1.1l0,1.9l0.1,0.3l0.3,0.4l0.6-0.4l1-0.9l0.6-0.9l0.5-1.4l0.3-0.6l0.3,0l0.3,0.3l0.1,0.7l0.3,0.9l0.2,1l-0.1,1.1l-0.1,0.6
		l-2,4.2l0.2,0.8l0,0.5l-0.1,0.5l-0.7,2l-0.6,1.3l-0.3,0.5l-0.4,0.3l-0.5,0.1l-0.4-0.2l-0.4-0.5l-0.3-0.2l-0.3,0l-0.5,0.1l-1.4,1
		l-0.3,0.1l-0.2-0.1l-0.2-0.5l0.2-2.7l0.1-0.9l-0.3-0.7l0.3-1.2l0-0.4l-0.2-0.2l-0.3,0.1l-0.5,0.6l-0.7,1.1l-0.8,0.9l-1.3,1.3
		l-0.6,0.3l-0.2-0.1l-0.3-0.2l-0.4-0.6v-0.5l0.2-0.7l0.6-1.6l1.1-2.3l0.9-1.7l0.2-0.7l-0.2-0.3l-0.2-0.6l-0.3-1.8l-0.4-1.5l-0.5-0.7
		l-1.3-0.7l-0.2,0.2l-0.1,1l-1.5,2.9l-0.3,1.2l-0.2,0.5l-0.3,0.3l-0.7,0.4l0.2-0.7l0.7-1.5l-0.1-0.1l-0.9,1.2l-0.7,0.7l-0.8,0.2
		l-0.5,0l-0.5,0.2l-2.1,2.8l-0.1,0.9l-0.4,0.8l-1,1.4l-0.5,0.5l-0.8,0.1l-0.7-0.2l-0.5,0l-1.1,0.4l-1.2,0.2l-0.5-0.1l-0.3-0.2
		l-0.6-0.5l-0.1-0.4l0-0.2l0.3-0.6l0.7-0.7l0.6-0.3l1.5-0.4l1.1-0.5l0.8-0.8l0.4-0.5l1.5-2.5l1.9-0.9l1-0.7l0.7-0.9l0.1-0.3l-1,0.5
		l-0.5,0.1l-0.8-0.2l-0.3-0.3l-1.1,0.1l-1.5-0.2l-0.2,0.2l-0.2,1.2l-0.2,0.7l-0.2,0.2l-0.3,0.1l-0.7,0.1l-1.8-0.4l-0.3-0.2l-0.5-0.2
		l-2,0.4l-0.4,0l0.4-0.3l1.9-0.9l0.2-2.6l-0.1-0.4l-0.5,0.4l-0.9,0.4l-0.6-0.1l-0.3-0.2l-0.3,0.2l-0.6,1.4l-0.4,0.2l-0.6,0.1
		l-1.2,0.5l-2.4,0.3l-0.5,0.4l-1.6-0.1l-4.7-0.8l-1.7,0.1l-2-0.5l-0.4-0.2l-2.8,0.1l-0.8-0.1l0.1-0.6l-0.1-0.2l-0.8,0.6l-0.7,0.4
		l-0.9,0.3l-2.9,0.6l-1.6,0.1l-0.9-0.4l-0.4-0.4l-0.5-1.4l-0.4-1.7v-0.3l0.2-0.6l0.6-0.8l2.8-2.2l2.2-2.2l1-1.2l0.9-0.4l1.5-1l0-0.1
		l-1.5,0.1l-1-0.3l-1-0.1l-2,0.2h-2l0-0.5l0.9-0.9l2-1.6l0.2,0l-0.6,0.8l-0.2,0.6l0.3,0.4l0.3,0.2l1.1,0.1l0.3-0.3l0.4-1.7l0.9-2
		l0.5-1.4l0.8-1.1l0.4-0.2l0.4,0.2l1.2,0.3l1.2,1l0.4,0.1l0.1-0.1l-0.5-0.3l-0.4-0.5l-0.2-0.4l0.5-1.4l0.5-0.4l0.1-0.3l-1,0
		l-0.8-0.4l-0.2-0.6l0-1.1l0.3-0.7l0.7-0.9l0.8-0.6l0.5,0.2l0.9,0.8l0.6-0.2l-0.1-0.3l-0.9-1.3L745,488l0-0.4l1.9-4.5l0.9-2.4
		l1.3-3.7l0.3-0.6l0.7-1.1l0.3-0.3h0.8l0.5-0.1l-0.8-0.5l-0.3-0.3l0-0.4l0.2-0.4l0.3-0.3l1-0.6l0.7-1l0.4-1.2l-0.1-0.4l-0.2-0.4
		l0-0.2l0.5-0.2l1.4-1.4l0.2-0.3l0.5-1.9l0.6-0.8l0.6-0.4l0.9-0.5l2.8-1.3l1.6-1.2l1.1,0.1l0.3,0.8l1.6,0.5l0.3-0.6l-0.4-0.7
		l0.3-0.3l1.3-0.2l0.2,0.1l0.4,0.4L767.1,461.8z M766.4,473.5l-0.3,0.2l-0.3,0l-0.3-0.2l0-0.3l0.3-0.6l0.7-0.3l0.5,0.1l0,0.3
		l-0.3,0.5L766.4,473.5z M779.3,487.1l0.7,0.9l0.3,0.2l-2.3,1l-0.3,0.1l-0.2-0.1l0-0.9l0.1-0.7l0.2-0.1l0.5,0.4l0.5-0.9L779.3,487.1
		z M775.2,489.3l-1.4,0.8l-0.3,0.3l-0.4,0.2l-0.3-0.2l-0.4-0.8l0.1-0.3l0.4,0l0.2,0.1l0.1,0.3l0.2,0.1h0.3l1-0.8l0.5-0.1l0.2,0.2
		L775.2,489.3z M778.1,518.2l-0.4,0.5l-0.5,0l0-0.4l0.5-0.8l0.3-0.6l0-0.3l0.1-0.3l0.4-0.3l0.4-0.5l-0.2,1L778.1,518.2z"/>
	<path id="CA-NS" fill="#CCCCCC" stroke="#FFFFFF" stroke-width="0.5" d="M716.5,537.7l0.3,0.1l1.2-0.6l0.6,0l0,0.4l-1,0.5l-0.5,0.4
		l0.6,0.3l0,0.2l-0.7,0.6l-0.4,0.6l0.3,0.6l1.2-0.6h0.5l0.6,0.1l0.6-0.2l0.3-0.3l2-2.2l0.1-0.3l-2.2,0.5l-0.2-0.3l1.4-1.3l-0.1-0.7
		l0.7-1.1l0.7-0.7l0.5-0.4l0.7-0.3l0.5,0.5l0.2,1l1.2-0.1l1.2,0.2l0.9,0.4l0.1,0.2l0,0.4l-0.3,0.7l-0.5,0.5l1,0.7l-0.1,0.3l-1.6,0.8
		l-0.9,0.8l-0.8,1l-1.6,1.1l-2.6,0.8h-0.8l-1-0.2l-1,0.1l-0.9,0.3l-0.9,0l-0.5,0.2l-0.4,0l-0.4-0.3l-0.8-0.9l-0.4-0.6l-0.4-2.9
		l0.1-1.5l0.6-1.4l1-0.9l0.5-0.8l2.3-4.5l0.5-1l0.5-0.9l1-0.9l1.3-1.5l0.4-0.3l0.7-0.1l0.7,0.1l-0.2,0.5l0,0.5l0.8,2l0,0.4l-0.5,1.6
		l-0.9,2.6l-0.2,1.4l0.1,0.4l-0.4,0.7l-0.4,0.6l-1.5,1l-0.8,0.2l-0.7,0.4L716.5,537.7z M687.7,539.1l0.4-0.2l0.5-0.7l0.5-0.8l1-0.2
		l0.2-0.4l1.4,0.7l1.5,1.3l1.2-0.2l0.5,0l1.4,0.8l0.4,0.4l0.2,0.4l0.7-0.1l1-0.3l1.8,0.1l1.9,0.5l-0.2,0.7l-0.3,0.5l1.5-0.2l0.9,0.5
		l0.3-0.2l0.2-0.3l1.8-0.8l2.3-1.8l0.3,0.2l0.1,0.7l0.3,1.1l0.9,0.8l1.1,0.2l1.5-0.6l0.6,0.5l0.7,0.9l0.7,1.2l0,0.4l-0.8,0.4
		l-0.8,0.6l3.2,0.2l0.3,0.2l0.3,0.5l-0.3,0.5l-0.3,0.2l-0.6-0.3l-1.1,0.3l-0.9,0.6l-1,0.4l-0.6,0l-0.7,0.3l-0.6,0.5l-0.7,0.1
		l-2.1,1.1l-2.1,0.7l-2.2,1.2l-2.3,0.7l-2.4,0.9l-0.5,0.1l-0.6,0l-1.3,0.9l-0.7-0.1l-0.7,0.2l-0.8-0.2l-0.5-0.3l0.4,0.9l0.1,0.8
		l-0.2,0.4l-0.4,0.4l-1.4-0.1l-0.5-0.3l-0.6-0.4l-0.3-0.7l-0.7-0.5l-0.4,0.7v0.5l-0.5,0.7l-0.6-1.2l-1.1,0.5l-0.5,1.3l0.2,0.4l0.3,1
		l-0.5,0.5l-0.4-0.1l-0.8,1.5l-1,0.5l-1,1.5l-1.2,1.1l-0.3,0.8l-2,1.7l-0.8-0.1l-0.6,0.1l-0.8,0.7l-0.1,1.5l-0.4-0.2l-0.4,0.1
		l-0.2,0.5l-0.3,0.1l-0.7-0.4l-0.9,0.2l-0.7-0.3l-0.9-2.1l-0.5-0.8l-0.8-0.2l-0.2,0.5l-0.3,0.4l-0.8-0.9l-0.6-3.3v-0.8l0.8-2.8
		l2.1-2.5l-0.7-0.1l-1.8,1.8l0.2-0.4l0.3-0.4l0.6-0.7l0.9-0.7l1.2-0.4l0.9-0.1l0.6-0.4l0.9-0.7l0.2-0.3l-0.8,0.4l-1.3,0.4l0.3-0.5
		l0.3-0.3l6.8-4.6l1.4-0.8l2.7-1l0.4-0.6l-0.4-0.4l1,0.4l-0.1,0.5l-0.2,0.4l-0.1,0.7l0.1,0.6l1.1,0.3l0.9,1.2L689,548l0.8-0.9
		l3.1-1.2l2.6-0.1l0.8-0.6l-2.2-0.4l-2.6,0.2l-1.6-0.4l-2.2,0.3l-2.4-0.3l-0.7,0.3l-0.6,0.8l-0.8-0.3l-0.4-0.1l-0.4-0.3l0.8-1.3
		l2.4-1.9l1.5-1.7l0.4-0.3L687.7,539.1z M717.8,543.6l-0.4,0.1l-0.1-0.2l-0.6-0.5l0-0.3l0.5-0.2l1,0.1l-0.4,0.7L717.8,543.6z
		 M670.2,558.7l-0.5,0.4l0.1-0.4l0.5-1.1l0.4-0.2L670.2,558.7z M728.3,563.1l-1.2,0.4l-1,0l-0.7-0.4l0-0.2l1.6,0.2l0.6-0.1l1.2-0.7
		L728.3,563.1z"/>
	<path id="CA-NT" fill="#CCCCCC" stroke="#FFFFFF" stroke-width="0.5" d="M182.4,123.2l0,8.4v5.2v5.1v5.1v5v5v4.9l2.3,1.9l2.3,1.9
		l2.3,1.8l2.3,1.8l2.3,1.8l2.3,1.8l2.3,1.8l2.3,1.8l2.3,1.8l2.3,1.8l2.3,1.8l2.3,1.8l2.3,1.8l2.3,1.8l2.3,1.8l2.3,1.8l2.3,1.8
		l2.3,1.8l2.3,1.8l2.3,1.8l2.3,1.8l2.3,1.7l2.3,1.7l2.3,1.7l2.3,1.7l2.3,1.7l2.3,1.7l2.3,1.7l2.3,1.7l2.3,1.7l2.3,1.7l2.3,1.7l4.1,0
		l4.1,0l4.1,0l4.1,0l2.6,3.2l2.6,3.2l2.6,3.2l2.6,3.1l2.7,1.9l2.2,0.7l3.9,0.7l3.9,0.7l3.9,0.7l3.9,0.7l3.9,0.7l3.9,0.7l3.9,0.7
		l3.9,0.7l3.9,0.7l3.9,0.7l3.9,0.7l3.9,0.7l3.9,0.7l3.9,0.7l3.9,0.7l3.9,0.7l0.1,3l-0.2,4.7v4.9v4.8v4.8v4.7v4.7v4.7v4.6v4.6v4.6
		v4.5v4.5v4.5v4.4v4.4v4.3v4.3h-4.5h-4.5h-4.5h-4.5h-4.5H323h-4.5H314h-4.5H305h-4.5h-4.5h-4.5h-4.5h-4.5h-4.5h-5.6H267h-5.6h-5.6
		h-5.6h-5.6H239h-5.6h-5.6h-5.6h-5.6H211h-5.6h-5.6h-5.6h-5.6h-4.3H180h-4.3h-4.3h-4.3h-4.3h-4.3h-4.3l-0.2-0.3l-0.3-0.3l-1,0
		l-0.1-0.1l0-0.2l0.2-0.7l-0.1-0.5l-0.9-1.8l-0.7-1.7l-0.2-0.6l-0.2-1.8l-0.2-0.4l-1.4-0.4l-0.6-1.3l-1.2-1.7l-0.1-0.4v-0.3l0.9-1.6
		l0-0.6l-0.7-2.4l-0.3-0.1l-1.7,0l-0.3,0.2l-0.2,0.4l-0.2,1.2l-2.4,0.3l-0.7,0.3l-0.8,0.6l-0.5,0l-2.9-0.9l-1.4-0.9h-0.3l-0.3,0.1
		l-0.2,0.3l-0.4,1l-0.6-0.1l-0.3-0.2l-0.1-0.6l-0.4,0l-0.6,0.2l-0.1,0.2v0.6l-0.2,0.3l-0.4,0.2l-0.5,0.1l-1.5-0.4l-1.3,0.7l-0.9-0.2
		l-0.6,0.2l-0.2-0.1l-0.3-0.5l0-0.7l-0.2-0.5l-0.1-0.5l0.1-1.2l-0.3-1.9l-0.2-0.2l-0.8,0.2l-0.3-0.4l0-0.2l0.1-0.2l0.5-0.6l0.1-1.3
		l-0.1-0.7l-0.5-2.5l-0.4-0.6l-0.4-1.1l-0.6-0.6l-0.6-0.3l-1.5,0l-1.3-0.4l-0.4-0.4l-0.5-0.7l-0.8-0.6l-1.7-1.7l-0.2-1.3l-0.2-0.6
		l-0.4-0.5l-1-0.5l-0.2-0.3l-0.2-0.8l-1-1.2l-0.3-0.8l-1.4-1.6l-0.5-0.1l-0.6,0.2l-0.9,0.8l-0.3,0.1l-0.2-0.2l-0.3-0.7l-0.2-0.2
		l-0.9-0.2l-1.1,0.1l-0.7-0.2l-0.4-0.3l-0.1-0.3l0.1-0.3l0.2-0.3l0.1-0.3l-0.1-0.3l-0.4-1.1l0-0.5l0.5-1l-0.1-0.3l-0.4-0.4l0-0.3
		l0.1-0.3l0.8-0.6l0.1-0.4l-0.2-0.5l-2.1-1.3l-0.4-0.4l0-0.4l-0.3-1.1l-0.2-0.3l-0.7-0.5l-0.2-0.3l-0.1-0.5l-0.1-0.4l-0.5-1.1
		l-0.1-0.7l0.1-0.6v-0.7l0.9-2.1l0.1-0.4l-0.2-0.2l-0.9,0l-0.8-0.4l-0.4-1.3l-0.3-0.6l-0.7-0.6l-0.7-0.9l-0.7-0.3l-0.1-0.3L98,264
		l1.4-1.1l0.4-0.6l0.5-1.6l-0.1-0.7l-0.3-0.7l-0.5-0.6l-0.3-0.6l-0.8-0.4l-0.2-0.3l-0.1-0.6l-0.1-0.3l-0.3,0l-0.9,0.4l-0.4-0.2
		l-0.2-0.4l0-0.3l0.3-0.3l1-0.5l0.2-0.2l0-0.4l-0.2-0.3l-1.3-0.3l-0.7-0.6l-1.3-1.4l-1.3-0.6l-0.9-0.9l-0.3-0.8l-0.5-0.4l-0.2-0.7
		l-0.5-0.9l-0.1-0.3l0.2-0.6v-0.5l-0.2-0.5l-0.5-0.8l-0.3-0.3l-0.1-0.5l0-0.5L89,242l-1.4-1l-0.8-0.2l-0.4,0.2l-0.4,0.7l-0.6,0.5
		l-0.7,0.3h-1.6l-0.3-0.2l-0.1-0.4l0.1-0.4l0.5-1.3l0.1-0.5l-0.1-0.4l-0.2-0.2l-1.3-0.7l-1.4-2.2l-0.5-0.4l-1.9-1.3l-0.7-0.3
		l-1.4-0.1l-0.3-0.3l-0.1-0.3l0-0.4l0.2-0.3l0.7-0.9l0.1-0.6v-1l0.1-0.3l0.9-1.1l0.2-0.4l0-0.4l-0.3-0.4l-1.2-0.4l-0.2-0.3l0-1.3
		l-0.3-0.3l-0.3,0.1l-0.9,0.3l-0.4-0.1l-0.2-0.2l-0.1-0.4l0.1-0.5l1.5-1.2l0.3-0.4l0.2-0.9l1.8-2.2l0.7-2l0.7-1.3l0-0.7l-0.9-1.9
		l-0.7-1.1l-1-1.2l-0.4-0.3L76,211l0.1-0.6l1.8-1.5l0-0.5l-0.2-0.3l-1,0.1l-0.8-0.8l-0.3-0.1l-0.9,0.7l-0.5,0.6l-0.5,1l-0.7,0.3
		l-0.4-0.1l-0.2-0.4l0.2-0.9l0.2-0.5l0-0.3l-0.2-0.2l-0.9,0l-1.7,0.5l-1.6,1.1l-0.8,0l-0.8-0.2l-0.3-0.3l0-0.8l-0.2-0.9l-0.3-0.5
		l0-0.5l0.2-0.3l0.6-0.8l0.2-0.6l0-0.7l0-0.9l-0.1-0.8l-0.3-0.2l-0.3-0.1l-1-0.1l-0.3,0l-0.1-0.5l0.1-0.5l0.3-1.5l0.2-0.5l0.3-0.1
		l0.3,0l0.2-0.2l0-0.4l-0.1-0.8l0.1-0.6l0.1-0.7l-0.2-0.5l-0.7-1l-0.3-0.4l0-0.4l0-0.3l-0.2-0.6l-0.1-0.5l0.1-0.4l0.1-0.8l-0.1-0.8
		l-0.5-1l-0.7-0.9l-1-0.9l-0.2-0.7l0-0.7H62h-2.6h-2.6h-2.6h-2.6h-2.6h-2.6H44l-0.4-0.2l-0.2-0.5l-0.3-1.2l0-1.1l0-0.7l0-0.4l0.6-1
		l0.4-1.4l0-0.4l-0.2-1.2l-0.1-0.5l-0.2-0.4l-0.2-0.7v-0.6l0.1-1.5l-0.3-1.5l-0.2-0.5l-0.3-0.4l-1.2-1.2l-0.3-0.9l-0.1-1V161v-7
		v-7.1l0-6.8l2.9,0.3l2.3,1.2l4.5,3.4l0.9,0.3l0.2-0.2l-1.6-3.3l-0.2-0.3l-1.8-1.2l-2.1-0.6l-0.2-0.2l-0.4-1.2l0.1-0.5l0.5-0.2
		l1.6,0l0.9-0.2l0.1-0.5l-0.7-0.1l-0.8-0.5l-1-0.8l-0.5-0.8l2-5l0.7,0.5l1-1.2l1.8,0.7l0.3-0.4l0.2-2.6l0.3-0.6l0.5-0.5l2.6-0.5
		l3.2,0.5l0.3-0.2l-0.3-1.7l0-0.7l0.2-1.6l0.2-0.8l0.4-0.4l1.5,0.3l0.5,0.8l0.5,1.3l0.5,0.8l1.6,0.8l0.2,0.5l-0.6,2l-0.6,1l-1.3,2.7
		l-0.1,0.7l2-1.2l2.3-1.7l2-0.9l1.6-0.2l1.2-0.5l0.7-0.9l0.5-1l1-3.1l0.7-0.5l2.8,0.2l0.7-0.1l0.4-0.3l-0.1-0.4l-0.6-0.5l-0.8-0.1
		l0-0.2l0.3-0.5l0.4-0.3l1.4-0.4l0.9,1.1l0.6,0.1l2.1-1.2l3.2-3.3l1.3-0.9l1.1-0.2l0.9,0.6l0.7-0.2l0.9-1.9l0.4-1l0.6-0.9l2.3-2
		l1.5-0.4l0.9,0.4l1.1,0.8l0.9,0.3l1.2-0.2l0.9,0.1l0.4-0.4l1.5-2.3l0.5,0l0.5,0.7l0.8,1.7v0.8l-1,2l-7.3,5.7l-2.2,2.4l-1.1,0.9
		l-1.2,0.5l-2.2,0.4l-0.9,0.5l-1.5,0.4l-3.5,0.8l-0.7,0.4l-0.5,0.4l-1.2,2.9l-0.6,1l-1.2,1.4l-1.3,0.9l-1.8,0.3l-1.2,1.4l-1.3,2.6
		l-1.1,1.8l-1.2,1.5l-1.3,2l-0.3,1l0.4,1.4l0.2,0.5l1.4,0.7l0.5-0.2l-0.5-0.7l-1.1-1.1l-0.2-0.4l0.3-0.3l5.4,0.8l1.2-0.8l0.4-0.7
		l-0.1-0.4l-1.4-0.2l-0.3-0.7l-0.2-1.2l-0.1-1l0.1-0.7l0.3-0.9l1.6-1.5l1.7-0.7l1.3-0.9l0.7-0.8l1.9-1.4l0.8-1.2l0.4-0.9l0.1-0.5
		l-0.3-0.3l0.3-0.8l1.4-0.7l0.6-0.1l2,0.7l0.4,0.5l-0.2,1.4l0.3-0.1l0.8-1.7l0.4-0.6l0.4-0.1l0.4,0.2l0.4,0.6l0.2,1.7l0,2.8l0.1,1.1
		l0.5-1.9l0.3-0.9l1.9-4.1l1.3-2.3l1.5-2.2l2.1-1.7l4.9-2.8l2.8-0.8l1.4-0.7l0.7-0.6l0.4-0.7l0.8-0.8l0.1,0.1l-0.3,1.8l-0.2,0.5
		l-1.8,1.1l-0.2,0.8l0.2,1.3l0.3,0.8l0.4,0.4l0.7-0.3l1.1-1l1.3-1.5l2.9-3.9l0.2-0.7l0.7-3.2l1.6-1.4l3-1.6l0.7-1l-2.6-0.9l-0.5-0.6
		l-0.1-0.4l0.5-0.9l-1.2-0.9l-0.4-0.6l0-1.6l0.4-1.2l0.8-1.1l0.4-0.2l1.2,0.7l1,0.9l3.4,4l1.3,1.9l0.8,1.5l1.9,4.7l0.8,2.7l0.7,2.8
		l0.7,2l0.6,1.2l3.2,4.8l1.7,2l1.4,1.2l1.6,1l1.8,0.7l1.2,0.1l1.9-2l0-1.3l-0.9-2.2l-0.9-1.5l0.1-0.9l1.1-1.8l-0.1-0.6l0.2-1.9
		l0.8,0.4l0.3-0.1l0.4-0.7l0.6-1.3l0.7-1.1l0.9-0.9l0.2-0.6l-0.9-0.4h-0.5l-0.4-0.2l-0.2-0.4l0.3-0.4l1.9-1l0.4-1l0.6-0.6l0.8-0.3
		l0.5,0.3l0.5,0.8l0,1.3l-0.2,2.1l0,1.7l0.6,3.9l0.5,0.8l2,1.2l-0.1,1l-2.3,4.1l-0.5,1l-0.2,0.8l0.1,0.6l0.4,0.5l0.8,0.4l2,0.2
		l0.6-0.3l3.9-0.1l0.7-0.3l0.6-0.8l0.9-2l1-0.6l0.3-0.5l0.6-2.3l0.3-2.7l0.3-1.2l0.5-0.7l0.6-0.2l1.5,0.3l0.7-0.2l2.8,0.2l2.9-0.2
		l2.9,0.5l1.9,0.6l1.8,0.9l3.4,2.1l1.3,1.1L182.4,123.2z"/>
	<path id="CA-NU" fill="#CCCCCC" stroke="#FFFFFF" stroke-width="0.5" d="M488,84.8l0.4,0.6l2-0.8l1.7-0.9l2.7-2.1l1.6-0.7l4.9,0
		l0.8,0.4l-0.4,1.3l-0.2,0.4l0.2,0.5l0.5,0.7l1.1,0.8l0.4-0.7l0.3-1.8l0.7-7.4l0.3-2.2l0.1-2.1l0-2l-0.4-1.3l-1.3-0.8l-1.7,0.1
		l-0.9-0.2l-1.1-0.4l-0.8-0.6l-0.5-0.8l-1-2.6l-0.8-1.4l-2-2.6l-0.9-0.9l0.4-1l1.8-1.2l1.1-1.1l1.2-3.3l0.8-0.5l2.7,0.4l3.7,2.6
		l2.3,2.2l0.6,0.2l0-0.4l-0.6-1l-2.6-2.8l-1.2-2l-0.6-1.5l0.3-0.6l1.5-0.7l0.2-0.7l-2-0.9l-1,0l-0.8,0.6l-0.9,0l-1.7-1.1l-0.5-0.7
		l-1-2l-0.5-1.7l-0.5-1.1l-0.2-0.9l-0.1-2.7l0-1.6l0.2-1.3l0.4-1.1l1.1-2.1l0.6-0.6l1.1-0.3l2.4,1l6.6,3.7l-0.2-1.2l-7.4-5.1
		l-2.6-1.3l-0.6-1.8l3.9-7.1l3.6-1.7l1.8-2.1l2.9-0.1l2.8,1.3l0-0.4l-1.2-2.5l0.1-0.6l1.6-1.5l2.9-1.8l3.5-1.4l0.7-0.7l0.9-0.5
		l1.7-0.5l4.1-0.2l2.3,0.2l3.1,1.1l1.8,2l0.6,1.2l1,3.7l0.8,5.2l1.1,2.1l1.8,1.2l1.3,1.3l0.7,1.4l0.2,1.7l-0.3,2.1l0.2,2.1l0.8,2.2
		l0.6,1.2l1.4,1.4l0,0.7l-0.4,0.8l-0.9,1.2l-2.2,3.6l-2.9,3.9l-2.1,3.4l-0.1,1l4.3-5.3l1.3,0.2l0.1,0.7l-0.9,2.6l-1.1,2.3l-1.1,1.5
		l0.2,0.5l2,2.6l-0.4,0.4l-1-0.2l-0.4,0.2l-0.3,0.5l-0.2,0.7l0,1l0.2,1.3l0,0.9l-0.2,0.6l0.2,0.3l0.6-0.1l0.5-0.5l0.9-1.7l2.9-4.7
		l1.8-1.8l0.6-0.2l1.7,1.1l0.4-0.1l-1.8-3.6l-0.2-0.9l0.4-1.4l0.2-0.5l1-1l0.9-0.5l0.5,0.2l0.8,1.9l0.3,1.3l0.6,0.5l1.4-0.7l0.9-1.6
		l1.2,1l1.7,2.5l-0.2,2.5v2.5l0.1,1.8l2.1,3.3l1.5,1.4l0.3,0l0-0.5l-0.3-1.1l-0.8-1.1L558,56l-0.6-2l0.4-4.8l1.1-2.5l1,0.7l1.4,1.5
		l1.1,0.1l1.7-0.2l3.5,3l1.9,0.1l-0.2-1.2l-1.4-0.6l-2.1-1.6l-3.2-2l-1.5-2.2l-0.3-1l0-1.1l0.2-1l0.3-0.9l0.7-0.9l3.1-2.6l2.2-1.1
		l1.7-0.4l2.8,0l3.2,0.5l1.8,0.8l2,1.8l2.5,1.8l0.9,0.3l1.1,0l1.2-0.4l1.2,0.2l3.7,2.7l1,1.4l0.6,1.7l0.4,1.6l0.3,1.6l-0.1,1.3
		l-3.1,5.5l-1.3,0.9l-0.9,2l-1.3,3.9l-1.1,2.1l-0.1,0.4l0.2,0.1l0.7-0.9l1.2-2.7l0.8-2.3l1.5-1.9l2.5-2.3l2.2-1.1l1.9,0.1l1.6,0.3
		l1.3,0.6l0.8,0.5l0.2,0.4l0.5,1.7l0,1.2l-0.3,1.3l-0.6,1.5l-2.7,1.6l-1.5,1.3l-0.9,0.5l-2.8,0.5l0.1,0.5l2.1,0.7l2.3-0.2l-0.1,0.8
		l-1.1,2.2l-0.3,1.9l0.3,1.5l-0.1,1.2l-0.8,2.6l-0.9,2.3l0.3,0.3l2.1-3.3l0.6-3.7l0.9-3.3l1-1.8l0.8-0.7l2.4-0.3l1.3-1.9l1.1-0.6
		l0.5,0l1,0.7l-0.1,0.8l-1.4,3.4l-3,5.5l1.2-0.6l0.8-1.3l1.1-1.3l1.2-1.9l0.8,1.8l1.3,1.3l0.8,3l1.2,1.4l0.7,1.1l-0.1-1.9l-1.1-3.8
		l0.3-1.5l0.8-0.8l2.5-3.2l1.8,1.1l1.1,1l0.5-0.2l1.4,0.1l2.2,0.5l2.2,0.9l2.1,1.3l1.6,1.5l1.1,1.7l0.7,1.2l0.2,0.7l0.4,1.7
		l-0.3,1.1l-1.6,2.6l-0.9,1.2l-0.9,0.5l-2.4-0.5l-0.7,0.3l-0.8,0.8l-2.5,3.5l-1.4,1.5l-1.3,1l-0.3,0.5l2.9,0l0.8-1l0.7-1.9l1.3-2
		l2.4-0.9l3.3,2l1.7-0.1l1.3-2l1.4-1.3l0.6-0.3l0.3,0.2l1.1,1.4l0.3,1.3l0,2.9l-0.1,0.9l-1,2.2l-2.3,3.2l-1.5,1.2l-1.7,0.6l-1.8,1.1
		l-0.7,0.9l-0.6,1.2l-0.6,0.8l-0.8,0.7l1.1,1l0.4,0l0.4-0.6l1.1-2.4l0.8-1l0.5-0.2l0.5,0.1l0.5,0.5l0.4,0.8l0,2l-1.3,7.9l0.2,0
		l0.8-2.1l2.4-8.3l0.6-1.7l1.2-1.7l2.6-2.6l2-1.3l2.3-1.1l1.2-0.4l1.4,0.3l0.9,1.3l1.2,0.2l1.5-0.3l1,0.2l1.1,0.5l0.9,1l1.6,1.1
		l3.5,2.1l0.4,0.4l0.4,0.8l0.4,1.1l0,1.1l-0.5,1.1l-0.6,0.7l-0.7,0.2l-0.7,0.6l-1.3,1.6l-0.4,0.3l-2.1,0.7l-2,0.3l-1.2,0.6l-2.4,1.7
		l-3.2,3.1l0,0.7l1.3,0.4l1-0.5l1.5-2.2l1.4-0.8l2.1-0.7l2.9-0.6l1.3,0.1l0.2,0.1l0.2,0.5l0.1,0.9l-0.5,1.2l-0.6,0.6l-1.5,2.7l1,0.7
		l1.4,0.3l0.8-0.7l0.7-1.6l0.8-0.9l0.9-0.2l0.8-0.4l0.7-0.7l0.2-0.4l-1-0.8l-0.1-0.5l0.4-1.3l0.7-1.4l0.7-0.9l0.5-0.1l1.8,0.9
		l1.2,1.6l3.2,4.9l0.4,0.9l1.1,3.6l0.2,1.6l-0.2,1.1l-0.3,0.7l-0.3,0.2l-0.7,0l-4.2-1.5l-1.9,0.2l-0.8,0.4L653,119l-0.5,0.8
		l-0.4,0.9l-0.7,0.5l-2.7,0l-1.5,0.5l-2.6,1.3l-0.9,0.7l-0.2,0.9l1.6-0.2l2.6-1.2l2.4-0.3l4.1,2.6l1.3,0.4l0.8-0.4l0.9-0.1l3.3,0.2
		l1.1,0.3l1.7,1l2.5,2.2l0.5,0.6l0.3,0.7l0.1,0.7l0,1.7l-0.2,0.6l-0.9,0.4l-3.6-0.5l-1.1-0.3l-1.4,0.5l-1.1-0.2l-1.4-0.7l-1.5-1.2
		l-2.3,1.2l-1.9-0.8l-1.9,0.7l-3.8,2.7l0.4,0.5l5.2-2.3l1,0.1l1.6,0.8l2.6,1.7l0.7,0.7l0,2.6l-0.4,1.8l-0.8,2l-1.2-0.3l-2.8-1.2
		l-1.1-0.2l-0.8,0.2l-1.1,0.8l-0.5,0l-4.4-1.5l-1-0.1l-0.1,0.2l0.2,0.3l4,2.4l3,0.3l1.9,0.4l1.1,0.7l0.5,0.5l0,1.6l1,1.6l0.9,0.7
		l0.6,0l1-0.6l1-0.1l0.8,0.4l1,0.9l1.2,0.2l1.1,0.5l0.8,0.1l2.3-0.2l1,0.3l0.3,0.3l-0.4,0.5l-2.1,1.2l-0.3,1.2l1.2,1.5l0.6,1.2
		l0,0.9l-0.6,2l-0.2,0.8l0.2,0.1l1.5-1.6l0.2,0.2l0.2,2.2l0.2-0.1l0.5-1.8l-0.2-2.4l0.9-1l2.8-0.7l-0.5,3.8l-0.1,2l-1.2,3.3l-1,1
		l0,0.2l0.7,0.4l0.5,0l0.4-0.5l1.1-2.5l2.2-2.6l0.4-0.1l0,1l-0.3,1.8l1,0.8l1-0.8l0.5-0.7l1.2,0.1l0.5,0.3l0.2,0.8l-0.5,3.2l0.1,0.8
		l1.2,2.1l0.1-0.1l-0.2-1l-0.3-2.6l0.2-1.1l1-1.4l2.1-2.1l0.8-0.4l0.5,0.3l0.8,1l-0.2,0.6l-0.8,0.6l-0.6,1.1l-0.4,1.6l0.5,0.9
		l1.7,0.1l1.7-1.3l1,0.7l1.2,1.7l2.2,2.8l1.2-0.8l1.5,2.1l-2,1.7l0.6,3.5l-2.7-0.1l-1.5,0.3l-1-0.3l-1.1,0.1l1,0.8l1.9,0.3l0.2,1
		l1.5,0l1.1-0.2l2,0l0.1-1.2l1.3-0.7l0.8-0.8l0.6,0.5l1.8,0.5l2.5,2.3l-1.1,1.4l-0.3,1.3l-0.4,1.1l-0.2,1l-0.4,0.7l-3.5,3.9l0.6,0
		l1.5-1l2.9-1.4l1.6-0.6l1.2,0.4l0.6,0l0.5-0.5l1,0.6l2,0.5l2.3-3.2l1.4,0.6l1.3,2l2.8,3.5l1.5,2l0.5,0.9l-0.1,0.9l-1.3,1l-0.7,0.2
		l-1.8-1.8l-1.6-0.9l-1,0.1l-1,0.7l0.3,0.4l3.9,2.8l0.7,2l0,0.9l-2.6,1.3l-0.8,0.1l-1.8-0.6l-1.1-1.2l-0.9-0.4l-1.2-0.1l-0.4,0.2
		l1.3,2l-0.1,0.6l-0.7,0.4l-0.3,1l2.6,1.8l2,1.8l0.3,0.7l-1.3,0.5l-1,0.1l-2-0.3l-1.1-0.4l-0.3,0.4l1.1,0.9l0.4,0.6l0.3,0.9l0.2,0.8
		l0.1,0.8l-0.9,0.6l-1.1,1.8l-0.4,1.8l-1,0.2l-0.4-0.3l-1.4,0.5l-1.8-0.8l-0.6-0.8l-2-3.4l0,0.4l0.5,1.7l-0.1,1l-2.1,0.8l0,0.3
		l1.3,0.5l1.5,0.4l-0.2,1.6l0,6.7l-0.3,2.4l-0.8,2.1l-1.1,2l-1.2-1.3l-0.5-1.3l-0.4-0.7l-0.6-0.5l-0.7-0.3l-0.8,0l-0.8,1.2l-0.9-1
		l-0.8-1.2l0.3-3.2l0.4-1.6l-0.1,0l-0.5,0.8l-1.2,2.4l-0.8,2.9l-1-1.1l-0.9-1.4l-0.7-1.4l-1.2-1.6l-1.2-1.9l-0.6-2.2l-0.3-0.5
		l-0.7-1.9l-0.3-0.5l-0.2-0.2L678,213l0.2-1.3l0.9-1.5l0.8-1.1l1.4-1.1l1.6-0.6l0.7-1.4l0.9-2.5l1-1.8l1.1-1l-0.5-0.2l-1.3,0.9
		l-1,1.2l-1.1,2.1l-1,1.3l-2.7,1.5l-1,0.3l-1.2,0.2l-2.5-0.2l-0.6-0.5l0.3-1.5l1.8-2.6l-0.3-0.2l-0.6,0.9l-0.9,0.6l-0.8,0.3
		l-1.1-0.1l-1.3-1.6l-0.6-0.5l-1.3-0.6l-0.5-0.6l-2.1-4l-0.4-1.1l-0.2-1.1l-0.7-0.9l-1.1-0.7l-0.2,0.1l0.4,0.9l0,0.8l-1,0.5l-1-0.2
		l-1-0.8l-0.1,1.1l1.1,2l0,2.5l-0.3,0.3l-0.8,0.1l-0.5-0.3l-1.7-1.8l-1.6-1.3l-1.1-0.7l-0.1,0.5l0.7,2.2l0.9,2.2l1.4,1.8l2.2,2.2
		l1,1.2l-0.8,1.7l-0.7,0.6l-0.4,0.2h-1.4l-2.5-1l-1.2-1.1l-1.7-2.6l-2.8-2.7l-0.6,0l-2,1.1l0.3,0.2l1.3,0.1l0.9,0.3l2.2,2.1l0.2,0.9
		l-0.6,1l0,1.2l0.6,1.5l0.6,1l1.3,0.7l0.7,0.1l0.2,0.4l-0.8,3.3l-0.1,0.9l0.2,0.4l0.3,0l1.7-1.3l0.7-0.3l0.6-0.1l0.7,0.4l0.8,0.8
		l0.5,0.8l0.1,0.9l0.2,0.6l1.7,0.9l-0.2,0.4l-1.7,1.4l-0.1,0.2l0.3,0.1l1.1,0.8l1,1.3l0.6,1.5l0.1,0.7l0,0.7l0.1,0.4l0.5,0.1
		l0.2-0.3l0.2,0l0.3,0.4l0.3,1.2l0.6,3.4l0.3,1l0.2,0l0.1-3.4l0.3-0.6l1.1,0.6l1.5,1.3l1.1,1.2l0.1,0.5l-0.8,1.1l0.2,0.5l0.6,0.7
		l0.6-0.3l0.4-1.2l0.7-1.2l0.8-0.8l1.5,0.7l1.3,1.7l0.2,0.6l0.8,0.8l0.7-0.4l1.4,2l-0.7,0.9l-1.5,1.3l-0.2,0.4l0.3-0.1h2.8l0.8,0.5
		l0.2,1l-1.2,2.8l-1.1-0.2l-1.5-0.1l-0.8,0.2l0.1,0.4l2.1,1.3l0.6,1l0.8,1.1l0.4,0.9l0,0.4l-0.3,0.6l0.2,0.2l1.4,0.4l0.9-0.3
		l1.1-0.1l1,0.1l0.1,0.4l-0.2,1l-1,0.9l0.3,0.2l1.2-0.3l0.5,0.4l0.7,2.2l0.8,1.7l-0.6,0.4l-0.7,0.2l0.1,2.2l0.5,2.2v2.1l-0.2,1.9
		l-0.7,0.4l-0.7,0l-0.3-0.5l-1.7-5.6l-0.4-1l-0.5-0.9l-1.8-2.4l0.1,0.4l0.5,1.1l0.4,1.7l0.5,3.3l0.2,2.1l-0.1,0.8l-0.4,0.2l-0.1,0.4
		l0.2,0.6l1.4,2.2l0.7,1.3l0.5,1.3l0.4,0.9l0.4,0.5l-0.1,0.4l-0.6,0.3l-1,0.1l-0.5-0.2l-1.9-1.2l-0.3,0.4l1,4.5l0,1.1l-0.5,0.4
		l-0.6-0.5l-0.8-1.3l-1.2-1.4l-1.6-1.6l-1.5-1.2l-0.3,0l-0.2,0.4l-0.2,0.1l-0.3-0.2l-0.5-0.9l-0.5-0.6l-2.2-2.1l-0.2,0l0.2,0.6
		l0.2,1.4l-0.2,0.3l-0.6-0.1l-1.1-0.6l-0.7-1.4l-0.9-2.4l-0.5-0.9l0,0.6l0.3,2.3l0,0.8l-0.6,0.1l-0.2-0.2l-0.2-0.6l-0.2-1l-0.5-0.8
		l-0.8-0.5l-0.5-0.5l-0.2-1l-0.2-0.2l-1.5,0.2l-0.7-0.7l-2.1-2.8l-1.9-3.1l-1.2-1.6l-0.4-0.4l0.6,2l0.7,2.9l0.2,1.3l-0.3,0.1
		l-0.7-0.6l-3.6-3.8l-2.2-1.8l-1.2-0.3l-2-0.2l-0.5,1l1.1,2.2l1.1,1.6l1,1.1l1.6,2.1l1.5,2.7l0.6,0.8l2,1.2l1.1,0.3l1.1,0.1l0.1,0.4
		l-0.5,0.8l-0.1,0.5l2.4,1.2l0.9,0.7l0.9,1.1l0.5,0.3l2.1,2.8l0.5,0.4l1.9,0.9l0.6,0.6l1,1.8l0.6,0.9l0.9,2.2l0.7,1l1.7,1.1l0.7,0.3
		l0.3,0.4l-0.2,1l-0.2,0.4l-1,0.7l0.2,0.9l0.5,1.7l0,1l-0.6,0.4l-1.2,0.5l-0.6,0l-0.9-0.4l-1.1-0.7l-2.3-1.7l-3.4-1.2l-1.3-0.6
		l-0.4-0.6l-0.6-0.3l-8.4-1.6l-1.4-0.4l-0.9-0.5l-0.8-0.7l-3.2-1.7l-0.4-0.4l-2.2-2.9l-1.6-3.4l-0.5-0.5l-1.8-0.5l-1.5,0.3l-1,0.4
		l-1.5-0.1l-1-0.5l-2-1.5l-2.1-0.8l-1.8-1.3l-0.9-0.5l0.1-0.3l1.3-2l-0.4,0l-2.3,1.5l-0.8-0.5l-1.4-1.2l-1-1.2l-2.1-3.3l-1.2-1.2
		l0.2-0.3l1.4-0.1l1.1,0.1l0.7-0.3l1.4-1.4l0.6-0.9l0.1-0.5l-1.2-0.1l-0.2-0.2l-0.2-0.6l-0.5-0.7l-0.9-0.9l-1-0.4l-3.5,0.3l-0.6-0.4
		l0-0.6l0.7-1.7l0.4-0.7l0.1-0.4l-0.1-0.1l-0.5,0l-2,1.5l-0.4-0.1l-0.8-1.6l-0.5-1.8l-0.3-0.6l-0.5-0.2l-1.7-1.8l-2.3-3.4l-0.9-1.1
		l-1-1l-0.7-0.4l0.1-0.5l1.5-2.8l0.1-0.5l-1.3,0.2l-1.9-0.6l-0.9,0.7l-0.6,0l-0.7-0.4l-0.4,0.2l-0.4,2.3l-0.3,0.6l-0.4,0.3l-0.3,0
		L600,241l0-0.5l-0.3-2.9l-0.7-0.4l-1.9-0.1l-0.4-0.2l-0.5-0.5l-0.4-1l-0.3-1.5l-0.4-0.8l-0.4-0.1l-0.3,0.1l-0.3,0.4l-0.6,0.2
		l-0.9,0.1l0,0.6l0.9,1l0.8,1.5l0.8,1.9l-0.5,1.3l-1.8,0.6l-1.5,0.2l-1.3-0.3l-1-0.4l-1.4-1l-2,0.3l-0.5,2.8l-0.4,0.2l-1.9-0.1
		l-0.8,0.2l-2.6,1.5l-0.8,0.2l-0.6-0.2l-0.6,0.4l-0.9,0.9l-1.2,0.1l-1.5-0.7l-1.3-0.3l-1,0.1l-1.1-0.4l-1.1-0.9l-0.9-0.4l-1.2,0.1
		l-0.3-0.1l-1.7-2l-0.5-0.8l-1.2-2.5l-0.2-1l0-1l0.1-0.8l0.4-1.2l0.4-2.8l0.4-0.9l0.5-0.8l1.1-1.1l3.8-1.9l0.8-0.8l0-0.5l-0.9-2.3
		l0-0.6l0.3-0.3l0.6-1.4l0.3-0.4l0.7-0.2l1.4,0.7l1.2,0.3l1.6,0.1l2.7,1l3.7,1.8l2.1,1.2l1.6,1.8l1.2,1.8l0.2,0.9l-0.5,1.4l-0.3,0.4
		l0,0.5l0.3,0.5l0.9,0.8l0.2-0.3l-0.1-1l0.2-0.8l0.5-0.7l0-0.8l-0.3-1l-0.4-0.9l-0.5-0.8l-2.4-2.6l-0.2-0.9l0.8-0.4l3.5,0.9l1.3-0.2
		l0.5-1l0.5-0.7l0.6-0.4l1.2-0.2l1.7,0.5l0.8,0.1l0.7-0.2l0.9-0.6l1.4-1.9l0.9-0.4l1.3-0.3l1,0l1.8,0.8l1.1,0l-0.1-1.2l-0.7-2.4
		l-0.9-2.5l-0.7-0.8l-1.9-1.6l-2.2-3l-1.1-1.9l-0.3-0.9l0.2-0.6l0.4-0.9l4-3.3l3.1-3.3l1.4-1.7l0.7-1.2l0.7-0.9l0.7-0.5l1.5-0.7
		l0.4-0.8l0.1-1.4l0.2-1.2l1.4-3.4l1.1-0.9l1.6-0.6l1.1-0.8l1.3-2.8l-0.1-0.7l-0.6-0.5l-0.5-0.8l-2-7.4l-1.3-3.6l-1.6-3.2l-1.4-3.9
		l-2.4-3.8l0-1l0.4-1.2l-0.2-0.3l-2.5,1.7l-0.6,0.1l-0.9-0.7l-0.6-0.9l-0.5-1.6l0-0.8l0.3-0.8l0.5-2l0-1l-0.2-1l-0.2-0.7l-0.3-0.4
		l-0.8-0.2l-1.2-0.1l-0.4,0.3l1.4,3l-0.2,0.7l-1.7,0.3l-0.8-0.1l-0.7-0.4l-0.7-0.6l-2-3.1l-0.4-1.2l0.1-0.9l-0.2-0.5l-0.4,0.3
		l-0.6,0l-0.8-0.3l-0.2-0.4l1.4-1.7l0.1-0.5l-0.7-0.6l-1-0.1l-0.3-0.5l0.3-0.5l1.3-1l0.5-0.6l-0.8-0.5l-0.4,0l-0.9,1l-1.3,2.1
		l-1,0.8l-1.3-1l-0.8-0.3l-0.6,0.2l-0.9,1.6l-2,1.2l-3.5,2.8l-1.5,0.9l-1.6-0.2l-0.3-0.6l0-1l0.1-0.8l0.2-0.6l0.1-0.8l-0.1-3.2
		l0.3-0.9l0.6-0.5l1-0.5l2.6,0.7l1.2-0.1l0.8-0.7l0.8-1.1l0.8-1.4l0.2-1.3l-0.9-2.2l-0.3-0.5l-2.3-1.7l-1.3-0.6l-1.1-0.3l-0.8-0.5
		l-0.5-0.7l-0.5-1.2l0-0.8l0.1-1.1l0.5-0.8l2.1-0.9l0-0.2l-1.7-0.6l-0.8,0.1l-0.7,0.7l-0.9,1.7l-0.5,0.5l-1.5-1l-0.9-0.2l-0.6-0.5
		l-0.3-0.5l0.2-0.5l0.8-0.5l1.3-1.5l0.1-0.8l-0.9-1.3l-0.5-0.3l-1.9-0.5l-2.3,0.5l-0.9-0.2l-0.4-1.4l-0.2-1.7l-0.1-2l-0.4-3.4
		l-0.5-1.8l-0.6-0.2l-2.8,0.7l-0.7,0l-0.5-0.3l-1.9-2.3l-0.8-0.8l-0.4-0.2l-1.4-2.5l-0.5-0.5l-0.6-1.2l-0.7-2l-0.8-0.6l-0.8,0.8
		l-0.8,1.1l-0.8,1.4l-0.5,1.2l-0.1,1l0.5,0.8l3,1.2l0.8,0.8l0.6,1.4l0.5,1.7l0.3,2l0,1.5l-0.4,1l-0.6,0.9l-1.8,1.4l-1.9,0.8
		l-1.9,0.2l-0.9-0.2l-4.9-2.6l-0.9,0l-1.1-0.4l-2.5-1.1l-1.4-0.1l-2.4-0.9L533,109l-0.8,0.4l1.1,1.2l1,0.6l0.8,0l1.2,1.1l1.5,2.2
		l0.9,1.3l0.7,1.5l0,0.5l-0.7,1l-5.8-5.5l-3.5,1.9l-1.6,0.7l-1.4,0.1l-1.7-0.8l-3.9-2.7l-1.5-0.9l-0.5-0.1l-3.4,1.2l-2.9,0l-5.9-1.1
		l-2.2-0.8l-0.6-0.8l-0.7-0.4h-1.3l-3.4-0.9l-3.1,2l-3.8-1.8l-1.1-1.1l-0.4-0.7l-1.1-3.1l-0.1-1.6l0.3-1.5l0.3-1l0.3-0.6l-2,1.7
		l-0.7,0.3l-0.9,0.1l-2.8-0.6l-0.4,0.3l0.1,0.6l0.7,0.9l0.1,0.5l-1.6,0.4l-2.4-0.4l-1,0.2l-0.5,0.2l-1.1,1.4l-0.4,0.3l-0.6-0.1
		l-2.5-3.1l-2-2l-2.3-0.8l-1.1-0.6l-0.6-0.8l-3.2-6.4l-0.4-1.4l-1-5.1l-0.3-1.1l-0.4-0.7l0.8-0.2l3,0.6l3,0l1.6,0.4l1.9,1.3l2.4,0.9
		l1.7,0.2l2.8-0.3l3.2-0.8l0.4-0.7l-2-1.1l-1.8-1.5l-1.7-2l-1-0.8l-1.7-0.5l-4.7-0.4l-4.4-1.3l-3-1.8l-2.5-2l-1-1.1l-0.4-0.8
		l-0.4-2.6l-0.4-4.5l-0.4-3l-0.4-1.5l0-1.4l0.8-2.9l2.4-3.2l0.1-0.5l-0.5-0.2l-1-0.8l-0.3-1.2l-0.1-1.9l0-1.6l0.1-1.3l0.4-1.7l1-3
		l1.5-3.7l1.6-3.5l0.3-1.1l0.1-3.1l0.2-2.3L464,25l0.3-1.2l1-2.3l1.2-2.2l1.9-1.9l0.2-0.7l0-1l0.1-0.7l0.2-0.5l4.8-6.1l2.2-2.5
		l1.9-1.6l2.2-1.2l6.3-2.4l3.2-0.7l4.1,0.2l7.5,1.3l0.9,1l0.2,0.5l0.3,1.3l-0.2,0.9l-2.1,2.9l-2.6,2.4l-1.7,2.1l-2.9,4.7l-0.8,1.6
		l-3.5,9.2l-0.8,1.5l-0.5,1.2l-0.3,3.3l0.1,1.2l0.5,1.9l1.9,4.1l0.5,1.9l0,1.7l-0.2,4.1l0,2.1l0.1,2l0.4,2.8l0.7,3.7l1.6,3.7
		l2.6,3.7l1.9,2.4l1.9,1.8l2.2,2.6l0.5,1.3l-1,1.4l-2.4,2.1l-3.2,0.9l-1.7,0.9l-2.1,1.8L489,84L488,84.8z M551.2,6.6l1.5,0.4
		l9.7-0.8l2,0.6l6.1,3.5l1.6,1.2l0.8,1.5l0.7,2.4l0.3,0.5l2.2,1.4l0.9,1.7l0.3,0.9l0.5,2l1,1.2L580,24l0.4,0.6l-0.2,2.5l0.5,1.2
		l1.1,1.4l0.4,1l-0.8,1.2l-2,0.7l-5.5-0.7l-7.4-1.6l-4.3,0.5l-2.2,0.7l-5.2,2.6l-1.7,0.4l-1.6,0l-2.9-2.1l-1-1.1l-0.3-0.9l-0.7-2.6
		l-0.6-3.1l-0.3-2.6l-0.3-2l-1-0.7l-2.9-0.8l-1-1.1l-0.4-0.9l-0.4-1.5l0-1.5l0.2-1.3l0.2-0.3l0.4,0l-0.8-1.6l-0.3-1.8l0-2.5l0.1-1.6
		l0.2-0.7l0.5-0.5l1.3-0.3l1.9,0.1l2.6,1.9l2.1,0.2L551.2,6.6z M414.7,326.6l-4.3,0h-4h-4h-4h-4h-4h-4h-4h-4h-4h-4h-4h-4h-4h-4h-4
		v-4.3v-4.3v-4.4v-4.4v-4.5v-4.5v-4.5v-4.6v-4.6v-4.6v-4.7v-4.7v-4.7V263v-4.8v-4.9l0.2-4.7l-0.1-3l-3.9-0.7l-3.9-0.7l-3.9-0.7
		l-3.9-0.7l-3.9-0.7l-3.9-0.7l-3.9-0.7l-3.9-0.7l-3.9-0.7l-3.9-0.7l-3.9-0.7l-3.9-0.7l-3.9-0.7l-3.9-0.7l-3.9-0.7l-3.9-0.7l-2.2-0.7
		l-2.7-1.9l-2.6-3.1l-2.6-3.2l-2.6-3.2l-2.6-3.2l-4.1,0l-4.1,0l-4.1,0l-4.1,0l-2.3-1.7l-2.3-1.7l-2.3-1.7l-2.3-1.7l-2.3-1.7
		l-2.3-1.7l-2.3-1.7l-2.3-1.7l-2.3-1.7l-2.3-1.7l-2.3-1.7l-2.3-1.8l-2.3-1.8l-2.3-1.8l-2.3-1.8l-2.3-1.8l-2.3-1.8l-2.3-1.8l-2.3-1.8
		l-2.3-1.8l-2.3-1.8l-2.3-1.8l-2.3-1.8l-2.3-1.8l-2.3-1.8l-2.3-1.8l-2.3-1.8l-2.3-1.8l-2.3-1.8l-2.3-1.8l-2.3-1.9l-2.3-1.9v-4.9v-5
		v-5v-5.1v-5.1v-5.2l0-8.4l3.5,3.7l1.4,1l2.6,1l8.8,2.2l1.1,0.6l2.3,2.2l1.6,1.3l1.9,1.2l2.4,1.1l4.6,1.6l0.8,0.5l0.9,0.2l0.9-0.2
		l4.3,0.9l1.1,0l0.8,0.2l1,0.7l1.5,0.2l-0.1-0.5l-1.7-2.5l0.1-0.4l0.7,0l2.1,0.4l0.5-0.7l0.7,0l1.6,0.3l1.7,0.8l1.8,1.2l2.2,1
		l3.4,2.6l1.9,2.1l1.8,2.6l1,1.8l0.2,1l0.4,0.5l0.6,0l0.2,0.4l-0.5,2.2l-0.3,0.6l-0.4,0.4l-1.6,0.5l-4.4-0.5l-0.8,1.8l-2.5,1.5
		l-0.4,0.7l-0.1,0.5l0.2,1.6l-0.3,0.5l-2,1.8l-0.1,0.5l1.3,0.7l1.4,1.2l1.1,0.3l1.4-0.2l1.7,0.4l2.1,1l1.5,0.5l0.8-0.1l1.1,0.2
		l1.4,0.5l1.9,0.2l4.2,0l1.3,0.4l1.8,0.2l3.4,0l0.6-0.1l1.1-0.8l0.7-0.3l1.2,0l3.5-0.6l1.2,0l1.1-0.5l1.4-0.9l0.9-0.2l0.3,0.6
		l0.6,0.2l0.9-0.1l1.7-1l3.9-2.9h1.4l1-0.9l0.2,0l0.3,0.4l1,2.1l0.3,0.3l0.6,0.2l0.6,1.1l0.7,1.6l0.5,0.5l3.6,0.1l1.3,0.5l0.4,0.5
		l0.4,1.3l0.2,2.5l0.2,0.9l0.5,1.3l0.4,0.4l0.3-0.4l0.9-3.4l0.3-0.5l0.6,0.2l0.2,0.2l0.9,2.5l1.3,1.9l3.2,3.4l0.5,1.2l0.2,0.9
		l-0.2,0.8l-0.5,0.7l-0.9,0.6l-1.2,0.4L293,184l-1-0.8l-0.3,0l0.4,0.7l2.1,2.8l0.5,1.1l0.5,0.7l0.5,0.4l0.4,0.6l0.4,0.8l1.8,2.2
		l0.5,1l2,3.3l1,1.3l0.7,0.7l0.3,0.1l-0.2-0.6L300,194l-1.3-2.8l-0.2-0.7l-0.1-1l0-3.4l0.2-0.5l0.9-0.4l1.1,1.5l0.4,0.2l0.3-0.1
		l0.1-0.4l0.6,0.4l1.2,1.1l0.4,0l-0.9-2.2l-0.6-1.1l-0.2-0.7l0.6-1.1l-0.3-0.6l-1.5-1.7l-0.8-1.7l-0.7-2.6l-0.1-1l0.1-1.1l-0.1-0.9
		l-0.9-1.8l-1-1.2l-0.8-1.4l-0.2-0.8l0.1-2l0.6-0.9l1.1-1.2l0.3-1.2l-0.5-1.3l-0.1-0.6l0.3,0.1l2.3-0.7l0.6,0.2l0.9-0.3l1.1-0.8
		l0.9-0.3l1.2,0l0.6-0.2l0.8-0.3l0.4-0.4l0.7-1.5l0.4-0.2l1.2,0.2l0.7,0.3l0.3-0.1l0-2.1l0.2-0.8l1.2-1.5l1.2-0.2l0.8-0.4l1-0.9
		l0.7-0.8l0.7-1.3l0.3-1.6l-0.2-0.5l-1.4-0.6l-0.9,0.3l-1.9,1.2l-2,1.5l-0.8,1.4l-0.2,1.8l-0.4,0.8l-1.5-0.7l-0.7,0l-0.8,0.3
		l-0.9,0.7l-0.9,1l-1.4,0.2l-1.8-0.7l-1.1-0.2l-1.1,1.1l0.1,0.8l0.5,1.2l-0.5,0.7l-2.6,0.3l-0.7-0.2l-1.4,0.5l-0.5-0.1l-0.4-0.6
		l-2.9-2.4l-0.3-0.5l0.7-2l2.6-5.4l0.3-0.3l4.9-0.9l3-1l5.4-3l1-0.2l3.5-2l1.4-0.5l1.3,0.3l2,1l1,0.9l0.7,1.1l0.6,1.6l0.7,3.5
		l0.2,2.9l0.5,1.1l1.6,2l0.8,0.8l0.5,0.2l0.5-0.5l0.3-0.1l0.2,0.2l0.2,1.3l0.3,0.1l1-0.2l1,0.5l0.1,0.4l-0.2,1.6l0.3,0.7l1.3,1.4
		l1.2,0.5l1.4,0.2l2.6-0.2l2.2-0.7l1.6-1.1l1.4,1.2l2.7,3l1.6,2.1l1.3,1l2.7,1.2l0.6,0.6l1,0.1l1.4-0.5l1.6,0.2l1.8,0.9l1.2,0.4
		l4.1-1.6l0.6-0.1l1.5-0.8l1-0.2l1.2,0l0.9-0.2l0.6-0.5l2.2,0l3.9,0.6l2.7,0.7l1.6,0.9l1.3,0.5l1,0.1l1-0.2l1-0.4l1-0.8l2.2-0.4
		l0.4-0.2l0-0.5l-0.5-0.7l-1.2-1.3l-0.9-1.3l-0.2-0.8l0-1l0.3-0.6l0.5-0.2l0.8,0.6l1.1,1.4l3.2,5.2l0.8,0.7l0.4,0.7l2.9,1.9l1.4,0.3
		l1.6-1.2l0.7-0.7l0.4-0.7l0-0.7l0.2-1l-0.2-0.6l-0.4-0.8l-1.2-1.1l-1.9-1.4l-1.7-0.4l-1.6,0.6l-1.8,1.2l-0.7-0.5l-2.2-3.4l-0.6-1.3
		v-0.3l1,0.4l0-0.4l-0.6-1.6l-0.4-0.5l-1.3-2.6l-0.2-0.8l0.8-0.2l0.4-0.3l0.5,0l2.2,1.6l1.1-0.7l2.7-1l-1-1.5l-0.2-1.5l0.1-0.3
		l0.9-0.2l1.7,1.2l0.8,0.2l0.6-0.5l0.6,0l0.7,0.4l0.6,0.6l1.2,1.8l0.6,1.1l0.6,1.7l0.2,0.2l3.1,0.1l1.8-1.5l0,0.5l-0.4,1.1l-2.2,4.4
		l0,0.5l1.2-0.2l0.5-0.3l0.3-0.5l0.3-1.2l0.2-0.4l3.3-2.1l0.9-0.3l-0.6,2.2l-1.2,7.8l-0.2,2.7l-0.3,0.9l-1.3,3l0,1l1.4,2.5l0.2,0.7
		l0.1,2l0.2,0.4l1.2,0l1.2-0.6l1.4-0.4l0.2,0.4l-0.8,2.4l0,0.2l1.4-0.6l0.6-0.1l0.2,0.1l1,1.2l0.1,0.9l0,1.4l-0.1,1l-0.3,0.5
		l-0.4,0.2l-0.5,0.2l-0.5-0.1l-1.4,0.2l-0.8-0.3l-0.8-0.8l-0.6-0.2l-0.7,0.6l-1.1-0.1l-1.2-1.7l-0.5,0.1l-0.2,0.3l0,0.4l0.5,1.1
		l4.2,5.7l0.6,1.2l0.1,1.7l0.1,0l0.4-1.7l-0.3-0.8l-2.2-3.3l-0.3-1.2l0.1-0.3l0.6-0.3l3.1,0.8l1.2-0.2l0.8-0.6l0.4-0.7l0.3-4
		l0.6-2.5L410,177l-0.8-3.7l-0.7-2.2L407,169l-0.1-0.8l1.7-6.8l0.3-0.6l0.4-0.2l1.3-0.1l1-0.6l1.5,0.8l0.8,0.2l1-0.7l2.3-2.9
		l0.9-0.9l1.2-1.7l1.4-2.5l1.5-1.8l2.5-1.7l1.5-1.4l0.3-0.5l-1.4-0.1l-0.3-0.2l-0.3-1.3l0.1-2.4l0-1.3l-0.2-1.2l-0.3-1.1l-0.5-1
		l-0.4-0.6l-0.4-0.2l-0.2,0.1l-0.1,0.4l-0.4,2.3l-0.5,1.7l-0.7,0.9l-1.4,0.6l-2.3,0.4l-1-0.8l-0.1-0.7l0.3-2.7l0.8-1.2l2.1-2.3
		l1.4-1.8l0-0.3l-1.3,0l-0.3-0.4l-0.3-2.3l0.1-0.8l0.2-1l0.9-0.7l2.7-0.9l2.1-1l0.1,0.4l-1.7,3.1l-0.2,0.7l0.6,0.7l1.6-1.8l1-1.5
		l0.2-0.5l-1-0.2l0-0.6l0.2-1.1l-0.1-0.8l-1-1l-1.3,0.5l-1.1,1l-0.9,0.3l-1.3,0l-1-0.2l-0.6-0.5l-0.7-1.1l-0.9-1.7l-1.1-1.7
		l-0.4-0.2l-0.3,0.2l-0.7,1.6l-0.3,0.2l-4.2-2.3l-1.8-1.3l-0.9-1l-1.1-0.6l-1.3-0.2l-1-0.5l-0.8-0.7l-0.6-1.1l-0.5-1.4l-0.9-1.8
		l-2-3.5l-0.5-2.2l-0.1-0.9l0.1-2.2l1.9-3.8l0.4-1.1l0.6-0.8l0.9-0.5l0.7-0.2l1.5,0.5l-0.9-1.2l-0.1-0.6l0.9-2.1l-0.2-0.1L402,95
		l-0.6-0.1l-0.9-1l-1.7-3.5l0-2.2l0.5-3.1l0.2-1.9l-0.5-1.6l0.2-0.5l0.5-0.5l0.2-0.5l-0.2-1.8l0.4-0.9l1.2-1.8l1.2-1.6l0.7-0.5
		l0.6,0.1l0.6,0.5l0.7,0.9l1.1,0.9l0.8,0.3l0.6-0.5l1-3.5l0.4-0.9l-0.4-0.4l-2,0l-0.9-0.3l-0.5-0.3l-0.4-1.3l0.3-0.7l2-2.5l0.9-2.6
		l2.8-3.7l2.8-1.7l1.4-0.6l1.1-0.1l0.5,0.2l0.6,1.8l0.1,1.9l1.5,2.4l1.2,0.2l0.8-0.4l2.5,0.1l0.6,0.7l0,0.8l-0.3,1.2l0.2,1l1.7,2
		l1.5,1.4l1.4,1.7l2,3.5l0.4,1l0.3,1.1l0.5,3.9l0.1,1.5l-0.2,4.2l-0.2,0.8l-0.5,1l0.2,0.4l1.6,1.1l1.3,2.2l0.7,0.7l1.6,1.2l0.3,0.4
		l0.4,0.7l0.9,3.1l1.5,2.8l0.1,0.6l-0.3,1.3l0.2,0.4l0.6,0.5l0.5-0.2l0.5-1l0.5-0.3l0.5,0.4l0.4,0.7l0.5,1.8l0.8,1.5l-0.1,0.4
		l-0.4,0.4l-2.2,0.4l-1.2-0.3l-1.1-0.7l-0.8-0.7l-0.7-1.1l-0.3,0.1l-0.4,0.9l-0.8,1.3l-0.5,1.2l0.6,0.5l2.9,0l0.6,0.3l0.7,0.9
		l-0.8,1.4l-1.9,2.4l-4.2,4.6l-1.2,1.2l0.3,0.3l0.5,0.1l1.4-0.2l1.3-0.6l1.6,0.3l0.7,0.5l-0.2,0.5l0.4,0.8l2.7,1.8l1.7-0.4l1.7-1.8
		l1.3-0.9l1.6,0.1l0.5,0.2l-0.2,0.4l-1.2,1l-1.1,1.1l-0.1,0.3l1.4-0.5l3,0.7l1.5,0.2l1.1-0.2l1,0.3l0.9,0.7l0.3,0.5l-0.9,0.3H452
		l-0.7,0.5l-0.6,0.9l-0.4,1.2l-0.2,1.4l-0.6,0.6l-1-0.2l-0.4-0.4l0.2-0.6l-0.3-0.1l-0.8,0.4l-0.6,0l-0.2,0.4l4.4,4.5l1.4,4l1,1.6
		l0.1,0.4l-0.6,1.1l0,0.8l0.3,2.4l-0.1,1.9l-0.4,3.3l0.4,1l0.9,0.9l0.6,1.2l0.4,0.4l0.3,0.9l0.3,0.6l0.4,0.2l0.3-0.3l0.2-0.8
		l0.4-0.8l1-1.4l1-2.3l0.2-0.8l-0.1-1.8l0.1-0.8l0.9-2.7l0.3-1.9l0.3-3l0.5-2.1l1-1.8l1.8-3.6l0.6-0.7l0.7-0.3l1.3,0.1l0.9,1.2
		l1.2,2.1l1.6,1.9l2.9,2.6l0.8,1l1.6,2.6l0.7,2.5l0.5,3.6l0.4,2.1l0.3,0.7l0.2,1.1l0,1.4l-0.1,1.1l-0.2,0.8l-0.4,0.5l-0.9,0.2
		l-1.1-0.2l-0.3-0.4l-0.6-1.7l-0.2-0.1l-1,1.2l-0.1,0.7l0.4,2.3l0,4.2l0.1,0.9l1.1,4.4l1.8,3.3l4.5,6.3l0.2,0.7l0.5,2.6l0.2,0.5
		l0.3,0.3l0.4,0.1l0.5-0.2l1.6-1.9l1.4-2l1-1.1l0.6-0.1l0.6-0.4l0.6-0.7l0.4-0.7l0.2-0.8l0.3-3.1l0.2-1.5l0.7-2.1l0.2-0.6l3.5-5.3
		l0.3-0.7l1.5-6.2l0.5-2.8l0.1-1.7l-0.2-1.5l0.1-1.3l0.4-1l0.4-0.7l0.7-0.7l0.4-1l0.2-0.1l0.6,0l0.8,0.7l0.6,0.1l3.6-0.8v-0.4
		l-2.1-1.3l0-0.7l0.2-0.9l0.7-1l0.8-0.3l0.2-0.7l0-0.8l0.3-1.3l-0.2-0.5l-2-1.8l-1.2,0.1l-0.3-0.2l-1-1.5l-0.4-2.2l0-0.9l0.1-1.5
		l0.1-0.4l-0.1-0.7l-0.2-0.9l0-0.8l0.2-0.7l-0.1-0.8l-0.5-1l-0.2-0.8l0.5-2.5l0-0.8l-0.5-1.1l-0.3-0.4l0.2-0.3l0.8-0.1l1,0.3
		l1.1,0.8l1.4,0l1.7-0.8l1.7-0.4l2.9,0.2l0.7,0.2l2.9,2.3l2.3,1.2l1-0.1l5,0.5l2.2-0.2l1.1,0.1l2.2,1.3l-0.1,1l-1,1.8l-1.2,0.4
		l-1.1,0.6l1,0.9l3,1.2l0.7,2l0.2,0.9l-0.3,0.8l0.2,0.4h0.7l1.8-0.7l2,0.5l2.9,1.5l0.3,0.3l0.5,1.2l-0.1,0.5l-2.5,2.9l-1.3,1.2
		l-1.7,1.2l-0.1,0.6l2.4,0.1l1.9,0.3l0.8,0.4l0.4,0.5l0.6,1.2l0.1,0.9l-0.1,1.2l-0.2,0.9l-2.2,2.5l-1,0.8l-1.7,0.9l-0.8,0.7
		l-0.8-0.1l-0.9-0.9l-0.9-0.2l-1.7,0.7l-0.9,0l-0.5,0.2l0,0.5l0.8,1.6l0.5,0.6l0.2,0.5l-0.3,0.8l0.1,0.2l0.3,0.3l1.5,3.4l0.3,0.3
		l0.3-0.1l0.7-1l0.4-0.4l0.2,0l0,0.5l-0.7,2.9l-0.1,0.8l0,0.7l0.3,1.5l0.8,1.6l1,1.4l1.4,1.9l1.9,2l0.7,1l1.1,2.3l0.2,0.9l-0.3,2.4
		l-0.8,3.9l-0.5,2.2l-0.2,0.5l-1.5,1.6l-0.8,0.4l-1.4,0l-0.5,0.3l-0.7,1.2l-1,2.2l-0.8,1.4l-0.6,0.6l-1,0.7l-1.6,2l-0.8,0.8
		l-2.8,0.8l-2.2,2.7l-0.9,0.9l-1,0.5l-1,0l-0.6-0.4l-0.3-1.6l-0.2-0.5l-0.8-1.1l-1.6-3.3l-0.7-1.1l-0.5-0.2l-0.9,0.2l-0.5-0.1l-1-1
		l-0.4-0.7l0-0.3l0.8-0.4l-0.3-0.5L507,187l-0.6-0.8l-0.1-0.3l-1.4-1l-1.4-0.3l-1.7,1.7l-0.7,1.1l0,0.4l0.8,0.4l0.4-0.2l0.7-1
		l0.4-0.3l1.1,0.2l0.9,0.7l0.3,0.6l0.1,0.4l2.4,3.3l0.9,0.7l0.4,0.8l0.3,1.3l0.5,1.4l1.2,2.4l1.2,2.9l0.2,1.2l-0.6,0.5l-0.3,0
		l-1-0.4l-2.5-1.3l-0.3,0l-0.7,0.7l-0.5,1.6l-0.2,0.2l-1.3-0.6l-2.5-1.4l-1.7-1.2l-0.9-1l-1-1.6l-1.2-2.2l-1.5-0.7l-1.7,0.8
		l-2.4,0.3l-5.1-0.2l-0.7,0.2l-0.3,0.3l0.4,1.2L487,198l-0.3,0.2l-0.1,0.3l0.5,1.3l0.9,0.9l2.5,1.2l1.7,1l1,0.8l0.3,0.7l0,0.8
		l-0.5,1.6l-0.3,0.6L487,215l-2.2,3.1l-1.1,1.9l-1,1.2l-0.9,0.6l-1.5,0.3l-2,0.1l-2.6-0.3l-1.4-1l-2.5-2.6l-1.7-1.5l-0.8-0.5
		l-0.6-1.5l-0.6-0.3l-1.2-0.2l-1.3-0.8l-3-2.7l-1.5-1.1l-1.4-0.6l-1.3-0.1l-0.5,0.2l0.9,1.3l-0.4,0.1l-1-0.3h-1l-1.8-1l-1.8,0.1
		l-1.3-0.2l-1.5-0.5l-1.6-0.3l-2.6,0l-1,0.1l-0.1,0.2l1.3,1.2l2.2,1.4l-0.3-1.2l0.1-0.3l0.7-0.4l3.5,0.8l3.9,1.6l1,0.2l1.1,0.5
		l1.2,1l1.7,1.9l3.2,4.4l1,1.1l1.4,1l7,1.5l2.4,0l4.8,0.4l2.5,0.8l0.7,0.6l0.2,1.9l-0.2,1l-1.4,2.9l-0.9,2.1l-5.4,8.9l-0.7,2
		l-0.3,1.2l-1,1.2l-2.5,1.9l-2.5,1.6l-1.5,0.3l-1.3-0.4l-0.9-0.5l-1.3-1.6l-0.1,0.2l0.9,2.5l-0.2,0.3l-0.7-0.3l-1.7-1.1l-0.5,0.2
		l-0.3,0.3l-0.5,0l-0.6-0.3l-1-1l-0.3-0.5l-0.2-1.4l-0.2-0.2l-2.1,0.8l-0.3,0.3l0.9,0.6l0.3,0.4l0.8,2.1l0,0.5l-0.6,0.3l-2-0.8
		l-0.2,0.1l1,2.1l0.4,1l0,0.5l-1.3,2.3l-0.8,1l-1.1,0.3l-0.7-0.2l-0.8-0.6l-0.6,0.1l-0.4,0.8l-0.6,0.5l-0.9,0.3l-1.2-0.1l-1.5-0.6
		l-3.9-2.2l-1.2-0.3l-2.2-0.3l-0.3-0.3l0-0.3l0.3-0.3l-0.1-0.2l-0.5-0.2l-0.5,0.2l-0.5,0.6l-0.9,0.2l-1.3-0.2l-1.9-0.8l-3.8-2.2
		l-4.1-1.9l-2.4-2.4l0.9,2.2l-0.1,0.7l-0.5,0.7l-0.1,0.6l0.9,1.5l1.3,0.6l1.3-0.1l0-0.2l-0.5-0.4l-0.5-0.6l-0.2-0.8l0.2-0.2l1.1,0.4
		l0.8,0.5l5.7,2.8l1.7,0.5l1.3,0.5l0.4,0.3l-0.4,0.7l-2.3,1.8l0,0.3l1.6-0.2l1.9-1.5l1.1-0.7l1-0.4l1.4,0.8l1.8,2l1.4,1.1l2,0.6
		l1.2,0.7l2,1.8l0.3,1l0.2,3.8l-0.1,0.9l-0.3,0.9l-0.5,0.9l-0.8,0.5l-1.2,0.1l-1,0.4l-2.1,2l-0.9,0.3l-3.8-0.6l-1.5-0.6l-0.7,0
		l-0.4,0.4l-0.4,0.2l-1.5,0.2l-0.2,0.4l0.1,0.6l0.3,0.8l0.4,0.4l0.6,0.5l0.8,0.4l1.7,0.4l0.2,1l-0.1,0.3l-0.6,0.7l-0.7-0.1l-1.1-0.8
		l-0.6,0l-0.5,0.4l-0.7,0.1l-0.9-0.2l-0.5,0.3l-0.1,0.8l-0.3,0.6l-1,1l-0.5,0.7l0,0.6l0.6,0.4l0.7,1l0.8,1.5l0.1,0.7l-0.5-0.2
		l-0.6-0.6l-0.8-1l-1.2-0.9l-2.6-1.2l-0.5,0l0.2,0.3l1.7,1.2l0.7,0.8l0.1,0.6l-1.4,1.2l0,0.4l0.4,0.4l0.1,0.3l-0.5,0.6L429,289
		l-1.6,0.1l-0.1,0.3l0.6,0.6l0.2,0.4l-0.5,0.5l-0.4,0.1l-1.9-0.2l0.5,1.3l0.3,0.5l0.6,0.7l1,0.6l0,0.2l-0.4,0.5l-0.6,0.6l-2.6,2
		l-1.8,2.3l-0.2,0.7l0.5,1.5v0.4l-0.5,0.7l-1.1-0.2l-0.2,0.3l0.2,0.7l0,1l-0.2,1.3l-0.8,2.1l-1.4,2.8l-1.1,2.6l-0.7,2.3l-0.5,1.1
		l-1,0.1l-0.7,0.7l0.5,0.4l0.3,0.4l0.2,0.7l-0.2,2.1l-0.6,3.5L414.7,326.6z M365,98.8l-0.1,0.2l-1.9-1l-0.7-0.6L362,97l-0.2-0.9
		l-0.1-1.3l0.4-0.7l0.9,0l0.9,0.5l1.4,1.5l-0.4,0.4l0,1l0.2,0.9L365,98.8z M485.1,109l1,0.2l1-0.3l0.7,0.2l0.4,0.8l0.3,0.8l0.1,0.8
		l-0.4,0.6l-1.6,0.5l-1.1-0.2l-1.2-0.7l-0.5,0.3l-1.3-0.5l-0.7-0.7l-0.5-1v-0.6l1.4-0.7l0.5-0.5L485.1,109z M390.8,121.2l0.3,0.3
		l0.5-0.3l0.4-0.8l0.2-0.2l0.4,0.2l1.2,1.5l1,1.6l1,1.1l1.6,1l3.5,3.2l1,2.2l1.1,3.4l1,2.5l0.9,1.8l0.9,1.4l1.5,1.5l1.3-1.1l0.6-0.3
		l0.5,0.5l0.5,1.2l-0.2,0.5l-0.6,0.7l-1,0.8l-1.3,0.1l-0.6,0.2l-1,1.2l-0.8,1.5l-1.2,0.5l-2.2,2.4l-1.2,0.9l-1.8,0.2l-3.7-1.9
		l-2.3,0.3l-1.9-0.4l-2.1-2l-1.6-1.1l-3.1-1.7l-0.2-0.2l-0.1-0.6l-0.1-0.9l-0.1-0.6l-0.2-0.3l-0.5,0l-0.5,0.6l-1,0.5l-1.5-0.1
		l-0.6-0.3l-0.5-0.5l-0.3-0.6l0-0.7l-0.1-0.6l-0.2-0.4l-0.5,0l-0.8,0.4l-0.3,0.5l0.2,0.6L376,141h-1.5l-0.6-0.3l-1.1-1l-0.5-1
		l-0.6-1.9l0.1-0.5l0.4-1.1l0.5-0.8l3.3-0.5l1.5-0.5l1.7-1.3l2-2.2l0.4-0.7l0-0.5l-0.1-0.5l-0.6-1.3l-0.2-0.9l0.2-0.4l0.8,0
		l-0.4-0.5l-0.4-0.7l-0.1-0.5l0-0.7l0.6-0.2l0.8,0.4l1.5,2.1l0.6,0.4l1,0.3l-1.1-1.4l-1.1-3l-0.1-1l0-0.6l0.3-1.6l0.3-0.7l0.3-0.4
		l1.1-0.9l1.7-0.7l0.9-0.1l0.9,0.5l0.8,1l1.7,1.7l0.3,0.7l0,0.3l-0.7,0.5l-0.1,0.4L390.8,121.2z M552.2,117.5l0.4,1.5l0.2,0.5
		l-0.3,0.7l-1.3,1.4l-3,0.6l-1.5-0.7l0.7,2l0.2,0.8l-0.2,0.3l-0.6-0.1l-1-0.6l-0.6-0.7l-0.2-0.8l-0.2-0.2l-0.3,0.4l-0.3-0.1
		l-0.6-1.2l-0.5-0.4l-3-0.7L540,120l0.2-0.5l0.5-0.8l0.7-0.3l1.7,0.3l0.1-0.2l0.1-1l0.1-0.4l1.2,0.1l0.7-0.2l0.4,0.5l0.4,1.2
		l0.6-0.2l0.8,0.2l0.9-0.4l1.4-1l1.1-0.4L552.2,117.5z M564.8,119.3l0.5,1.3l0.1,0.7l-0.6,0.8l-2.4,1.5l-1.5,1.3l-0.7,0.3l-1-0.3
		l-1.2,0.6l-0.5-0.1l0.5-1l1.9-3l1.6-0.3l0.5-0.6l0.4,0.2l0.2-0.5l0-0.8l0.5-0.6l0.5,0L564.8,119.3z M655.4,123.8l-0.2,0.2l-2.3-1.2
		l-0.2-0.9l1.2-1l0.9-0.6l0.7-0.1l0.7,0.2l0.7,1.1l-0.8,1L655.4,123.8z M408,123l1.2,1.7l0,0.8l-0.2,1.4l-0.3,1l-0.5,0.7l-0.7,0.4
		h-1l-0.4-0.3l0.3-1.1l0.2-0.3l0-0.9l-0.1-1.6l-0.2-1l-0.5-0.5l-0.4,0l-0.1,0.5l0.2,1l-0.1,1.3l-0.4,1.7l-0.3,0.8l-0.6-0.4l-0.3-0.6
		l0.1-1l-0.1-0.9l0.1-1l0.4-1.5l0.5-1l0.7-0.5l0.8,0l0.9,0.6L408,123z M357.3,127.5l-0.7,0.2l-0.1,0l0.1-0.7l0-0.3l-0.2-0.2l0.6-0.5
		l0.1-0.4l-0.2-0.3l-0.9-0.6l-0.2-0.6l0-0.5l0.3-0.4l0.6,0.1l1.3,0.8l0.6,1.2l0.3,0.9l-0.4,0.1l-0.3,0.3l-0.4,0.7L357.3,127.5z
		 M574,133.9l-1.1,0.3l-0.8-0.2l-0.5-0.6l-0.4-0.8l-0.5-2l0.2-1l0.1-1.7l0.1-0.6l0.2-0.3l1.2-0.6l0.7,0.1l1,0.7l2.2,0.2l0.5,0.6
		l0.1,0.4l0,0.5l-0.2,0.5l-1.1,1.5l-0.5,1.1l-0.4,1.3L574,133.9z M455.7,126.9l0.2,1.6l-0.8,2.1l-0.2,0.4l-0.3,0.1l-0.3-0.3
		l-0.9-1.7l-0.2-1l0.3-0.5l0.7-0.7l0.5-0.3l0.6,0.3l0.2-0.5L455.7,126.9z M554.2,141.4l-0.6,0.2l-0.7-0.5l-0.3-0.8l-0.1-0.8l0.1-0.4
		l0.3-0.4l0.4-0.9l0.6-1.4l0.9-1l1.9-0.9l0.3-0.3l0.9-2.5l0.3-0.4l1-0.3l0.1-0.3l-0.3-0.6v-0.6l0.3-0.7l0.5-0.5l1.2-0.5l1.1,0.1
		l0.3,0.2l0.2,0.4l0.3,1.2l0,0.3l-0.5,1l-1.4,1.6l-0.8,1.3l-0.2,0.4l-0.1,0.6l-0.3,0.7l-1,1.6l-0.7,1.6l-0.7,0.9l-1.8,0.8
		L554.2,141.4z M453,132l-0.7,0.3l-0.5-1l-0.4-0.2l-0.2-0.7l-0.8-0.1l0-1.1l0.2-0.5l0.7-0.4l0.6,0.2l0.5,1.1l0.3,0.9l0.2,1.1
		L453,132z M367.9,137.2l-0.2,1.5l-1.1-0.4l-0.5-0.5l-0.4-1.2l0-0.3l0.1-0.5l0.5-1.1l0.3-0.4l0.7,0.5l0.3,0.6l0.3,1L367.9,137.2z
		 M365.9,142.3l-0.3,0.8l-0.4,0.2l-0.7,0.9l-0.3,0.1l-0.4-0.6l-0.3-1l-0.1-0.2l-0.2,0l-0.5,0.6l-0.2,0l-0.2-0.4l-0.1-0.8l0-1.2
		l0.2-1.9l0-0.7l-0.1-0.5l0.1-0.5l0.3-0.4l0.4-0.2l1,0.2l0.8,0.8l0.4,1l0.7,0.8l0.2,0.5L365.9,142.3z M351.3,147.7l-0.4,0l-0.5-0.4
		l-2.9-1.5l-0.4-0.5l0.3-0.6l1-0.8l0.7-0.8l0.5-1.3l1.7,0.7l0.6,0.6l0.2,0.5l0.1,0.7l-0.1,1.8l-0.6,0.4L351.3,147.7z M593,153.5
		l-0.7,0.2l-1-1.5l-2.1-1.7l-0.8-1.2l0-0.6l0.1-1l0.2-1.2l0.7-1.3l0.8-0.2l1.1,0.3l0.8,0.9l0.9,2.5l0.6,1.2l0.2,0.9l-0.3,0.4l0,0.4
		l0.1,0.2l0,0.5l-0.2,0.7L593,153.5z M327.1,152.2l-0.5,0.1l-0.9-0.4l-1.4-0.9l-1-0.9l-0.7-1l-0.1-0.7l0.5-0.4l0.8-0.2l1.9,0.1
		l0.9,0.4l1.2,1.4l0.2,0.8l0,0.5l-0.1,0.5L327.1,152.2z M556.2,157.3l-0.7,0.3l-1-1.3l0-0.7l0.2-1.7l1.8-0.4l0.8,1l0.4,1
		L556.2,157.3z M585.9,154.2l4.7,2.1l0.5,0.8l0.2,0.7l0.1,0.8l0,1.6l-0.1,0.6l-0.5,1.5l0,0.5l0.4,5.1l0,2.8l-0.3,2.3l-0.7,1.8
		l-1,1.4l-0.8,0.8l-3.4,1.9l-2.4,0.5l-2.5,0.1l-3.2,0.5l-1.5-0.1l-0.8-0.2l-0.5-0.4l-0.6-1.2l-0.7-2.1l-0.6-2.3l-0.7-4.2l0-0.5
		l0.7-3.4l0.9-2.3l1.6-3.4l1.8-3.4l0.5-0.6l0.8-0.6l2.1-1l1.7,0.2l0.8-0.1l1-0.5l1-0.1L585.9,154.2z M488,168.2l-0.4,0l-0.6-0.4
		l-1.4-1.4l-0.3-0.6l-0.1-0.7v-0.8l0.1-0.9l0.4-1.7l-0.8-1.4l-0.2-0.8l0.1-0.4l0.5-1.1l0.1-0.7l0.5-0.9l1.2-1.8l1.2,0.4l1.1,1.5
		l0.3,1l-0.1,1.1l0.1,1.6l0.3,2l0.1,1.5l-0.1,0.9l-0.5,1.7l-0.4,0.8l-0.5,0.7L488,168.2z M284.2,162.2l-0.3,0.1l-1.2-1.4l0.3-1.2
		l1.1,1.2l0.2,0.8L284.2,162.2z M604.3,167.1l-4.4,0l-2.4-0.2l-1-0.4l-0.8-0.6l-0.9-1.8l-0.6-1.9l0-0.8l0.2-0.7l0.2-0.4l2.9-0.6
		l2.4,0.8l2.1,0.9l2.7,0.2l0.8,0.3l0.3,0.3l0.2,0.5l0.3,2.2l0,1.2l-0.1,0.9L604.3,167.1z M285.6,162.4l1,0.2l0.8-0.2l0.5,1l0.2,1
		l-0.1,0.3l-0.2,0.1l-1.6-1.1l-0.6-0.7l-0.2-0.6L285.6,162.4z M297,176.1l-0.5,2l-0.2-0.2l-0.3-0.9l-0.6-0.5l-0.7-1l0-2.2l0.3-1
		l-0.1-1.4l0.7-0.8l0.5,1l0.1,1.7l-0.1,0.8l0.5,0.9l0.2,0.2l0.1,0.7L297,176.1z M702.3,184.1l-1.1,0.6l-0.6-0.8l0.4-0.2l0.6-0.9
		l0.8-0.8l0.3-0.7l1.4-0.3l0.5,0l0.2,0.2l-0.8,1L702.3,184.1z M295.3,185.2l1.1,0.2l1.4,0l-0.2,1.8l-0.5,1.1l-0.4,0.3l-0.2-0.6
		l-0.9-1.4L295.3,185.2z M519.1,201.6l0.9,0.3l0.7,0l0.2,0.3l-0.7,1.1l-0.4,0.2l-0.8-0.8l-0.6-1l-0.2-0.6l0-0.6l0.1-0.1L519.1,201.6
		z M513.7,212.3l1.2,0.9l1.2,0.5l1.8,0.3l0.3,0.2v0.4l-0.3,0.6l-0.6,0.8l-0.4,0l-1-0.6l-0.4-0.3l-0.4-0.6l-0.2-0.1l-0.3,0.2
		l-0.1,0.3l0.1,0.3l-0.2,0.1l-1.2-0.2l-0.2-0.2l0.1-0.7l0.9-1l-0.8-0.3l-0.2-0.4l-1.1,0.6l-0.6,0.2l-1-0.4l-0.1-2.3l-0.1-0.8
		l-0.5-0.6l-0.3-0.6l-0.4-0.5l-0.9-0.5l-0.7-1.2l-0.1-0.5l0.1-0.4l0.4-0.5l2.5,1.2l1.5,1.1l1.5,1.4l0.8,1l0.1,0.7l-0.2,0.7l-0.5,0.7
		L513.7,212.3z M505.2,217.1l-0.5,0.2l-0.5-0.1l-0.4-0.6l-0.4-1.1l-0.6-0.8l-1.3-1l-0.2-0.4l-0.4-1.4l-0.1-1.4l-0.3-1.3l0-0.6l0.2-1
		l1.1-0.2l0.8,0.4l0.2,0.2l0.3,0.5l0.2,0.7l1,1.8l0.6,1.4l0.8,3v0.6l-0.2,0.6L505.2,217.1z M503,223.9l0.3,0.3l0.4-0.2l0.6-1.1
		l1.4-3l0.4-0.3l0.6,0l2.1,2l0.8,1.1l0.4,1.5l0.4,0.6l1.7,0.8l1.6,0.3l2.1,0.8l0.8,0.6l1.7,2.9l0.2,0.2l1.9,1.2l2.9,2.6l0.7,0.4
		l2.8,0.9l1,0.6l1,1l1.1,1.8l1.3,2.8l1,4.4l0.1,0.9l-0.1,0.5l-0.4,0.5l-1.6,1.8l0.1,0.3l1.5-0.1l3.4-1.1l2.1,0.8l0.7,0.1l0.2,0
		l0.8-1.4l0.8,0.2l1.2,1.3l0.8,1.1l0.3,0.8l-0.1,0.5l-0.8,0.2l2,0.8l1.7,1.2l-0.4,0.8l-1.8,1.8l-1.9,1.6l-2.2,2.3l-0.5,0.4l-0.3,0
		l-1.2-0.4l-1.7-1.1l-5.3-2.5l-1.6-0.5l-2.1-0.3l-0.3-0.6l-0.5-3.9l-0.9-0.7l-3.2-0.8l-0.9-0.5l0-0.8l0.2-1.3l-0.4-0.7l-1.1,0
		l-1.1,0.3l-1.7,0.9L515,249l-0.3,0.9l-0.2,2l-0.2,0.9l-0.6,1.2l-2.6,3.1L510,258l-1.1,0.3l-0.4,0.3l-0.7,1.1l-1.1,2.8l-0.4,0.8
		l-0.7,0.8l-1.5,1.2l-1.5,1l-2.5,1.2l-1.4,0.4l-0.9-0.4l-0.6-2.6l-1.3-7.8l-0.2-0.5l-0.3-0.3l-0.3-0.1l-4.5,1l-2.5-0.1l-2.4,1.8
		l-0.6,0.1l-1.2-0.1l-0.9-0.3l-0.2-0.2l-0.1-0.8l0-0.8l0.3-0.9l1.1-2.3l0.9-1.5l0.4-0.5l4.2-2.6l1-0.9l0.5-0.9v-0.9l-0.2-1.2
		l-0.7-2.9l-0.2-2.6l0-1.3l0.3-2l1-4.9l0.4-2.4l0.7-8.7l0.4-2.5l0.5-2.3l0.5-1.4l1.3-2.8l1-1.1l1.3-0.8l0.3,0.1l0.2,0.3l0.5,1.2
		l1.8,1.1l0.6,1.1l0.4,1.2l0.2,1.5l-0.2,0.7l-0.9,1l-0.1,0.4l0,0.3l1.6,1.6L503,223.9z M568.2,250.4l-0.7,0.9l-1.9-0.3l-0.3-0.3
		l-0.1-0.3l0.3-0.5l2-0.4l0.8,0l0.4,0.1l0,0.2L568.2,250.4z M576.9,262.5l-1,0.2l-1.2-0.5l-1.2-0.9l-2.8-2.8l2.1-1.9l3.3,2.2l1,1.4
		L576.9,262.5z M566.1,260.9l0.8,0.9l0.8-0.1l0.4,0.7l1,2.2l0.1,0.4l0,0.7l-0.5,0.9l-0.6,0.5l-1.2,0.7l-1.3,0.3l-0.7-0.5l-2.1-2
		l-1.9-2.3l-0.6-1.3l0.3-0.5l0.8-0.4l1.6-0.4l2.7,0.2L566.1,260.9z M529.2,271.2l0.4,0.5l0.1,0.8l-0.1,1.1l-0.2,1l-0.3,0.9l-0.8,1.5
		l-2.5,2.6l-0.9,1.4l-0.7,0.8l-4,3.7l-0.5,0.2l-0.5-0.1l-1.1-0.5l-1.1-0.1l-2.9,1.5l-0.1-0.2l-0.1-1.6l-0.3-0.9l-1.3-1.9l-0.1-0.5
		l0-0.5l0.1-0.4l1.4-1.8l3.2-6.6l0.8-0.3l1.6,0.7l0.8,0.2l0.5,0l2.3-1.4l2.2,0.2l2-0.8l1,0l0.7,0.1L529.2,271.2z M633.7,279.1
		l-0.6,0.1l-1.2-0.2l-1.3-0.4l-0.7-0.5l-0.6-1l-0.1-1.1l-1.2-1.6l-1.3-0.5l-0.8-1.1l0.8-0.1l1.1,0.2l1.6,0.5l1.4,0.7l2.1,1.4
		l0.7,1.3l0.7,1l0.2,0.7l-0.2,0.3L633.7,279.1z M600.9,277.8l-0.5,0.2l-1.8-0.2l-2.2-0.9l-1.1-0.9l0.1-0.3l0.5-0.1l0.6,0.1l1,0.6
		l2.6,0.3l0.8,0.3l0.3,0.5L600.9,277.8z M683.2,278.9l1.7,0.2l1-0.1l0.5,0.3l0.4,0.9l-0.5,1.3l-0.6,0.5l-1,0.2l-1.6-0.4l-0.6-0.3
		l-0.5-0.7l0.2-0.5l0.8-0.2l0.1-0.2l-0.2-0.4l0-0.3L683.2,278.9z M551.2,281.8l0.7,0.5l1.2,1.8l0.4,0.9l0.1,1.2l-0.3,1.6l-0.2,1.5
		l-0.4,1.1l-0.8,1.4l-0.7,1.6l-0.6,1.9l-0.5,1.2l-0.4,0.6l-0.4,0.3l-0.5,0l-0.7-0.7l-1-1.4l-0.8-0.8l-1-0.6l-0.5-0.8l-0.1-0.8l0-2.5
		l0-1.2l0.1-1l0.2-0.8l0.5-1.2l1.4-2.5l0.8-1l0.5-0.2l1.4,0.2l0.6-0.1l0.5-0.3L551.2,281.8z M681.3,292l0.2,0.2l0.2-0.2l0.2,0.2
		l0.1,0.5l0.2,0.4l0.5,0.5l0.2,0.3l0,0.3l-0.4,0.5l-0.3,0l-2.1-1.2l-0.6-1.3l0-0.6l0.2-0.6l0.3-0.3l0.4,0l0.5,0.3L681.3,292z
		 M430.2,292.6l-0.4,0l-0.8-1l-0.2-0.5l1.1-0.3l0.7,0.9l-0.1,0.4L430.2,292.6z M683.1,301.6l-0.2,0.2l-0.2,0l-0.7-1l-0.9-0.4
		l-0.3-0.4l-2.7-2.1l-0.3-0.9l0-0.7l0.9-0.3l1.8-0.3l1.6,0l1.5,0.4l0.3,0.5l0.8,0.8l-0.2,1l0,1.3l-0.3,0.6l-0.5,0.5L683.1,301.6z
		 M560.3,313.4l-1.2,0.2v-0.3l0.5-0.8l1.9-0.7l1.4-0.2l-0.3,0.6l-0.8,0.5L560.3,313.4z M652.6,322.3l-0.8,0.1l-0.4-0.4l0-1.1
		l0.3-0.8l0.9-1.7l0.8-1.9l0.5-0.5l1,0.3l0.6,0.6l0.6,0.9l0.3,0.7l-0.2,1l-0.7,0.9l-0.8,0.6L652.6,322.3z M686.9,320l-0.3,1.2
		l-1-0.5l-1.6-1l-0.6-0.6l-0.2-0.7l0-1l0.5-0.2l1.2-0.1l1,1.3l0.3,0.2L686.9,320z M546.5,330.7l-0.9,0.1l0.4-1.1l0.3-0.5l0.4-0.3
		l0.8-0.1l0.5,0.4l-0.5,0.8L546.5,330.7z M544.5,333.3l-0.3,0l-0.1-0.2l0.2-0.7l0.4-0.1l0.4-0.8l0.4,0.3l-0.1,0.5l-0.5,0.7
		L544.5,333.3z M644.3,343.5l-0.5,1.3l-0.7-0.2l-0.3,0.3l-0.2,0l0.3-1.2l0-0.8l-0.2-0.8l0.2-0.4l1,0l0,0.9l0.1,0.3l0.2,0.2
		L644.3,343.5z M549.7,369.5l-0.1,0.1l-0.4-0.1l-0.2,1.1l-0.2,0.1l-0.3-0.7l0.2-0.6l0-0.4l0.1-0.3l0.4-0.7l0.2-0.2l0.1,0.1l0.1,0.8
		L549.7,369.5z M548.3,381.7L548,382l-0.4-0.3l0-0.8l0.4-0.6l0.3,0l0.3,0.3l-0.1,0.4L548.3,381.7z M551.4,383.6l-0.3,0.2l-0.2,0
		l0.2-1.4l-0.3-0.5l0-0.3l0.1-0.2l0.2,0l0.4,0.5l0.2,0.5l0.1,0.5l0,0.5l-0.1,0.3L551.4,383.6z M556.7,390l-0.7,1.6l-0.6,1.6
		l-0.8,2.9l-0.5,0.1l-0.4-0.7l1.2-3.4l0-0.4l0-0.3l-0.4-0.5l-0.4,0.6l-1.7,3.9l-0.4,0.6l-0.4,0.3l-0.3,0.1l-0.7-0.1l-1.4,1.1
		l2.4-4.6l0-0.3l-0.5-0.2l-0.2,0.1l-1.9,2.9l-1.1,1.1l-0.7-0.3l-0.2-0.3l0.1-0.3l1.9-2.9l1.7-2.1l0.7-1.3l0.3-1.2l0.1-0.9l0-1
		l0.1-0.3l0.1,0l0.1,0.4l0,1.1l-0.4,2.2l-0.3,1.1l-0.4,0.9l0.2,0.2l0.7-0.5l0.6-1l0.5-1.6l0.3-1.4l0.3-2.2l0.1,0.1l0.1,0.5l0.3,0.3
		l0.5,0.2l0.3,0.3l0.2,0.8l0.2,0.3l0.7,0.3l0.3,0.2l0.2,0.8l0,0.4l0.1,0.3l0.2,0.1L556.7,390z M547.3,390.9l-0.5,0.1l-0.5-0.2
		l0.3-1.2l0.5-0.5l1.2-0.5l0.2-0.3l0.4-0.2h0.5l0.6-0.4l0.7-0.9l0.2-0.1l-0.5,1.3l-0.5,1L547.3,390.9z M557.6,391.9l-0.5,0.2l-0.3,0
		l0.1-0.5l0.5-1.1l0.2-0.9l0.1-0.8l0.2-0.7l0.3-0.6l0.3-0.3l0.5,0l0.1,2l-0.1,0.9l-0.3,0.8l-0.5,0.6L557.6,391.9z M547.7,435.9
		l0,0.4l-0.6-0.1l-0.3-0.2l-0.3-0.4l0-0.3l0.2-0.3l0.7,0.2L547.7,435.9z M540.5,444.2l-0.6,0.2L538,444l-0.8-0.3l-2.3-1.1l-4.4-1.6
		l-1.5-0.8l-0.3-0.6l0.8-1.2l0.5-0.5l0.5-0.3l4.6-0.6l1.8,0.3l2.1,2.5l1.2,1.7l0.5,1.4l0,0.7L540.5,444.2z M552.6,455.8l-0.4,0.1
		l-0.8-0.1l-0.7-0.4l-0.4-0.5l2.8-1.3l0.6,0.2l0,0.2l-0.4,0.7l-0.1,0.5l-0.2,0.3L552.6,455.8z"/>
	<path id="CA-ON" fill="#CCCCCC" stroke="#FFFFFF" stroke-width="0.5" d="M551.4,470.7v2.5v3.4v3.4v3.4v3.4v3.3v3.3v3.3v3.3v3.3v3.3
		v3.2v3.2v3.8v0.1l-0.4,0.9l0.1,1l0.6,1.2l0.3,1.2l0.1,1.2l0.6,1.5l1.8,2.6l1.3,2.9l1,1.6l1.1,1.2l2.9,1.1l7,1.6l2.8,1.6l0,0
		l0.7,1.1l0.1,0.2l0.1,0.4l0.3,0.3l1.2,0.9l0.6,0.3l0.5,0.1l0.3,0l0.1-0.2l0.1-0.7l0.2-0.2l0.2,0l0.4,0.1l0.6,1.1l0.8,2l1,1.3
		l1.2,0.6l1.3,0.2l1.3-0.3l1.1,0.3l0.9,0.8l2.5-0.4l4.1-1.6l2.7-0.8l1.3-0.1l1.2,0.2l1.6,0.8l-0.2,0.8l-0.3,1.5l-0.2,1l0.6,0.6
		l0.7,0.7l-0.2,0.1l-3.1,2.6l-0.5,0.1l-0.8-0.1l-1.2,0.4l-1.6,0.9l-2,1.6l-3.5,3.5l0,0.1l-0.1-0.1l-0.2,0.1l-1,1l-1,0.6l-2.5,0.9
		l-0.6,0.4l-0.7,0.2l-0.9,0.1l-0.9,0.3l-0.9,0.4l-1.8,1.3l-0.5,0l-0.2-0.2l0.1-0.2l0.3-0.3l1.1-0.7l-0.2-0.1l-0.3,0.1l-0.5,0.4
		l-0.2,0l0.1-0.5l-0.3-0.1l-0.8,0.3l-0.5,0.1l-0.2-0.2h-0.2l-0.3,0.2l-0.4,0l-0.7,0.2l-1.3,0.5l-0.3,0.4l0,0.1l1.2-0.6l0.6-0.2
		l0.4-0.1l0.2,0.1l-0.2,0.3v0.2l0.3,0.1l0.2-0.1l0-0.1l-0.2-0.1v-0.1l0.2-0.2l1.4-0.4l0.3,0.3l-0.3,0.8l0.1,0.4l0.6,0l0.6-0.2
		l0.7-0.4l0.2,0l-0.2,0.4l-0.4,0.4l-0.8,0.6l-0.2,0.4l0,0.1l0.3-0.2l0.9-0.1h0.4L575,563l-0.5,0.2l-1.1,0.6l-0.9,0.2l-0.5-0.1
		l-0.1-0.3l0.3-0.5l0-0.1l-0.7,0.3l-0.2,0l-0.2-0.3l0-0.1l0.3,0l0.2-0.2l-0.6-0.1l-0.9,0.2l-0.7-0.1l-0.5-0.3l-0.1-0.2l0.2-0.1
		l0-0.1l-0.3-0.2l-0.9-0.1l-0.2,0.1l-0.2,0.3l-0.9,0l-0.5,0.2l-1.1,0.2l-1.7,0.2L562,563l-1,0.4l-0.7,0.1l-0.5-0.1l-0.8,0.1
		l-1.1,0.3l-1.8,0.3l-0.7,0.2l-0.9,0.7l-1.2,1.1l-0.8,0.6l-0.5,0l-0.3,0.1l-0.2,0.3l-0.6,0.4l-0.2,0.3l-0.1,0.5l-0.4,0.7l-1.1,1.6
		l0,0.2l0.4,0.6l0.8,0.2l1,0.3l1.1,0l0.6,0.1l0.4-0.1l0.7-0.4l1.4-0.5l0,0.1l-0.1,2.1l-0.1,0.2l0.3,0.4l0.1,0.2l0,0.3l0.3,0.4
		l0.6,0.5l0.2,0.3l-0.1,0.2l-1.1,0.6l-0.6,0.1l-0.5-0.2l-0.8-0.1h-1.1l-1.9,0.3l-0.6,0l-0.3-0.1l-0.4,0l-1.6,0.4l-1.6,0.2l-1.1,0.3
		l-0.6,0.4l-0.4,0.4l-0.3,0.3l-0.3,0.1l-0.5,0.8l0,0.1l0.7,0l0.6,0.2l1.8,0.2l0.4,0.2l-0.3,0.1l-2.7-0.4l-0.7,0l-1.3-0.3l-1.9-0.6
		l-1.9-0.2l-1.9,0.1l-1.4,0.3l-0.8,0.5l-2.1,1.8l-0.7,0.9l-0.3,0.9l-0.2,0.4l-0.2,0v-0.2l0.2-0.4l-0.1-0.1l-0.5,0.4l-0.1,0.1l-1,0.1
		l-1,0.4l-1.4,0.8l-0.9,0.7l-0.5,0.6l-0.2,0.6l0,0.7l-0.1,0.1l-0.5-0.8l-0.3-0.3l-0.4-0.1l-0.4,0l-1.3,0.5l-0.9-0.1l-1.1-0.5
		l-0.4-0.2l-0.1-0.6l0.1-1.2l0.2-0.7l-0.1-0.1l0.1-0.2l0.6-0.4l1.2-0.7l1.1-1.3l0.9-0.8l0.9-0.8l0.5-1.4l0.6-3.4l0.9-0.3l1.2-0.5
		l0.8-0.6l0.5-0.7l0.5-0.5l0.6-0.3l0.6-0.4l0.6-0.6l0.4-0.8l0.2-1l0.1-1l-0.1-1l0-4.2l-0.1-1l0.2-0.9l0.5-0.8l0.3-0.8l0.1-0.7
		l0.3-0.6l0.4-0.5l0.4-0.3l0.4-0.2l0.3-0.3l0.1-0.5l0.3-0.6l0.5-0.7l0.2-0.6l0-0.9l0-0.9l-0.2-0.5l-0.4-0.5l-0.2-0.5l0-0.8l-0.2-0.1
		l-0.3,0l-0.3-0.3l-0.4-0.8l-0.4-0.6l-0.3-0.3l-0.1-0.3l-0.3-0.3l-0.5-0.2l-0.2-0.3l0.1-0.3l0.9-0.1l1.8,0.1l0.9,0.1l0.1,0.1
		l-0.3,0.7l0,0.4l0.3,0.4l0.2,0.5l0,0.7l0.5,0.2l0.1,0.1l0.1,0.4l0.4,0.1l0.1,0.2l-0.1,0.3l0.1,0.1l0.5,0.1l0.4-0.5l0.2-0.1l0.3,0
		l0.1,0.1l-0.2,0.3L538,551v0.4l-0.3,0.4l-0.8,0.8l0,0.2l0.2,0.1l0.8-0.5l0.5-0.1l0.4,0.2l0.2,0.2l0,0.2l-0.1,0.6l-0.2,1l0.1,0.2
		l0.5-0.6l0.6-0.4l1.1-0.3l0.2,0.1l0.5,1l1.2,0.8l2.1,0.9l1.3,0.2l0.4-0.3l0.3-0.7l0.1-1l-0.2-0.7l-0.5-0.4l-0.3-0.4v-0.4l0.4-0.3
		l0.6-0.3l0.6-0.1l0.1,0.1l-0.1,0.4l0.1,0.1l0.3,0l0.1,0.1l0.4,0.4l1,0.1l0.3-0.1l-0.3-0.3l0-0.4l0.2-0.5l0-0.2l-0.3,0.2v0.4
		l-0.2,0.2l-0.2-0.1l-0.1-0.4l-0.1-0.4l-0.2-0.7l-0.7-0.2l-0.2-0.2l0-0.3l-0.1-0.2l-0.2-0.1l-0.5-0.6l-0.6-0.5l0-0.2l0.5-0.1
		l0.1-0.2l-0.1-0.3l-0.3-0.4l-0.2-0.1l-0.2,0.2l-0.1-0.1l-0.1-0.3l0.1-0.5l0.5-0.5l0.1-0.5l-0.1-0.4l-0.3-0.2l-0.5-0.1l-0.3,0
		l-0.1,0.1l0.2,0.5l-0.1,0.1l-0.8-0.2l-0.3-0.3l-0.4-0.2l-0.3-0.8l-0.1-0.5l0-0.9l-0.2-0.6l-0.1-0.1l0,0.3l-0.2,0.2l-0.4,0.1
		l-0.2-0.2l-0.1-0.4l-0.2-0.3l-0.4-0.4l-0.3-0.6l-0.1-0.3l0-0.2l-0.1-0.3l-0.4-0.3l-0.2-0.6l-0.2-0.2l-0.5-0.5l-0.2-0.3l-0.1-0.1
		H539l-0.7,0l-1.2,0.1l-0.6-0.2l0-0.5l0-0.3l-0.1-0.1l-0.2,0.1l0,0.2l-0.4,0.2h-0.6l-1.3-0.3l-0.5,0l-0.8,0.3l-0.3-0.2l0.3-0.2
		l0-0.2l-0.2-0.1l0-0.1l-0.1-0.2l0.9-0.4l0-0.2l-0.6-0.4l-0.3,0.1l-0.1,0.3l-0.2,0.2l-0.3,0.1l-0.2,0.2h-0.1v-0.2l0-0.4l-0.4-0.1
		l-1.8-0.2l-0.9,0l-0.7,0l-1.1-0.4l-0.3-0.4l-2.2,0.2l-0.4,0.1l-0.2,0l-0.5-0.4l-1.6,0.2l-1.2,0.1L516,534l-1-0.3l-0.2-0.2l-0.6-0.2
		l-1.6-0.2l-0.2-0.1l-0.2-0.3l-0.5-0.1l-0.9,0l-0.5-0.2l-0.1-0.4l0-0.5l0.2-0.6l0-0.4l-0.3-0.4l-0.4-0.3l-0.6,0.1l-1,0.3l-0.8,0.1
		l-0.2,0.2l-0.1,0.2l-0.2,0.1l-0.6-0.8v-0.4l0.2-0.3l0.7-1l0.2-0.6l-0.2-0.3l-0.2,0l-0.2,0.4l-0.2,0.2h-0.1l-0.2-0.4l0.1-1l0.2-0.4
		l0.4-0.2l0.7,0.1l0.2-0.1l0.1-0.3l-0.2-0.3l-0.5-0.3l-0.5-0.2l-0.5,0l-0.3,0.1l-0.2,0.2l-0.2-0.1l-0.3-0.3l-0.9-0.4l-0.2-0.3l0-0.4
		l0.5-1.1l-0.1-0.3l0.3-0.7l0.6-1l0.2-0.7l-0.2-0.4l-0.2-0.2l-0.2-0.1l-0.2-0.3l-0.2-0.5l-0.5-0.5l-0.8-0.4l-0.7-0.6l-0.5-0.7
		l-0.1-0.6l0.2-0.4l0.1-0.3l-0.1-0.3l0.2-0.4l0.4-0.6l0-0.5l0-0.4l0.4-0.6l0.2-0.4l-0.1-0.3l-1-0.1l-1.9,0l-1.5,0.1l-1.1,0.2
		l-1.3-0.1l-1.5-0.4l-1.2-0.8l-1-1.2l-0.7-1.2l-0.5-1.3l-0.2-1.1l-0.1-0.3l-0.2-0.2l-0.2-0.6l-0.2-1.1l-0.2-0.7l-0.3-0.3l-0.1-0.2
		l-0.4-0.7l-0.2-0.4l0-0.2l-0.3-0.4l-0.2-0.1l-1.1,0.2l-0.4-0.3l-0.2-0.2L487,500l-0.5,0.1l-0.6,0.4h-0.6l-1.1-0.2l-0.7,0.1l-1.2,0
		l-0.8-0.3l-0.9-0.5l-0.5-0.1l-0.5,0.1l-0.3-0.1l-0.1-0.3l-0.2-0.1l-0.8-0.3l-0.7-0.3l-1.8-0.5l-0.5-0.5l-0.4,0l-0.5,0l-0.3,0.2
		l-0.4,0.1l-0.4-0.1l-0.1,0.2l0.1,0.4l0,0.3l0.2,0.7l0.7,0.6l0.3,0.6v0.6l-0.3,0.7l-0.9,1.2l-0.1,0l-0.7,0.2l-0.4,0.3l-0.3,0.1
		l-0.2-0.2l-0.2,0.1l-0.3,0.4l-0.1,0.3l0,0.2l-0.1,0.3l-0.3,0.3l-0.2-0.1l-0.1-0.4l-0.1-0.2l0.2-0.5l1.5-1.7l0.5-0.7l0.1-0.4
		l-0.1-0.5l-0.2-0.6l-0.4-0.3l-0.6,0l-0.4,0.2l-0.3,0.6l-0.1,0.4l-0.1,0.9l0,0.3l-0.1,0.2l-0.3,0.1l-0.2,0.4l-0.1,0.7l-0.2,0.4
		l-0.3,0.1l-0.2,0.5l-0.1,0.8l-0.1,0.4l-0.4,0.2l-1,0.4l-0.4,0l0.1-0.4l0.2-0.2l0.2-0.1l0.5-1.7l0.5-0.9l-0.1-0.1l-2.8,1.2l-1,0.6
		l-0.2,0.4l0,0.5l0.1,0.5l-0.1,0.5l-0.3,0.4l-0.4,1l-0.2,0.6l-0.3,0.5l-0.8,0.3l-0.1,0.1l-0.9,1.1l-0.3,0.2l-1.8-0.2l-1.1,0.3
		l-0.8-0.3l-0.4-0.8l-0.5-0.5l-2,0.2l-2.6-0.2l-1.2,0.1l-0.5-0.3l-0.4-0.9l-0.7-0.1l-1.1,0.2l-1.6,1.2l-1.5,0.6h-1.2l-1.2-0.6
		l-1.9-1.2l-1.3-1.4l-1.5-0.5l-1.1,0.1l-0.5,0.7h-0.6l-0.4-1.2l-0.4-0.9l-0.7-0.4l-1.3-0.9l-0.9-0.5l-1.4-0.6l-0.5-0.1l-0.9-0.1
		l-0.9-0.1l-1.1,0.2l0,0l0,0l0,0l-0.8,0.8l-0.9,0.3l-1.3,0.2l-0.9-0.3l-0.4-0.8l-1.8-0.7l-3.2-0.6l-1.9-0.5l-0.5-0.4l-0.3-0.5
		l-0.1-0.7v0l-0.8-1.9l-0.4-1.6l-0.2-1.9l0-0.6l-0.2-0.2l-0.6-0.4l-1.9-0.3l0-6l0-6l0-6.1l0-6.1l0-6.2l0-6.2l0-6.3l0-6.3l3.4-3.4
		l3.4-3.4l3.4-3.5l3.4-3.5l2.3-2.8l2.3-2.8l2.3-2.8l2.3-2.8l2.7-3.2l2.7-3.2l2.7-3.3l2.7-3.3l3.1-3.5l3.1-3.6l3.1-3.6l3.1-3.6
		l2.3-2.6l2.3-2.6l2.3-2.6l2.3-2.5l1.1,0.6l1.3,1.5l2.1,1.9l1.6,1.2l1.8,1.1l1.8,2l2.8,4.6l0.7,0.6l1.8,0.8l3.3,1l4.9,2.2l2.1,0.9
		l1.4,0.3l1.4,0.6l1.4,0.9l1,1l0.7,1l0.6,0.7l1.1,0.8l0.6,0.5l0,0.8l-1.3,3.2l0,0.2l1.4-2.3l0.8-0.7l0.6-0.3l1.3,0l1.9,0.4h1.7
		l1.5-0.4l1.2-0.2l1,0l0.7-0.1l0.5-0.3l0.5,0l2.2,0.8l0.9,0l3.2,0.7l2-0.3l0.3,0.1l0.7,1l0.6,0.1l1-0.2l1,0.3l1.7,1.3l0.8,1.1
		l0.7,2.2l0.1,0.7l-1.4,5.1l-0.4,2l0,1.7l0.3,1l1.2,1.6l0.2,0.4l0.7,2.4l0.2,1l-0.1,1.2l-0.4,1.9l0.1,1.5l0.3,2.2l-0.1,1.5l-0.5,0.8
		l-0.4,0.8l-0.3,1.4v0.5l0.3,1l0.5,0.6l0.8,0.7l0.8,1l1.4,2.4l1,1.3l1.3,1.9l0.2,1l-0.4,0.6l-0.5,0.4l-1,0.6l-0.5,0.4l0.1,0.1
		l1.5-0.3l0.9,0l0.8,0.5l0.6,0.9l1,0.8l1.4,0.6l1.4,1.1l2.4,2.5l0.4,0.6l0.6,1.3l0.8,2.1l0.4,1.3l0,0.6l-0.5,0.6l-1.6,1.1l-1.6,2
		l0.5-0.1l1.1-0.8l1.8-1.7l1-0.3l0.9,0.2l1.5,0.5l1.3,0.7l1.1,0.9l1.7,2.4L551.4,470.7z M551.4,470l-1-1.2l-0.7-1l-0.2-0.5l0-0.5
		l0.1-0.9l0.3-1.4l0.4-1l0.5-0.6l0.3-0.6l0.2-0.6l0.1-0.1l0,4.6V470z M475.1,501.2l-0.2,0l-0.2-0.3l-0.1-0.9l0.3-0.4l0.5-0.3
		l0.7-0.1l0.9,0.1l0.4,0.2l0,0.4l-0.1,0.2l-0.3,0.1l0,0.2l-0.4,0.1l-0.7,0l-0.5,0.2L475.1,501.2z M478.8,500.6l-0.6,0.1l-0.4-0.1
		l-0.1-0.1l0.1-0.2l0-0.2l-0.2-0.4l0-0.1l0.1-0.1l0.3,0l0.3,0.3l0.4,0.6L478.8,500.6z M496.3,514.4l-1.7,0.2l-0.8-0.2l-0.1-0.2
		l0.2-0.2l0.4-0.3l0.5-0.2l0.6,0l1.1,0.3l0.4,0.3l-0.1,0.2L496.3,514.4z M513,534.9l-0.2,0.2l-0.2-0.1l-0.2,0.1l-0.1,0.4l-0.2,0.3
		l-0.2,0.1l-0.4-0.2l-0.5-0.9l-0.4-0.8l-0.2-0.7l0.3-0.3l0.8,0.1l0.7,0.2l0.6,0.4l0.2,0.5L513,534.9z M517.2,538.6l-0.5,0.2
		l-0.6-0.2l-0.2-0.3l0.1-0.4l0.3-0.3l0.4-0.3l0.4-0.1l0.4,0.2l0.2,0.2l0,0.2L517.2,538.6z M521.8,537.3l-0.1,0.5l0.1,0.3l0.3,0.2
		l0.2,0.2l0.1,0.3l0.2,0.1l0.4-0.1l0.3,0l0.1,0.2l0.2,0.1l0.2-0.1l0.2,0.1l0.3,0.4l0.2,0l0.2-0.3l0-0.2l-0.4-0.1l0-0.1l-0.2-0.3
		l0.1-0.2l0.4-0.3l0.3-0.1l0.2,0.2l0.2-0.1l0.2-0.3l0.4-0.2l0.6-0.1l0.3,0.1l0.1,0.4l0.2,0.1l0.3-0.1l0.3,0.3l0.3,0.7l0.3,0l0.3-0.6
		l0.5-0.5l0.6-0.3l0.4,0l0.3,0.2l0.1,0.3l0,0.4l0.2,0.2l0.3,0.1l0.1,0.3l-0.1,0.5l0,0.4l0.3,0.6l0.1,0l0.3-1l0.2-0.5l0.3-0.4l0.2,0
		l0.1,0.3l-0.1,0.3l-0.2,0.4l0.1,0.2h0.8l0.1,0.1l-0.8,1.7l-0.6,0.8l-0.7,0.6l-0.5,0.1l-0.3-0.3l-0.3-0.1l-0.3,0.1v-0.1l0.5-0.4
		l0.2,0l0.3-0.1l0.9-0.9v-0.2l-0.5,0.1l-1.9,1.6l-0.2,0.1l-0.2-0.1l-0.1-0.3l-1-0.5l-0.4-0.4l-0.6-0.3l-0.8-0.2l-0.9-0.4l-1-0.6
		l-1-0.3l-1.8-0.2l-0.2-0.3l-1.8-0.5l-0.5-0.3l0-0.4l0.1-0.3l0.2-0.2l0.2,0.1l0.2,0.3l0.2,0l0.2-0.2l0.3,0l0.4,0.2l0.3,0l0.2-0.2
		l0.4-0.2l0.5-0.2L521.8,537.3z M531.1,543.9l-0.2,0l-0.2-0.1l0-0.2l0.1-0.2l0.8-0.4l0.2,0.1l-0.1,0.3L531.1,543.9z M545.5,552.2
		l0,0.2l-0.4-0.3l-0.2-0.3l0-0.3l0.2-0.1l0.4,0.1l0.1,0.2L545.5,552.2z M579.7,560.4l-0.5,0.4l-0.4,0l-0.1,0l0.1-0.2l0-0.1l-0.1-0.1
		l0.1-0.2l0.3-0.3l0.2-0.3l0.9-0.2l0.4-0.1l0.5-0.1l-0.1,0.3l-0.8,0.3l-0.2,0.4L579.7,560.4z M576.8,560.6l-0.4,0.1l-0.5-0.1
		l-0.2-0.1l0.1-0.2l0.3-0.2l1.1-0.3l0,0.2L576.8,560.6z M523.5,589.8l-0.4,0.1l0-0.2l0.1-0.6l0.2-0.3l0.1,0.1l0.1,0.5L523.5,589.8z"
		/>
	<path id="CA-PE" fill="#CCCCCC" stroke="#FFFFFF" stroke-width="0.5" d="M692.2,531l0.2,0.2l0.4-0.3l0.5-1.1l1.3,0.3l0.7,0.5
		l0.4-0.1l0.4,0.1l0.7,0.6l1.4,0.5l1.5-0.1l2.3-0.3l0.3-0.1l2.3-0.2l2.3-0.1l0.8,0.3l0.3,0.3l0.2,0.3l-1.3,0.9l-1.3,1l-1.8,1
		l-0.2,0.5l0.1,0.9l0,0.9l0.4,0.1l0.2,0.3l-0.5,0.3l-1.9,0.1l-0.5-0.1l-0.7-0.4l-0.2-0.9l-0.8,0.1l-0.2-0.1l1.2-0.7l-0.5-0.9
		l-0.5,0.1l-0.4-0.4l0-0.6l0.5-0.3l0.2-0.3l-0.7,0.3l-0.5,0.6l-0.7,0.2l-0.7,0.5l1.1,0.1l-0.5,0.4l-0.6,0.1l-2.6-0.7l-0.7-0.3
		l-0.8-0.8l-0.6-1l0.3,0l0.1-0.2l-0.1-0.2l-0.9-0.1l-1.4,0l-0.8-0.3l0-1.8l-0.3-0.5l-0.9-0.4l-1.4-0.1l-0.1-0.7l0.4-1l0.7-0.9
		l0.5-0.9l0.6-0.7l1.5-1.4l0,1l0.1,0.9l-1,1.8l1.7,1.8l0.2,0.4l0.1,0.5l-0.1,0.4l-0.3,0.4l0.7,0.2L692.2,531z"/>
	<path id="CA-QC" fill="#CCCCCC" stroke="#FFFFFF" stroke-width="0.5" d="M685,321.1l-1.8,0.7l-0.3,0.3v0.2l0.5,0.8l1.3,0.6l0.2,0.4
		l-0.2,0.6l-0.5,0.3l-0.6,0.5l-0.9,0.2l-0.1,0.3l0.2,0.5l0.3,0.4l1.4,0.8l0.2,0.2l0,0.2l0,0.3l-0.9,0.7l-0.3,0.9l-0.2,4.9l0.4,0.9
		l0.5,0.4l2.4-1.1l0.5,0.2l0.1,0.7l-0.4,0.3l-0.7,1l-0.1,0.8l0,2.3l0.1,1l0.2,0.9l0.3,0.4l1,0.8l0.1,0.4l-0.3,0.3l-0.3,0.1l-3.4-0.9
		l-0.3,0.2l-0.3,0.3l-0.2,0.6l0,0.6l0.4,0.3l1.7,0.3l2.9,0.8l0.5,1.4l0.4,0.3l0.3,0l1.5-0.7l2.4-0.9l0.5,0.1l0.7,0.4l0.5,0.5
		l0.3,0.5l0.1,0.3l-0.1,0.2l-0.4,0.2l-3.7,0.8l-0.7,0.3l-0.3,0.4l-0.1,0.3l0,0.4l0.2,0.8l0.2,0.2l1.4-0.2l0.4,0.9l0,0.4l-0.1,0.4
		l-1.6,1l-0.7,0.7l-2.5,3.2l-0.2,0.4l0,0.4l0.1,0.4l1.4,1.4l0.8,2.4l0.5,1.1l0.3,0.5l0.5-0.3l0.2,0l0.4,0.3l0.4,0.9l0.3,0.3l0.4,0.1
		l0.7,0.2l0.9-0.5l0.2,0l0,0.5l-0.2,0.4l-1.2,1.5l-0.1,0.5l0,0.7l0.2,2l-0.5,1.3l0.1,0.7l0.3,0.6l0,0.2l-0.3,1.6l-0.4,0.8l-0.4,1
		l-0.2,2.2l-0.4,0.4l-0.5,0.7l-0.2,0.5l-0.6,0.8l-0.1,0.5l0,0.3l1.4,2.7l0.3,0.8l-0.3,0.6l-0.9,0.2l-0.8,0.6l0.2,1l0,0.6l0.1,0.2
		l0.3,0.2l1.5,0.7l0.1,0.3l-0.8,1.1l-0.1,0.8l0.3,0l0.7,0.1l0.5,0.4l2.3,0.6l0.2,0.5l-0.2,0.3l-0.7,0.4l-0.3,0.4l-0.1,0.6l0.1,0.4
		l1.6,2.5l1,1.7l0.5,0.5l0.5,0.4l1.3,0.4l0,0.5l-0.1,0.7l0.1,0.6l0.3,1l-0.4,0.5l-2.4,1.5l-0.7,0.7l-0.2,0.4l-0.2,0.8l0.6,1.6l0,0.4
		l-0.1,0.7l-0.7,2.2l-0.8,2l-0.4,0.4l-0.5,0.1l-1.4-0.3l-3.9-1.4l-4.2-0.1l-2.8,0.2l-5-0.4l-0.6-0.4l-0.5-0.6l-0.6-1.4l-0.1-0.1
		l-1.8-0.5l-0.7-0.4l-0.8-0.6l-3.4-3.9l-1-1l-0.4-0.2l-0.2,0.3l0,0.3l0.7,1.3l0,0.3l-0.2,1l0.5,2.1l-0.2,0.8l0.5,1.6l0,0.8l-0.7,0.8
		l-1.3-0.5l-2.7-2.4l-1.2-2l-0.3-0.2l-0.6,0l-0.2,0.2l-0.1,0.3l0.2,0.8l0.4,1l0.7,1.4l0.8,2l0,0.3l0.5,0.4l0,0.6l-0.8,0.5l-0.4,1
		l-0.3,0l-2-0.8l-0.4,0.1l-0.2,0.2l-0.2,0.7l0.1,0.8l0.2,0.9l0.6,1.7l0.1,0.4l0,0.2l-1.5,1.4l-0.5,0.6l-0.3,0.6l0,0.4l2,2.9l0.5,0.7
		l0.1,1l-0.2,1.4l0,0.3l0.2,0.2l2.6,0.9l0.3,0.6l0.5,1.3l0.5,0.4l0.4,0.1l0.3,0.4l0.1,0.4l-0.2,2.2l0,1.6l-0.5,1.4l-0.2,0.9L663,443
		l0,1.2l0.3,0.5l0.7,0.3l0.5,0.1l0.4-0.1l0.4,0.2l1.1-0.6l0.2-0.3l0.4-2.4l0.1-0.3l0.8-0.4l0.3-0.7l0.2-0.2l0.4,0.1l0.3,0.3l0.5,0.9
		l0.2,0.6l-0.1,0.5l-0.3,0.3l-0.1,0.5l-0.1,1l-0.5,0.8l-0.1,0.4l0.3,3.6l-0.1,0.3l-0.5,0.8l0,0.7l0.2,1l0.3,0.7l0.3,0.3l0.3,0.1
		l0.2-0.5l0.3-1.6l0.2-0.1l1.2,1l0.5,0.3l0.5,1.5l0.5,0.4l0.9,0.4l0.5,0l0.2-0.2l0.2-0.6l0.8,0.2l0.5,0.3h0.4l0.3-0.3l0.7-1.5
		l0.2-0.1h0.5l1.2,0.3l1.2,0.4l0.9,0.6l0.9,0.8l1.5,2.2l1,0.8l0.3,0.3l-0.1,0.5l-0.5,0.4l-0.1,0.2l0,0.4l0.9,1.7l0.8-0.1l1.9-1.7
		l0-0.6l-0.3-0.6l-0.1-0.4l0.1-1.3l0.5-2.2l0.1-0.2l0.9-0.7l0.3-0.6l0.2-2.8l-0.7-2.6l0-1.1l0.1-2.8l0.3-0.6l1.2-0.4l0.3-0.2
		l0.5-2.5l0.1-0.2l1-0.4l0.7-0.1l0.5,0.1l0.6,1l0.5,1.1l0,0.4l-0.2,1.7l0,0.4l0.1,0.3l1.3,1.3l-0.1,0.3l-0.9,0.3l-2.6,0.6l-0.8,0.3
		l-0.5,0.3l-0.6,0.6l-0.4,0.6l-0.1,0.3l0,0.1l1,0.4l0.1,0.2l0.1,0.5l0.5,0.5l1.1,0.7l0.7,2.3l0.1,0.6l0,0.5l-0.4,0.2l-0.7,0
		l-0.1,0.1l0.1,0.3l0.2,0.1l1.3,0.1h3.6h3.7h3.6h3.7h3.6h3.7h3.6h3.6h3.7h3.6h3.6h3.7h3.7h3.6h3.6h3.7v4.2l0,3.8l-1.8-0.5l-1.5,0.1
		l-2.8,0.6l-0.8,0.4l-1.5,1.1l-0.6,0.2l-1.6,0.2l-1.5-0.2l-0.6,0.2l-0.7,0.5l-0.2,0.3l-0.2,0.9l-3.7,4.2l-1,1.4l-1.9,1.5l-2.1,2.6
		l-1.8,1l-0.6,1.4l-1.7,0.9l-3.2,0.2l-1.5,0.2l-1.8-0.4l-1.3,0.6l-2,0.2l-1-0.2l-3.9,1.4l-1-1.3l-0.8-0.5l-2.2-0.1l-1.8-0.5
		l-1.6-0.1l-1.6-0.2h-1l-1.1,0.1l-1.7,0l-0.9,0.7l-3.1-0.2l-1.3-0.7l-1.1-0.1l-1.5,0.1l-1.4,0.5l-3-0.6l-3.2,0.5l-2.8-0.3l-0.8-0.3
		l-4.4,0.8l-1.7-0.5l-1.5,1.3l-1-0.3l-1.1,0.2l-0.4-0.2l-0.8,0.2l-0.5,0.7l-0.6,0.1l-1.1,1.2l-1.8,1l-2.6,5.4l-0.2,2.1l-1,1.4
		l-0.9,0.2l-0.7,0l-4.5,1l-2,0.8l0.5,0.7l-0.7,0.5l-1.1,0.2l-1.2,0.6l-0.8,0.7l-0.4,0.9l-2.3,1.5l-2.7,3.5l-1.3,2.5l-1.6,1.8
		l-1.1,0.7l-0.8,0.1l-0.8-0.2l-1.3-0.8l-1-0.1l-2.5-1.2l-5.7-1.2l0.9,0.4l0.8,0.7l1.5,0.2l1.5,0l3.2,1.5l1.6,0.5l1,0.4l0.8,1
		l-0.6,1.9l-0.6,1.6l-0.8,1.2l-2.7,3.1l-1.3,1.1l-2.3,3.7L628,524l-1.3,1.1l-1.4,1.7l-3.2,1.3l-1.2,0.3l-1.1-0.2l-1.3,1l-1.6,0.6
		l-0.5,1l-3.8,2.6l-1.5,0.3l-1.2,0.7l-0.4,1.2l-1.1,0.7l-0.3,0.5l-0.9,1.6l-1.7,2.1l-2.1,0.3l-0.8,0.7l-0.9,1.2l-1.3,0.8l-2.5-0.4
		l0.6,0.5l2.2,0.8l0.2,1.1l-1.1,0.3l-2.2,1.4l-0.7-0.7l-0.6-0.6l0.2-1l0.3-1.5l0.2-0.8l-1.6-0.8l-1.2-0.2l-1.3,0.1l-2.7,0.8
		l-4.1,1.6l-2.5,0.4l-0.9-0.8l-1.1-0.3l-1.3,0.3l-1.3-0.2l-1.2-0.6l-1-1.3l-0.8-2l-0.6-1.1l-0.4-0.1l-0.2,0l-0.2,0.2l-0.1,0.7
		l-0.1,0.2l-0.3,0l-0.5-0.1l-0.6-0.3l-1.2-0.9l-0.3-0.3l-0.1-0.4l-0.1-0.2l-0.7-1.1l0,0l-2.8-1.6l0,0l0,0l0,0l-7-1.6L558,532
		l-1.1-1.2l-1-1.6l-1.3-2.9l-1.8-2.6l-0.6-1.5l-0.1-1.2l-0.3-1.2l-0.6-1.2l-0.1-1l0.4-0.9v-0.1V513v-3.2v-3.2v-3.3V500v-3.3v-3.3
		v-3.3v-3.3v-3.4V480v-3.4v-3.4v-2.5l0.6,0.6l1,1.6l-0.3-1l-0.6-1.2l-0.6-0.7v-3.7l0-4.6l0.2-0.4l1.4-0.8l0.4,0.1l0.3,1l0.3,0.2
		l0.7,0.2l0.5,0.3l0.5,0.5l0.3,0.6l0.2,0.6l0.4,1.8l0.3,0.8l0-1l0.3-1.6l0.3-0.7l0.9-1l0-0.4l-0.4-0.6l-1.8-2.4l0-0.6l0.5-0.3
		l0.3-0.7l0.2-1l0.4-0.7l1.1-1l1-1.6l0.5-1.1l0.4-0.6l0.4-0.1l-0.6-0.4l-0.1-0.3l0-1.3L560,448l-0.4-0.6l-1.1-1.4l-0.2-0.4l-0.2-1.5
		l0.1-0.8l0.3-0.7l-0.2-0.6l-1-1.1l-0.4-1l-0.4-2.4l-0.4-3.1l-0.5-2.3l-0.5-1.4l-0.1-0.9l0.3-0.4l0.4-1.2l0.3-0.3l0.5,0.1l0-0.1
		l-0.8-0.6l-0.4-0.8l0-0.3l0.7-0.8l-0.1-0.3l-0.5-0.4l-1.6-0.7l0.6-0.3l0.4-0.6l-0.1-0.2l-0.6-0.2l-0.7-0.5l-0.5-0.7l-0.7-1.1
		l-0.4-0.9l-0.4-1.5l-0.7-1.7l-0.3-0.4l-0.3-0.3l-0.4-0.1l0-0.3l0.4-0.4l6.8-2.9l0.6-0.4l3.3-1.6l1.5-0.9l1.6-1.3l2.1-1.3l1-0.9
		l0.7-0.8l3.4-3.3l1.4-1.7l0.8-1.5l1.2-1.8l1.6-2.1l1-1.8l0.4-1.5l0.5-2.6l0.2-2.3l0.1-3.4l0-3l-0.4-4.8l-0.3-1.5l-0.5-1.8l-1.2-3.6
		l-0.2-1l-0.7-1.7l-2.4-4.4l-3-3l-0.6-0.8l-1.2-0.9l-1.8-1l-1.2-0.8l-3-3.1l-1-0.4l-0.4-0.8l-0.1-0.6l0.1-1.5l0.2-1l0.2-0.8l0.2-0.5
		l1.7-2.3l0.9-1.9l0.7-1l0.7-0.8l1.3-1l0.7-1.3l-0.2-0.5l-0.6-0.6l-0.1-0.6l1-1.5l0.1-0.4l-0.1-1.4l0.2-0.3l1.2-0.1l1.7,2l0.4-0.2
		l-0.6-0.5l-0.7-1.3l0.1-0.5l1.3-1.4l0-0.7l-0.4-0.9l0-0.7l0.8-1.7l-0.2-0.4l-2.1-0.3l-0.3-0.5l0.1-0.2l1-0.6l0.1-0.2l-1.8-3.9
		l-0.3-1.2l0.8-1.5l0.8-0.7l-0.1-0.4l-1.1-0.1l-0.7-0.2l-0.7-1.1l0.3-0.7l0.2-0.3l0.7-1.7l0.6-0.3l-0.1-0.3l-2.4,0.7l-1.1-0.6
		L564,312l-0.5-0.2l0.2-0.6l2-2.8l0.9-1.5l0.6-1.4l0.3-0.9l0-0.5l-0.2-3l0.1-0.8l0.8-0.8l1.2-1.5l-1.7-1.3l-1-1.3l-0.7-0.6l-0.5-0.6
		l-0.7-1.3l-0.5-1.7l-0.5-3.5l-0.1-1.9l0.1-1.4l0.2-0.7l0.4-0.7l1.5-1.4l2.7-2l2.1-0.8l1.5,0.4l2.9,0.5l2.4,1.2l7.2,2.9l1.3,1.3
		l-1.2,1.1l0.2,0.3l2.7-2l0.7-0.4l0.6-0.1l2,0.8l0.8,0.1l1,0.7l2.5,2.2l0.2-0.2l-0.7-1.1l0.4-0.5l1.9-1.2l2-1l1.4-0.9l1.5-1.2l1-0.7
		l0.5-0.1l0.7,0.4l1.8,1.7l1.2,0.8l0.9,0.9l1.3,1.6l0.5,0.3l1,1l1.3-0.1l0.4,0.1l0.1,0.2l0.2,0.7l0.1,0.5l0,0.5l-0.3,1.4l-1,2.2
		l0.4,0l0.6-0.5l0.8-0.8l0.6-0.3l1.3,0.7l1.2,1.1l0.4,0.6l0.5,0.9l0.4,0.5l0.4,0.9l0,0.3l-0.3,0.4l-1.5,0.7l0.3,0.3l1.7-0.5l0.5-0.5
		l0.4-0.8l0.5-0.2l2,1.3l0.3,0.5l-0.1,0.4l-0.3,0.4l-0.9,0.5l-0.8,1.1l-0.1,0.5l0.5,0.3l1.3,0.2l0,0.3l-0.8,0.5l-0.1,0.7l1.7,2.3
		l1.2,1l0.7,0.2l1.5,0l1.3,0.4l2.8,1.3l1.6,0.2l1.4-0.4l0.9-0.1l0.8,0.5l0.3,0.4l0.1,0.7l0,1.1l0.5,0.8l0.9,0.4l0.8-0.1l1-0.9
		l0.8-0.2l0.3-0.6l0.2-1.2l0.2-0.7l0.6-0.2l0.5,0.4l0.3,0.5l0.5,1.6l0.1,0.7l-0.1,0.7l-0.3,0.6l-0.5,0.6l-0.8,0.7l-0.6,1l-0.7,2.2
		l-0.3,1.5l-0.1,0.9l0,0.9l0.1,1l0.3,0.8l0.7,1.2l0,0.4l0,1l-0.1,0.4l-0.4,0.8l-1.1,0.8l-1.5,0.2l-4.9,0l-1.3-0.2l0.3,0.8l1.4,0.2
		l1.2,0l4.7,0.5l0.6,0.5l0.5,0.8l0.4,0.9l0.4,1.8l0.1,0.8l-0.2,0.9l-0.5,1l-0.3,1.3l-0.2,1.7l0.3,0.9l2.5,0.1l0.5,0.6l-0.1,0.5
		l-0.9,1.7l-0.1,0.5l0.4,1.1l-0.1,0.3l-0.2,0.3l-0.2,0.9l-0.2,1.4l-0.3,0.9l-0.7,0.7l-0.4,0.2l-0.3-0.2l-0.7-1.9l-0.3-0.3l-0.3,0.2
		l-0.1,0.3v0.4l-0.1,0.4l-0.2,0.4l-1,0.7l-1.6,0.5l0,0.5l1.1,0.3l1.4,0.8l0.8,0.1l1.2-0.7l2.4-2.1l1-0.6l0.9-0.2l1,0l1.1,0.2
		l2.2-0.3l0.5,0.2l0.7,0.5l0.8,0.7l0.5,0.7l0.3,0.7l0.5,2.5l0.7,0.7l0.2,0.5l0,0.8l0,1.5l-0.7,2.9l-0.4,1.1l-1,1.5l-1.2,0.7l-2,0.6
		l-1.1,0.5l-0.8,0.7l0,0.4l2.3-1.2l2.6-0.6l0.7-0.7l0.5-0.7l0.6-1.5l1-3.8l0.6-1.2l0.8-0.2l0.4,0.4l0.8,2.2v0.6l-0.2,0.5l-1.4,2.2
		l0.5-0.2l1.4-2l0.3-0.6l0.2-0.9l0.4-0.7l0.2,0.3l0.4,2.4l0,1.8l0.1,0.6l-0.2,1.7l0.2,0.3l0.4-1.4l0.1-1.1l0.2-0.8l0.2-0.5l1.7-1.5
		l2-1.2l1.3-1.1l1.1-0.5l1.6-0.5l1-1l0.5-1.5l0.4-1l0.3-0.6l1-1l0.6-0.1l0.5,0.4l0.6,0.8l0.7,1.2l0.4,0.9l0.1,0.7l0.1,2.3l0.1,0
		l0.6-1.8l0.1-0.6l0-0.7l-0.2-0.7l-0.6-1.5l-0.2-0.9l0.1-0.6l0.7-0.3l1-0.1l0.2-0.2l-0.7-0.6l0-0.3l0.7-1.1l0.4-0.1l0.8,0.2
		l-0.2-0.6l0-0.4l0.2-0.1l1.4,0.3l0.2-0.4l1.2,0l0.1-0.4l-1-0.5l-1-0.3l-0.3-0.3l-0.2-0.4l-0.3-1.1l0.1-0.3h0.3l0.5,0.3l0.3-0.6
		l0.3-1.3l0.3-0.5l0.9,0.6l0-0.3l-0.7-2.1l0.1-0.4l1.1-0.2l0.7,0.3l1.8,1.5l0.3-0.2l-0.3-0.4l-0.9-0.9l-0.8-0.6l-0.7-0.3l-0.5-0.5
		l-0.6-1.4l-0.1-0.6l0-0.7l0.4-1.5l0.2-0.3l0.4-0.2l0.6-0.2l0.7,0.2l1.4,1l0.2-0.3l-0.8-0.5l-0.4-0.5l-0.2-0.7l0.1-0.7l0.6-1.5
		l0.3-1.2l1.3-3.4l0.4-0.6l0.4-0.4l0.2-0.4l1-0.1L685,321.1z M710.2,496.1l-3.8,0.2l-3-0.8l-2.2-0.4l-2.2-0.7l-4.7-2.4l-0.5-0.8
		l-0.5-1l-0.9-0.9l-1-0.8l-5-2.3l-0.4-0.8l1-0.5l1.2-0.3l1,0l3.3,0.9l4.2,0.8l1.8,0.6l2.1,0.9l2,1.1l4.5,3l0.8,0.2l2,1.5l0.7,1.1
		l0.4,0.9l-0.4,0.4L710.2,496.1z M666.3,510.5l-1.2,0.3l-0.7,0.5l-0.2,0.8l-1-0.2l-1.2,0.3l-1.1,0.1l-0.5,0.4l-1.9-1.1l-0.3-0.4
		l0-0.4H657h-1.6h-1h-0.8v0.9h-1.2h-1.1v1.2v1v1v1.4l-0.1,0.3l-0.3,0.5l-0.6,0.6l-1.2,0.8l-3.8,1.7l-0.1-0.6l0.1-1.2l-0.9-0.2
		l-0.9-0.2l-0.5,0.8l-0.5,0.7l-1,1.5l-1.4,2.1l-0.8,1.1l-1.4,2l-1.2,1.8l-0.3,1.8l-0.3,1.7l-1,1.3l-0.6,1.2l-0.3,1.3l-0.2,1.2l0,1
		l0.2,0.5l-0.1,0.4l-0.3,0.5l-0.7,0.8l-0.1,0.8l-0.4,0.4l-1.2,0.8l-1,1.2l0,0.7l0.1,0.6l0,0.3l-0.2,0.2l-0.4,0l-0.4,0.1l-0.3,0.5
		l0,0.7l-0.2,0.5l-0.3,0.1l-0.2-0.4l-0.3-0.5l-0.4-0.1l-0.5,0.4L627,546l-0.5,0.4l-0.6,0l-1.1-0.4l-0.8,1.1l-0.9,2.4l-3.7,0l-3.7,0
		l-3.7,0l-3.7,0h-1.5h-2.2l-3.7,0l-3.7,0h-2.1h-0.4l1.3-0.5l2.7-1.9l2-0.7l2.6-2l1.8-0.4l0.3-0.4l0.3-1.6l0.2-0.6l0.9-1.6l1-1.4
		l0.8-1.9l1.5-1.2l2.3-1l2.1-2.2l1.2-0.7l1.1-0.5l0.5-0.9l0.7-0.5l1.9-1.1l2.1-0.3l2.1-0.9l1.6-0.5l1-0.8l1.4-0.4l4.2-2.4l1.2-1.1
		l1.5-2.3l1.3-1.2l0.5-1.2l1.9-2l2-2.7l1-1.9l1.5-1.1l2.9-3.1l1.5-1.2l0.6-0.1l1.7-1.1l1.1-1.1l1.7-1.2l3.1-1.4l2.9-1.7l4-1.5
		l4.7-2.2l3.8-1.2l2.7-0.2l3.2-0.6l1.1,0.1l5,1l2.4,1.2l2.7,2.5l0.4,0.7l0.1,0.9l-1.5-0.4l-1.3,0l0.9,0.5l1.5,1.5l-0.1,1.9l-0.8,1.7
		l-2.5,0.8l-0.7,0.7l-0.5,1.1l-0.5,0.4l-1.2,0.5l-0.7,0.7l-2,1.1l-0.9,0.1l-1-0.3l-2.5-1.1l-1.5-1l-0.8,0.6l-0.6,0.6l-1.5-0.2
		l-0.7,0.3l-1.1-0.3L666.3,510.5z M709.2,520.3l0.3,0.2l0.6,0l0.4,0.1l-0.5,0.5l-1,0.1l-0.5-0.2l0.8-2.5l0.9-0.6l1.8-1.7l0.7-0.5
		l0.7-0.2l0.7,0.1l-0.7,1l-1,0.1l-0.9,0.8l-0.6,0.9l-0.7,0.5l-0.5,0.6L709.2,520.3z M627.5,525.7l-0.8,0.1l0.2-0.4l1.1-0.8l0.8-0.4
		l0.5,0l-0.8,1L627.5,525.7z M604.8,543.8l-0.7,0.2l-1.2-0.2l-1.3,0.3l-0.4,0l1-0.9l1.5-0.6l1.5-1.8l0.4-0.1l-0.6,2l-0.1,0.7
		L604.8,543.8z M603.6,542.3l-1.1,0.3l-0.4-0.1l1.2-1.3l1.4-0.3L603.6,542.3z"/>
	<path id="CA-SK" fill="#CCCCCC" stroke="#FFFFFF" stroke-width="0.5" d="M355.6,497.4h-3.8h-3.8h-3.8h-3.8h-3.8h-3.8h-1h-2.9H325
		h-3.8h-3.8h-3.8h-3.8h-3.8H302h-3.8h-3.8h-3.8h-3.8h-3.8h-3.8h-0.9v-4.7V488v-4.8v-4.8v-4.8v-4.9v-4.9v-4.9v-5v-5v-5.1v-5.1v-5.1
		v-5.2v-5.2v-5.3v-5.3v-5.4v-5.4v-5.5v-5.5v-5.6v-5.6v-5.7v-5.7v-5.8v-5.8v-5.9v-5.9v-6v-6.1v-6.1h4.5h4.5h4.5h4.5h4.5h4.5h4.5h4.5
		h4.5h4.5h4.5h4.5h4.5h4.5h4.5h4.5v4.7v4.6v4.6v4.6v4.5v4.5v4.5v4.4v4.4v4.4v4.3v4.3v4.3v4.2v4.2l0,4.2l0.4,6.8l0.4,6.7l0.4,6.6
		l0.3,6.5l0.4,6.5l0.4,6.4l0.4,6.3l0.4,6.3l0.4,6.2l0.4,6.2l0.4,6.1l0.4,6l0.4,6l0.4,5.9l0.4,5.9L355.6,497.4z"/>
	<path id="CA-YT" fill="#CCCCCC" stroke="#FFFFFF" stroke-width="0.5" d="M41.1,140.1l0,6.8v7.1v7v6.9l0.1,1l0.3,0.9l1.2,1.2
		l0.3,0.4l0.2,0.5l0.3,1.5l-0.1,1.5v0.6l0.2,0.7l0.2,0.4l0.1,0.5l0.2,1.2l0,0.4l-0.4,1.4l-0.6,1l0,0.4l0,0.7l0,1.1l0.3,1.2l0.2,0.5
		l0.4,0.2h2.6h2.6h2.6h2.6h2.6h2.6H62h0.6l0,0.7l0.2,0.7l1,0.9l0.7,0.9l0.5,1l0.1,0.8l-0.1,0.8l-0.1,0.4l0.1,0.5l0.2,0.6l0,0.3
		l0,0.4l0.3,0.4l0.7,1l0.2,0.5l-0.1,0.7l-0.1,0.6l0.1,0.8l0,0.4l-0.2,0.2l-0.3,0l-0.3,0.1l-0.2,0.5l-0.3,1.5l-0.1,0.5l0.1,0.5l0.3,0
		l1,0.1l0.3,0.1l0.3,0.2l0.1,0.8l0,0.9l0,0.7l-0.2,0.6l-0.6,0.8l-0.2,0.3l0,0.5l0.3,0.5l0.2,0.9l0,0.8l0.3,0.3l0.8,0.2l0.8,0
		l1.6-1.1l1.7-0.5l0.9,0l0.2,0.2l0,0.3l-0.2,0.5l-0.2,0.9l0.2,0.4l0.4,0.1l0.7-0.3l0.5-1l0.5-0.6l0.9-0.7l0.3,0.1l0.8,0.8l1-0.1
		l0.2,0.3l0,0.5l-1.8,1.5L76,211l0.2,0.5l0.4,0.3l1,1.2l0.7,1.1l0.9,1.9l0,0.7l-0.7,1.3l-0.7,2l-1.8,2.2l-0.2,0.9l-0.3,0.4l-1.5,1.2
		l-0.1,0.5l0.1,0.4l0.2,0.2l0.4,0.1l0.9-0.3l0.3-0.1l0.3,0.3l0,1.3l0.2,0.3l1.2,0.4l0.3,0.4l0,0.4l-0.2,0.4l-0.9,1.1l-0.1,0.3v1
		l-0.1,0.6l-0.7,0.9l-0.2,0.3l0,0.4l0.1,0.3l0.3,0.3l1.4,0.1l0.7,0.3l1.9,1.3l0.5,0.4l1.4,2.2l1.3,0.7l0.2,0.2l0.1,0.4l-0.1,0.5
		l-0.5,1.3l-0.1,0.4l0.1,0.4l0.3,0.2h1.6l0.7-0.3l0.6-0.5l0.4-0.7l0.4-0.2l0.8,0.2l1.4,1l0.8,1.6l0,0.5l0.1,0.5l0.3,0.3l0.5,0.8
		l0.2,0.5v0.5l-0.2,0.6l0.1,0.3l0.5,0.9l0.2,0.7l0.5,0.4l0.3,0.8l0.9,0.9l1.3,0.6l1.3,1.4l0.7,0.6l1.3,0.3l0.2,0.3l0,0.4l-0.2,0.2
		l-1,0.5l-0.3,0.3l0,0.3l0.2,0.4l0.4,0.2l0.9-0.4l0.3,0l0.1,0.3l0.1,0.6l0.2,0.3l0.8,0.4l0.3,0.6l0.5,0.6l0.3,0.7l0.1,0.7l-0.5,1.6
		l-0.4,0.6L98,264l-0.3,0.5l0.1,0.3l0.7,0.3l0.7,0.9l0.7,0.6l0.3,0.6l0.4,1.3l0.8,0.4l0.9,0l0.2,0.2l-0.1,0.4l-0.9,2.1v0.7l-0.1,0.6
		l0.1,0.7l0.5,1.1l0.1,0.4l0.1,0.5l0.2,0.3l0.7,0.5l0.2,0.3l0.3,1.1l0,0.4l0.4,0.4l2.1,1.3l0.2,0.5l-0.1,0.4l-0.8,0.6l-0.1,0.3
		l0,0.3l0.4,0.4l0.1,0.3l-0.5,1l0,0.5l0.4,1.1l0.1,0.3l-0.1,0.3l-0.2,0.3l-0.1,0.3l0.1,0.3l0.4,0.3l0.7,0.2l1.1-0.1l0.9,0.2l0.2,0.2
		l0.3,0.7l0.2,0.2l0.3-0.1l0.9-0.8l0.6-0.2l0.5,0.1l1.4,1.6l0.3,0.8l1,1.2l0.2,0.8l0.2,0.3l1,0.5l0.4,0.5l0.2,0.6l0.2,1.3l1.7,1.7
		l0.8,0.6l0.5,0.7l0.4,0.4l1.3,0.4l1.5,0l0.6,0.3l0.6,0.6l0.4,1.1l0.4,0.6l0.5,2.5l0.1,0.7l-0.1,1.3l-0.5,0.6l-0.1,0.2l0,0.2
		l0.3,0.4l0.8-0.2l0.2,0.2l0.3,1.9l-0.1,1.2l0.1,0.5l0.2,0.5l0,0.7l0.3,0.5l0.2,0.1l0.6-0.2l0.9,0.2l1.3-0.7l1.5,0.4l0.5-0.1
		l0.4-0.2l0.2-0.3v-0.6l0.1-0.2l0.6-0.2l0.4,0l0.1,0.6l0.3,0.2l0.6,0.1l0.4-1l0.2-0.3l0.3-0.1h0.3l1.4,0.9l2.9,0.9l0.5,0l0.8-0.6
		l0.7-0.3l2.4-0.3l0.2-1.2l0.2-0.4l0.3-0.2l1.7,0l0.3,0.1l0.7,2.4l0,0.6l-0.9,1.6v0.3l0.1,0.4l1.2,1.7l0.6,1.3l1.4,0.4l0.2,0.4
		l0.2,1.8l0.2,0.6l0.7,1.7l0.9,1.8l0.1,0.5l-0.2,0.7l0,0.2l0.1,0.1l1,0l0.3,0.3l0.2,0.3h-8.5h-8.5h-8.5h-8.5h-8.5h-8.5h-8.5H86h-8.5
		H69h-8.5h-8.5h-8.5h-8.5h-8.5l-8.6,0l-1.1-1.5l0.4-1.6l0.5-1.9v-1.2l-1.4,0.1l-2.1,0.1l-1.9,0.1l-1.4,1.4l-1.3,1.3l-2-1l-2.3-1.1
		l-0.7,1.5L2.4,322l-2.2-0.8v-5.3v-5.3v-5.4v-5.5v-5.5v-5.5V283v-5.7v-5.7v-5.8V260v-5.9v-6v-6v-6.1v-6.2v-6.2v-6.3v-6.4v-6.4v-6.5
		v-6.6v-6.7v-6.7v-6.8v-6.9v-7v-7.1v-7.2v-7.3v-7.4V121l1.3,0.4l4.1,0.8l3.8-0.5l7.1,2.7l4.4,5.1l3.6,2.5l1.5,1.7l2.3,1.5l5.5,3.2
		l1.7,0.3l3.2,1.5l2-0.2L41.1,140.1z M17.8,122.9l-0.7,1l-1.2-1l-0.3-0.5l1.4-1.3l0.6,0l1.3,0.8l0.5,0.7L17.8,122.9z"/>
</g>
</svg>
