<?xml version="1.0" encoding="UTF-8"?>
<svg width="32px" height="27px" viewBox="0 0 32 27" version="1.1" xmlns="http://www.w3.org/2000/svg" xmlns:xlink="http://www.w3.org/1999/xlink">
    <!-- Generator: Sketch 46.2 (44496) - http://www.bohemiancoding.com/sketch -->
    <title>Combined Shape Copy</title>
    <desc>Created with Sketch.</desc>
    <defs></defs>
    <g id="Page-1" stroke="none" stroke-width="1" fill="none" fill-rule="evenodd">
        <path d="M16.0474882,0.164283328 C16.0474882,0.1095767 16.0474882,0.0548155911 16.0474882,8.32667268e-15 L16,0.0821416542 L15.9525118,-8.8817842e-15 C15.9525118,0.0718552835 15.9525118,0.143602246 15.9525118,0.215240889 L15.2442014,1.38946774 L15.2442014,1.38946774 C14.2200938,3.16089555 12.0242473,3.8738464 10.154866,3.04188109 L9.88437292,2.92149858 L11.5698369,12.7899521 L7.11756461,8.40694673 L6.41291299,9.38207803 L6.41291299,9.38207803 C5.73839321,10.3155114 4.58907029,10.7804283 3.45527443,10.5784833 L0.863881155,10.1169198 L1.53682145,14.0253509 L1.53682145,14.0253509 C1.74794069,15.2515296 1.12083989,16.4691452 1.42108547e-14,17.0093334 L1.28785871e-14,17.0093334 L5.7338292,22.0653458 L5.7338292,22.0653458 C7.12708682,23.2939014 7.66891325,25.2261538 7.11756461,27 C11.3344591,26.2110238 14.3111003,25.8541676 16.0474882,25.9294316 C16.0474882,25.9265226 16.0474882,25.9236133 16.0474882,25.9207035 C17.7964672,25.837664 20.7414496,26.1974295 24.8824354,27 C24.3310867,25.2261538 24.8729132,23.2939014 26.2661708,22.0653458 L26.2661708,22.0653458 L32,17.0093334 C30.8791601,16.4691452 30.2520593,15.2515296 30.4631785,14.0253509 L30.4631785,14.0253509 L31.1361188,10.1169198 L28.5447256,10.5784833 C27.4109297,10.7804283 26.2616068,10.3155114 25.587087,9.38207803 L25.587087,9.38207803 L24.8824354,8.40694673 L20.4301631,12.7899521 L22.1156271,2.92149858 L21.845134,3.04188109 C19.9757527,3.8738464 17.7799062,3.16089555 16.7557986,1.38946774 L16.7557986,1.38946774 L16.0474882,0.164283308 Z" id="Combined-Shape-Copy" fill="#D0021B"></path>
    </g>
</svg>